<svg xmlns="http://www.w3.org/2000/svg" viewBox="0 0 193.67 134.03"><defs><style>.cls-1{fill:#b3b3b3;}</style></defs><title>normal copy</title><g id="Layer_2" data-name="Layer 2"><g id="noChange"><g id="normal_copy" data-name="normal copy"><path id="icon_NoChangeArrow" class="cls-1" d="M189.73,57.36c-4.91-5.13-44.64-46-52.9-54.24-6.24-6.24-16.3-2.62-16.3,6.47V36.38H73.14V9.59c0-9.09-10.06-12.71-16.3-6.47-8.26,8.26-48,49.11-52.91,54.24A14.84,14.84,0,0,0,0,67.1a14.41,14.41,0,0,0,3.93,9.57c4.92,5.14,44.65,46,52.91,54.25,6.24,6.23,16.3,2.61,16.3-6.48V97.66h47.39v26.78c0,9.09,10.06,12.71,16.3,6.48,8.26-8.27,48-49.11,52.9-54.25a14.78,14.78,0,0,0,3.94-9.74A14.37,14.37,0,0,0,189.73,57.36Z"/></g></g></g></svg>