<svg id="Layer_1" data-name="Layer 1" xmlns="http://www.w3.org/2000/svg" viewBox="0 0 50 50"><defs><style>.cls-1{fill:#b6a6a6;}</style></defs><title>Artboard 70 copy 6Template</title><path class="cls-1" d="M45.12,42.12h-.75v-.25h.75Zm-1,0h-.75v-.25h.75Zm-1,0h-.75v-.25h.75Zm-1,0h-.75v-.25h.75Zm-1,0h-.75v-.25h.75Zm-1,0h-.75v-.25h.75Zm-1,0h-.75v-.25h.75Zm-1,0h-.75v-.25h.75Zm-1,0h-.75v-.25h.75Zm-1,0h-.75v-.25h.75Zm-1,0h-.75v-.25h.75Zm-1,0h-.75v-.25h.75Zm-1,0h-.75v-.25h.75Zm-1,0h-.75v-.25h.75Zm-1,0h-.75v-.25h.75Zm-1,0h-.75v-.25h.75Zm-1,0h-.75v-.25h.75Zm-1,0h-.75v-.25h.75Zm-1,0h-.75v-.25h.75Zm-1,0h-.75v-.25h.75Zm-1,0h-.75v-.25h.75Zm-1,0h-.75v-.25h.75Zm-1,0h-.75v-.25h.75Zm-1,0h-.75v-.25h.75Zm-1,0h-.75v-.25h.75Zm-1,0h-.75v-.25h.75Zm-1,0h-.75v-.25h.75Zm-1,0h-.75v-.25h.75Zm-1,0h-.75v-.25h.75Zm-1,0h-.75v-.25h.75Zm-1,0h-.75v-.25h.75Zm-1,0h-.75v-.25h.75Zm-1,0h-.75v-.25h.75Zm-1,0h-.75v-.25h.75Zm-1,0h-.75v-.25h.75Zm-1,0H9.37v-.25h.75Zm-1,0H8.37v-.25h.75Zm-1,0H7.37v-.25h.75Zm-1,0H6.37v-.25h.75Zm-1,0H5.37v-.25h.75Zm-1,0H4.87v-.75h.25Zm40-.5h-.25v-.75h.25Zm-40-.5H4.87v-.75h.25Zm40-.5h-.25v-.75h.25Zm-40-.5H4.87v-.75h.25Zm40-.5h-.25v-.75h.25Zm-40-.5H4.87v-.75h.25Zm40-.5h-.25v-.75h.25Zm-40-.5H4.87v-.75h.25Zm40-.5h-.25v-.75h.25Zm-40-.5H4.87v-.75h.25Zm40-.5h-.25v-.75h.25Zm-40-.5H4.87v-.75h.25Zm40-.5h-.25v-.75h.25Zm-40-.5H4.87v-.75h.25Zm40-.5h-.25v-.75h.25Zm-40-.5H4.87v-.75h.25Zm40-.5h-.25v-.75h.25Zm-40-.5H4.87v-.75h.25Zm40-.5h-.25v-.75h.25Zm-40-.5H4.87v-.75h.25Zm40-.5h-.25v-.75h.25Zm-40-.5H4.87v-.75h.25Zm40-.5h-.25v-.75h.25Zm-40-.5H4.87v-.75h.25Zm40-.5h-.25v-.75h.25Zm-40-.5H4.87v-.75h.25Zm40-.5h-.25v-.75h.25Zm-40-.5H4.87v-.75h.25Zm40-.5h-.25v-.75h.25Zm-40-.5H4.87v-.75h.25Zm40-.5h-.25v-.75h.25Zm-40-.5H4.87v-.75h.25Zm40-.5h-.25v-.75h.25Zm-40-.5H4.87v-.75h.25Zm40-.5h-.25v-.75h.25Zm-40-.5H4.87v-.75h.25Zm40-.5h-.25v-.75h.25Zm-40-.5H4.87v-.75h.25Zm40-.5h-.25v-.75h.25Zm-40-.5H4.87v-.75h.25Zm40-.5h-.25v-.75h.25Zm-40-.5H4.87v-.75h.25Zm40-.5h-.25v-.75h.25Zm-40-.5H4.87v-.75h.25Zm40-.5h-.25v-.75h.25Zm-40-.5H4.87v-.75h.25Zm40-.5h-.25v-.75h.25Zm-40-.5H4.87v-.75h.25Zm40-.5h-.25v-.75h.25Zm-40-.5H4.87v-.75h.25Zm40-.5h-.25v-.75h.25Zm-40-.5H4.87v-.75h.25Zm40-.5h-.25v-.75h.25Zm-40-.5H4.87v-.75h.25Zm40-.5h-.25v-.75h.25Zm-40-.5H4.87v-.75h.25Zm40-.5h-.25v-.75h.25Zm-40-.5H4.87v-.75h.25Zm40-.5h-.25v-.75h.25Zm-40-.5H4.87v-.75h.25Zm40-.5h-.25v-.75h.25Zm-40-.5H4.87v-.75h.25Zm40-.5h-.25V9.87h.25Zm-40-.5H4.87V9.37h.25Zm40-.5h-.25V8.87h.25Zm-40-.5H4.87V8.37h.25Zm40-.5h-.25V7.87h.25Zm-.5-.5h-.75V7.87h.75Zm-1,0h-.75V7.87h.75Zm-1,0h-.75V7.87h.75Zm-1,0h-.75V7.87h.75Zm-1,0h-.75V7.87h.75Zm-1,0h-.75V7.87h.75Zm-1,0h-.75V7.87h.75Zm-1,0h-.75V7.87h.75Zm-1,0h-.75V7.87h.75Zm-1,0h-.75V7.87h.75Zm-1,0h-.75V7.87h.75Zm-1,0h-.75V7.87h.75Zm-1,0h-.75V7.87h.75Zm-1,0h-.75V7.87h.75Zm-1,0h-.75V7.87h.75Zm-1,0h-.75V7.87h.75Zm-1,0h-.75V7.87h.75Zm-1,0h-.75V7.87h.75Zm-1,0h-.75V7.87h.75Zm-1,0h-.75V7.87h.75Zm-1,0h-.75V7.87h.75Zm-1,0h-.75V7.87h.75Zm-1,0h-.75V7.87h.75Zm-1,0h-.75V7.87h.75Zm-1,0h-.75V7.87h.75Zm-1,0h-.75V7.87h.75Zm-1,0h-.75V7.87h.75Zm-1,0h-.75V7.87h.75Zm-1,0h-.75V7.87h.75Zm-1,0h-.75V7.87h.75Zm-1,0h-.75V7.87h.75Zm-1,0h-.75V7.87h.75Zm-1,0h-.75V7.87h.75Zm-1,0h-.75V7.87h.75Zm-1,0H9.87V7.87h.75Zm-1,0H8.87V7.87h.75Zm-1,0H7.87V7.87h.75Zm-1,0H6.87V7.87h.75Zm-1,0H5.87V7.87h.75Zm-1,0H4.87V7.87h.75Z"/><path class="cls-1" d="M10.09,10.45v29.1H7.28V10.45h2.81m.75-.75H6.53V40.3h4.31V9.7Z"/><path class="cls-1" d="M33.31,10.45v29.1H30.5V10.45h2.81m.75-.75H29.75V40.3h4.31V9.7Z"/><path class="cls-1" d="M14.39,10.45v29.1H12.57V10.45h1.82m.75-.75H11.82V40.3h3.32V9.7Z"/><path class="cls-1" d="M28,10.45v29.1H26.2V10.45H28m.75-.75H25.45V40.3h3.31V9.7Z"/><path class="cls-1" d="M37.6,10.45v29.1H35.79V10.45H37.6m.75-.75H35V40.3h3.31V9.7Z"/><path class="cls-1" d="M23.72,10.45v29.1H16.91V10.45h6.81m.75-.75H16.16V40.3h8.31V9.7Z"/><path class="cls-1" d="M42.9,10.45v29.1H40.08V10.45H42.9m.75-.75H39.33V40.3h4.32V9.7Z"/></svg>