<svg id="Layer_1" data-name="Layer 1" xmlns="http://www.w3.org/2000/svg" viewBox="0 0 50 50"><defs><style>.cls-1{fill:#b6a6a6;}</style></defs><title>Artboard 70 copy 4Template</title><path class="cls-1" d="M45.09,42.08h-.75v-.25h.75Zm-1,0h-.75v-.25h.75Zm-1,0h-.75v-.25h.75Zm-1,0h-.75v-.25h.75Zm-1,0h-.75v-.25h.75Zm-1,0h-.75v-.25h.75Zm-1,0h-.75v-.25h.75Zm-1,0h-.75v-.25h.75Zm-1,0h-.75v-.25h.75Zm-1,0h-.75v-.25h.75Zm-1,0h-.75v-.25h.75Zm-1,0h-.75v-.25h.75Zm-1,0h-.75v-.25h.75Zm-1,0h-.75v-.25h.75Zm-1,0h-.75v-.25h.75Zm-1,0h-.75v-.25h.75Zm-1,0h-.75v-.25h.75Zm-1,0h-.75v-.25h.75Zm-1,0h-.75v-.25h.75Zm-1,0h-.75v-.25h.75Zm-1,0h-.75v-.25h.75Zm-1,0h-.75v-.25h.75Zm-1,0h-.75v-.25h.75Zm-1,0h-.75v-.25h.75Zm-1,0h-.75v-.25h.75Zm-1,0h-.75v-.25h.75Zm-1,0h-.75v-.25h.75Zm-1,0h-.75v-.25h.75Zm-1,0h-.75v-.25h.75Zm-1,0h-.75v-.25h.75Zm-1,0h-.75v-.25h.75Zm-1,0h-.75v-.25h.75Zm-1,0h-.75v-.25h.75Zm-1,0h-.75v-.25h.75Zm-1,0h-.75v-.25h.75Zm-1,0H9.34v-.25h.75Zm-1,0H8.34v-.25h.75Zm-1,0H7.34v-.25h.75Zm-1,0H6.34v-.25h.75Zm-1,0H5.34v-.25h.75Zm-1,0H4.84v-.75h.25Zm40-.5h-.25v-.75h.25Zm-40-.5H4.84v-.75h.25Zm40-.5h-.25v-.75h.25Zm-40-.5H4.84v-.75h.25Zm40-.5h-.25v-.75h.25Zm-40-.5H4.84v-.75h.25Zm40-.5h-.25v-.75h.25Zm-40-.5H4.84v-.75h.25Zm40-.5h-.25v-.75h.25Zm-40-.5H4.84v-.75h.25Zm40-.5h-.25v-.75h.25Zm-40-.5H4.84v-.75h.25Zm40-.5h-.25v-.75h.25Zm-40-.5H4.84v-.75h.25Zm40-.5h-.25v-.75h.25Zm-40-.5H4.84v-.75h.25Zm40-.5h-.25v-.75h.25Zm-40-.5H4.84v-.75h.25Zm40-.5h-.25v-.75h.25Zm-40-.5H4.84v-.75h.25Zm40-.5h-.25v-.75h.25Zm-40-.5H4.84v-.75h.25Zm40-.5h-.25v-.75h.25Zm-40-.5H4.84v-.75h.25Zm40-.5h-.25v-.75h.25Zm-40-.5H4.84v-.75h.25Zm40-.5h-.25v-.75h.25Zm-40-.5H4.84v-.75h.25Zm40-.5h-.25v-.75h.25Zm-40-.5H4.84v-.75h.25Zm40-.5h-.25v-.75h.25Zm-40-.5H4.84v-.75h.25Zm40-.5h-.25v-.75h.25Zm-40-.5H4.84v-.75h.25Zm40-.5h-.25v-.75h.25Zm-40-.5H4.84v-.75h.25Zm40-.5h-.25v-.75h.25Zm-40-.5H4.84v-.75h.25Zm40-.5h-.25v-.75h.25Zm-40-.5H4.84v-.75h.25Zm40-.5h-.25v-.75h.25Zm-40-.5H4.84v-.75h.25Zm40-.5h-.25v-.75h.25Zm-40-.5H4.84v-.75h.25Zm40-.5h-.25v-.75h.25Zm-40-.5H4.84v-.75h.25Zm40-.5h-.25v-.75h.25Zm-40-.5H4.84v-.75h.25Zm40-.5h-.25v-.75h.25Zm-40-.5H4.84v-.75h.25Zm40-.5h-.25v-.75h.25Zm-40-.5H4.84v-.75h.25Zm40-.5h-.25v-.75h.25Zm-40-.5H4.84v-.75h.25Zm40-.5h-.25v-.75h.25Zm-40-.5H4.84v-.75h.25Zm40-.5h-.25v-.75h.25Zm-40-.5H4.84v-.75h.25Zm40-.5h-.25v-.75h.25Zm-40-.5H4.84v-.75h.25Zm40-.5h-.25v-.75h.25Zm-40-.5H4.84v-.75h.25Zm40-.5h-.25V9.83h.25Zm-40-.5H4.84V9.33h.25Zm40-.5h-.25V8.83h.25Zm-40-.5H4.84V8.33h.25Zm40-.5h-.25V7.83h.25Zm-.5-.5h-.75V7.83h.75Zm-1,0h-.75V7.83h.75Zm-1,0h-.75V7.83h.75Zm-1,0h-.75V7.83h.75Zm-1,0h-.75V7.83h.75Zm-1,0h-.75V7.83h.75Zm-1,0h-.75V7.83h.75Zm-1,0h-.75V7.83h.75Zm-1,0h-.75V7.83h.75Zm-1,0h-.75V7.83h.75Zm-1,0h-.75V7.83h.75Zm-1,0h-.75V7.83h.75Zm-1,0h-.75V7.83h.75Zm-1,0h-.75V7.83h.75Zm-1,0h-.75V7.83h.75Zm-1,0h-.75V7.83h.75Zm-1,0h-.75V7.83h.75Zm-1,0h-.75V7.83h.75Zm-1,0h-.75V7.83h.75Zm-1,0h-.75V7.83h.75Zm-1,0h-.75V7.83h.75Zm-1,0h-.75V7.83h.75Zm-1,0h-.75V7.83h.75Zm-1,0h-.75V7.83h.75Zm-1,0h-.75V7.83h.75Zm-1,0h-.75V7.83h.75Zm-1,0h-.75V7.83h.75Zm-1,0h-.75V7.83h.75Zm-1,0h-.75V7.83h.75Zm-1,0h-.75V7.83h.75Zm-1,0h-.75V7.83h.75Zm-1,0h-.75V7.83h.75Zm-1,0h-.75V7.83h.75Zm-1,0h-.75V7.83h.75Zm-1,0H9.84V7.83h.75Zm-1,0H8.84V7.83h.75Zm-1,0H7.84V7.83h.75Zm-1,0H6.84V7.83h.75Zm-1,0H5.84V7.83h.75Zm-1,0H4.84V7.83h.75Z"/><path class="cls-1" d="M17.6,10.41v29.1H7.78V10.41H17.6m.75-.75H7v30.6H18.35V9.66Z"/><path class="cls-1" d="M23.52,10.41v29.1H20.71V10.41h2.81m.75-.75H20v30.6h4.31V9.66Z"/><path class="cls-1" d="M36.21,10.41v29.1H26.4V10.41h9.81M37,9.66H25.65v30.6H37V9.66Z"/><path class="cls-1" d="M42,10.41v29.1H39.22V10.41H42m.75-.75H38.47v30.6h4.31V9.66Z"/></svg>