<svg id="Layer_1" data-name="Layer 1" xmlns="http://www.w3.org/2000/svg" viewBox="0 0 50 50"><defs><style>.cls-1{fill:#b6a6a6;}</style></defs><title>Artboard 70 copy 5Template</title><path class="cls-1" d="M45.06,42.11h-.75v-.25h.75Zm-1,0h-.75v-.25h.75Zm-1,0h-.75v-.25h.75Zm-1,0h-.75v-.25h.75Zm-1,0h-.75v-.25h.75Zm-1,0h-.75v-.25h.75Zm-1,0h-.75v-.25h.75Zm-1,0h-.75v-.25h.75Zm-1,0h-.75v-.25h.75Zm-1,0h-.75v-.25h.75Zm-1,0h-.75v-.25h.75Zm-1,0h-.75v-.25h.75Zm-1,0h-.75v-.25h.75Zm-1,0h-.75v-.25h.75Zm-1,0h-.75v-.25h.75Zm-1,0h-.75v-.25h.75Zm-1,0h-.75v-.25h.75Zm-1,0h-.75v-.25h.75Zm-1,0h-.75v-.25h.75Zm-1,0h-.75v-.25h.75Zm-1,0h-.75v-.25h.75Zm-1,0h-.75v-.25h.75Zm-1,0h-.75v-.25h.75Zm-1,0h-.75v-.25h.75Zm-1,0h-.75v-.25h.75Zm-1,0h-.75v-.25h.75Zm-1,0h-.75v-.25h.75Zm-1,0h-.75v-.25h.75Zm-1,0h-.75v-.25h.75Zm-1,0h-.75v-.25h.75Zm-1,0h-.75v-.25h.75Zm-1,0h-.75v-.25h.75Zm-1,0h-.75v-.25h.75Zm-1,0h-.75v-.25h.75Zm-1,0h-.75v-.25h.75Zm-1,0H9.31v-.25h.75Zm-1,0H8.31v-.25h.75Zm-1,0H7.31v-.25h.75Zm-1,0H6.31v-.25h.75Zm-1,0H5.31v-.25h.75Zm-1,0H4.81v-.75h.25Zm40-.5h-.25v-.75h.25Zm-40-.5H4.81v-.75h.25Zm40-.5h-.25v-.75h.25Zm-40-.5H4.81v-.75h.25Zm40-.5h-.25v-.75h.25Zm-40-.5H4.81v-.75h.25Zm40-.5h-.25v-.75h.25Zm-40-.5H4.81v-.75h.25Zm40-.5h-.25v-.75h.25Zm-40-.5H4.81v-.75h.25Zm40-.5h-.25v-.75h.25Zm-40-.5H4.81v-.75h.25Zm40-.5h-.25v-.75h.25Zm-40-.5H4.81v-.75h.25Zm40-.5h-.25v-.75h.25Zm-40-.5H4.81v-.75h.25Zm40-.5h-.25v-.75h.25Zm-40-.5H4.81v-.75h.25Zm40-.5h-.25v-.75h.25Zm-40-.5H4.81v-.75h.25Zm40-.5h-.25v-.75h.25Zm-40-.5H4.81v-.75h.25Zm40-.5h-.25v-.75h.25Zm-40-.5H4.81v-.75h.25Zm40-.5h-.25v-.75h.25Zm-40-.5H4.81v-.75h.25Zm40-.5h-.25v-.75h.25Zm-40-.5H4.81v-.75h.25Zm40-.5h-.25v-.75h.25Zm-40-.5H4.81v-.75h.25Zm40-.5h-.25v-.75h.25Zm-40-.5H4.81v-.75h.25Zm40-.5h-.25v-.75h.25Zm-40-.5H4.81v-.75h.25Zm40-.5h-.25v-.75h.25Zm-40-.5H4.81v-.75h.25Zm40-.5h-.25v-.75h.25Zm-40-.5H4.81v-.75h.25Zm40-.5h-.25v-.75h.25Zm-40-.5H4.81v-.75h.25Zm40-.5h-.25v-.75h.25Zm-40-.5H4.81v-.75h.25Zm40-.5h-.25v-.75h.25Zm-40-.5H4.81v-.75h.25Zm40-.5h-.25v-.75h.25Zm-40-.5H4.81v-.75h.25Zm40-.5h-.25v-.75h.25Zm-40-.5H4.81v-.75h.25Zm40-.5h-.25v-.75h.25Zm-40-.5H4.81v-.75h.25Zm40-.5h-.25v-.75h.25Zm-40-.5H4.81v-.75h.25Zm40-.5h-.25v-.75h.25Zm-40-.5H4.81v-.75h.25Zm40-.5h-.25v-.75h.25Zm-40-.5H4.81v-.75h.25Zm40-.5h-.25v-.75h.25Zm-40-.5H4.81v-.75h.25Zm40-.5h-.25v-.75h.25Zm-40-.5H4.81v-.75h.25Zm40-.5h-.25v-.75h.25Zm-40-.5H4.81v-.75h.25Zm40-.5h-.25V9.86h.25Zm-40-.5H4.81V9.36h.25Zm40-.5h-.25V8.86h.25Zm-40-.5H4.81V8.36h.25Zm40-.5h-.25V7.86h.25Zm-.5-.5h-.75V7.86h.75Zm-1,0h-.75V7.86h.75Zm-1,0h-.75V7.86h.75Zm-1,0h-.75V7.86h.75Zm-1,0h-.75V7.86h.75Zm-1,0h-.75V7.86h.75Zm-1,0h-.75V7.86h.75Zm-1,0h-.75V7.86h.75Zm-1,0h-.75V7.86h.75Zm-1,0h-.75V7.86h.75Zm-1,0h-.75V7.86h.75Zm-1,0h-.75V7.86h.75Zm-1,0h-.75V7.86h.75Zm-1,0h-.75V7.86h.75Zm-1,0h-.75V7.86h.75Zm-1,0h-.75V7.86h.75Zm-1,0h-.75V7.86h.75Zm-1,0h-.75V7.86h.75Zm-1,0h-.75V7.86h.75Zm-1,0h-.75V7.86h.75Zm-1,0h-.75V7.86h.75Zm-1,0h-.75V7.86h.75Zm-1,0h-.75V7.86h.75Zm-1,0h-.75V7.86h.75Zm-1,0h-.75V7.86h.75Zm-1,0h-.75V7.86h.75Zm-1,0h-.75V7.86h.75Zm-1,0h-.75V7.86h.75Zm-1,0h-.75V7.86h.75Zm-1,0h-.75V7.86h.75Zm-1,0h-.75V7.86h.75Zm-1,0h-.75V7.86h.75Zm-1,0h-.75V7.86h.75Zm-1,0h-.75V7.86h.75Zm-1,0H9.81V7.86h.75Zm-1,0H8.81V7.86h.75Zm-1,0H7.81V7.86h.75Zm-1,0H6.81V7.86h.75Zm-1,0H5.81V7.86h.75Zm-1,0H4.81V7.86h.75Z"/><path class="cls-1" d="M10.56,10.44v29.1H7.75V10.44h2.81m.75-.75H7v30.6h4.31V9.69Z"/><path class="cls-1" d="M15.62,10.44v29.1H12.81V10.44h2.81m.75-.75H12.06v30.6h4.31V9.69Z"/><path class="cls-1" d="M20.86,10.44v29.1H18V10.44h2.82m.75-.75H17.29v30.6h4.32V9.69Z"/><path class="cls-1" d="M26,10.44v29.1H23.22V10.44H26m.75-.75H22.47v30.6h4.31V9.69Z"/><path class="cls-1" d="M31.22,10.44v29.1H28.41V10.44h2.81M32,9.69H27.66v30.6H32V9.69Z"/><path class="cls-1" d="M36.45,10.45v29.1H33.64V10.45h2.81m.75-.75H32.89V40.3H37.2V9.7Z"/><path class="cls-1" d="M41.78,10.45v29.1H39V10.45h2.81m.75-.75H38.22V40.3h4.31V9.7Z"/></svg>