<svg id="Layer_1" data-name="Layer 1" xmlns="http://www.w3.org/2000/svg" viewBox="0 0 50 50"><defs><style>.cls-1{fill:#b6a6a6;}.cls-2{fill:none;stroke:#b6a6a6;stroke-linecap:square;stroke-miterlimit:10;stroke-width:0.25px;stroke-dasharray:0.5;}</style></defs><title>Template_42</title><path class="cls-1" d="M17.31,17.21V32.56H7.79V17.21h9.52m.75-.75H7V33.31h11V16.46Z"/><path class="cls-1" d="M29.8,17.21V32.56H20.28V17.21H29.8m.75-.75h-11V33.31h11V16.46Z"/><path class="cls-1" d="M42.29,17.21V32.56H32.77V17.21h9.52m.75-.75H32V33.31H43V16.46Z"/><path class="cls-1" d="M42.29,35.12v4.05H7.79V35.12h34.5m.75-.75H7v5.55H43V34.37Z"/><path class="cls-1" d="M42.29,10.6v4.06H7.79V10.6h34.5M43,9.85H7v5.56H43V9.85Z"/><rect class="cls-2" x="5.04" y="8" width="40" height="34" transform="translate(50.08 50) rotate(180)"/></svg>