<svg id="Layer_1" data-name="Layer 1" xmlns="http://www.w3.org/2000/svg" viewBox="0 0 50 50"><defs><style>.cls-1{fill:#b6a6a6;}</style></defs><title>Artboard 70 copyTemplate</title><path class="cls-1" d="M45.07,42.1h-.75v-.25h.75Zm-1,0h-.75v-.25h.75Zm-1,0h-.75v-.25h.75Zm-1,0h-.75v-.25h.75Zm-1,0h-.75v-.25h.75Zm-1,0h-.75v-.25h.75Zm-1,0h-.75v-.25h.75Zm-1,0h-.75v-.25h.75Zm-1,0h-.75v-.25h.75Zm-1,0h-.75v-.25h.75Zm-1,0h-.75v-.25h.75Zm-1,0h-.75v-.25h.75Zm-1,0h-.75v-.25h.75Zm-1,0h-.75v-.25h.75Zm-1,0h-.75v-.25h.75Zm-1,0h-.75v-.25h.75Zm-1,0h-.75v-.25h.75Zm-1,0h-.75v-.25h.75Zm-1,0h-.75v-.25h.75Zm-1,0h-.75v-.25h.75Zm-1,0h-.75v-.25h.75Zm-1,0h-.75v-.25h.75Zm-1,0h-.75v-.25h.75Zm-1,0h-.75v-.25h.75Zm-1,0h-.75v-.25h.75Zm-1,0h-.75v-.25h.75Zm-1,0h-.75v-.25h.75Zm-1,0h-.75v-.25h.75Zm-1,0h-.75v-.25h.75Zm-1,0h-.75v-.25h.75Zm-1,0h-.75v-.25h.75Zm-1,0h-.75v-.25h.75Zm-1,0h-.75v-.25h.75Zm-1,0h-.75v-.25h.75Zm-1,0h-.75v-.25h.75Zm-1,0H9.32v-.25h.75Zm-1,0H8.32v-.25h.75Zm-1,0H7.32v-.25h.75Zm-1,0H6.32v-.25h.75Zm-1,0H5.32v-.25h.75Zm-1,0H4.82v-.75h.25Zm40-.5h-.25v-.75h.25Zm-40-.5H4.82v-.75h.25Zm40-.5h-.25v-.75h.25Zm-40-.5H4.82v-.75h.25Zm40-.5h-.25v-.75h.25Zm-40-.5H4.82v-.75h.25Zm40-.5h-.25v-.75h.25Zm-40-.5H4.82v-.75h.25Zm40-.5h-.25v-.75h.25Zm-40-.5H4.82v-.75h.25Zm40-.5h-.25v-.75h.25Zm-40-.5H4.82v-.75h.25Zm40-.5h-.25v-.75h.25Zm-40-.5H4.82v-.75h.25Zm40-.5h-.25v-.75h.25Zm-40-.5H4.82v-.75h.25Zm40-.5h-.25v-.75h.25Zm-40-.5H4.82v-.75h.25Zm40-.5h-.25v-.75h.25Zm-40-.5H4.82v-.75h.25Zm40-.5h-.25v-.75h.25Zm-40-.5H4.82v-.75h.25Zm40-.5h-.25v-.75h.25Zm-40-.5H4.82v-.75h.25Zm40-.5h-.25v-.75h.25Zm-40-.5H4.82v-.75h.25Zm40-.5h-.25v-.75h.25Zm-40-.5H4.82v-.75h.25Zm40-.5h-.25v-.75h.25Zm-40-.5H4.82v-.75h.25Zm40-.5h-.25v-.75h.25Zm-40-.5H4.82v-.75h.25Zm40-.5h-.25v-.75h.25Zm-40-.5H4.82v-.75h.25Zm40-.5h-.25v-.75h.25Zm-40-.5H4.82v-.75h.25Zm40-.5h-.25v-.75h.25Zm-40-.5H4.82v-.75h.25Zm40-.5h-.25v-.75h.25Zm-40-.5H4.82v-.75h.25Zm40-.5h-.25v-.75h.25Zm-40-.5H4.82v-.75h.25Zm40-.5h-.25v-.75h.25Zm-40-.5H4.82v-.75h.25Zm40-.5h-.25v-.75h.25Zm-40-.5H4.82v-.75h.25Zm40-.5h-.25v-.75h.25Zm-40-.5H4.82v-.75h.25Zm40-.5h-.25v-.75h.25Zm-40-.5H4.82v-.75h.25Zm40-.5h-.25v-.75h.25Zm-40-.5H4.82v-.75h.25Zm40-.5h-.25v-.75h.25Zm-40-.5H4.82v-.75h.25Zm40-.5h-.25v-.75h.25Zm-40-.5H4.82v-.75h.25Zm40-.5h-.25v-.75h.25Zm-40-.5H4.82v-.75h.25Zm40-.5h-.25v-.75h.25Zm-40-.5H4.82v-.75h.25Zm40-.5h-.25v-.75h.25Zm-40-.5H4.82v-.75h.25Zm40-.5h-.25V9.85h.25Zm-40-.5H4.82V9.35h.25Zm40-.5h-.25V8.85h.25Zm-40-.5H4.82V8.35h.25Zm40-.5h-.25V7.85h.25Zm-.5-.5h-.75V7.85h.75Zm-1,0h-.75V7.85h.75Zm-1,0h-.75V7.85h.75Zm-1,0h-.75V7.85h.75Zm-1,0h-.75V7.85h.75Zm-1,0h-.75V7.85h.75Zm-1,0h-.75V7.85h.75Zm-1,0h-.75V7.85h.75Zm-1,0h-.75V7.85h.75Zm-1,0h-.75V7.85h.75Zm-1,0h-.75V7.85h.75Zm-1,0h-.75V7.85h.75Zm-1,0h-.75V7.85h.75Zm-1,0h-.75V7.85h.75Zm-1,0h-.75V7.85h.75Zm-1,0h-.75V7.85h.75Zm-1,0h-.75V7.85h.75Zm-1,0h-.75V7.85h.75Zm-1,0h-.75V7.85h.75Zm-1,0h-.75V7.85h.75Zm-1,0h-.75V7.85h.75Zm-1,0h-.75V7.85h.75Zm-1,0h-.75V7.85h.75Zm-1,0h-.75V7.85h.75Zm-1,0h-.75V7.85h.75Zm-1,0h-.75V7.85h.75Zm-1,0h-.75V7.85h.75Zm-1,0h-.75V7.85h.75Zm-1,0h-.75V7.85h.75Zm-1,0h-.75V7.85h.75Zm-1,0h-.75V7.85h.75Zm-1,0h-.75V7.85h.75Zm-1,0h-.75V7.85h.75Zm-1,0h-.75V7.85h.75Zm-1,0H9.82V7.85h.75Zm-1,0H8.82V7.85h.75Zm-1,0H7.82V7.85h.75Zm-1,0H6.82V7.85h.75Zm-1,0H5.82V7.85h.75Zm-1,0H4.82V7.85h.75Z"/><path class="cls-1" d="M11.27,24.23H7V9.69h4.23Zm-3.48-.75h2.73v-13H7.79Z"/><path class="cls-1" d="M29.9,24H25.67V9.69H29.9Zm-3.48-.75h2.73V10.44H26.42Z"/><path class="cls-1" d="M24.09,24H12.75V9.69H24.09ZM13.5,23.26h9.84V10.44H13.5Z"/><path class="cls-1" d="M42.77,24H31.43V9.69H42.77Zm-10.59-.75H42V10.44H32.18Z"/><path class="cls-1" d="M11.27,40.32H7V25.78h4.23Zm-3.48-.75h2.73v-13H7.79Z"/><path class="cls-1" d="M29.9,40.1H25.67V25.78H29.9Zm-3.48-.75h2.73V26.53H26.42Z"/><path class="cls-1" d="M24.09,40.1H12.75V25.78H24.09ZM13.5,39.35h9.84V26.53H13.5Z"/><path class="cls-1" d="M42.77,40.1H31.43V25.78H42.77Zm-10.59-.75H42V26.53H32.18Z"/></svg>