<svg id="Layer_1" data-name="Layer 1" xmlns="http://www.w3.org/2000/svg" viewBox="0 0 50 50"><defs><style>.cls-1{fill:#b6a6a6;}</style></defs><title>Artboard 70 copy 9Template</title><path class="cls-1" d="M45.13,42.12h-.75v-.25h.75Zm-1,0h-.75v-.25h.75Zm-1,0h-.75v-.25h.75Zm-1,0h-.75v-.25h.75Zm-1,0h-.75v-.25h.75Zm-1,0h-.75v-.25h.75Zm-1,0h-.75v-.25h.75Zm-1,0h-.75v-.25h.75Zm-1,0h-.75v-.25h.75Zm-1,0h-.75v-.25h.75Zm-1,0h-.75v-.25h.75Zm-1,0h-.75v-.25h.75Zm-1,0h-.75v-.25h.75Zm-1,0h-.75v-.25h.75Zm-1,0h-.75v-.25h.75Zm-1,0h-.75v-.25h.75Zm-1,0h-.75v-.25h.75Zm-1,0h-.75v-.25h.75Zm-1,0h-.75v-.25h.75Zm-1,0h-.75v-.25h.75Zm-1,0h-.75v-.25h.75Zm-1,0h-.75v-.25h.75Zm-1,0h-.75v-.25h.75Zm-1,0h-.75v-.25h.75Zm-1,0h-.75v-.25h.75Zm-1,0h-.75v-.25h.75Zm-1,0h-.75v-.25h.75Zm-1,0h-.75v-.25h.75Zm-1,0h-.75v-.25h.75Zm-1,0h-.75v-.25h.75Zm-1,0h-.75v-.25h.75Zm-1,0h-.75v-.25h.75Zm-1,0h-.75v-.25h.75Zm-1,0h-.75v-.25h.75Zm-1,0h-.75v-.25h.75Zm-1,0H9.38v-.25h.75Zm-1,0H8.38v-.25h.75Zm-1,0H7.38v-.25h.75Zm-1,0H6.38v-.25h.75Zm-1,0H5.38v-.25h.75Zm-1,0H4.88v-.75h.25Zm40-.5h-.25v-.75h.25Zm-40-.5H4.88v-.75h.25Zm40-.5h-.25v-.75h.25Zm-40-.5H4.88v-.75h.25Zm40-.5h-.25v-.75h.25Zm-40-.5H4.88v-.75h.25Zm40-.5h-.25v-.75h.25Zm-40-.5H4.88v-.75h.25Zm40-.5h-.25v-.75h.25Zm-40-.5H4.88v-.75h.25Zm40-.5h-.25v-.75h.25Zm-40-.5H4.88v-.75h.25Zm40-.5h-.25v-.75h.25Zm-40-.5H4.88v-.75h.25Zm40-.5h-.25v-.75h.25Zm-40-.5H4.88v-.75h.25Zm40-.5h-.25v-.75h.25Zm-40-.5H4.88v-.75h.25Zm40-.5h-.25v-.75h.25Zm-40-.5H4.88v-.75h.25Zm40-.5h-.25v-.75h.25Zm-40-.5H4.88v-.75h.25Zm40-.5h-.25v-.75h.25Zm-40-.5H4.88v-.75h.25Zm40-.5h-.25v-.75h.25Zm-40-.5H4.88v-.75h.25Zm40-.5h-.25v-.75h.25Zm-40-.5H4.88v-.75h.25Zm40-.5h-.25v-.75h.25Zm-40-.5H4.88v-.75h.25Zm40-.5h-.25v-.75h.25Zm-40-.5H4.88v-.75h.25Zm40-.5h-.25v-.75h.25Zm-40-.5H4.88v-.75h.25Zm40-.5h-.25v-.75h.25Zm-40-.5H4.88v-.75h.25Zm40-.5h-.25v-.75h.25Zm-40-.5H4.88v-.75h.25Zm40-.5h-.25v-.75h.25Zm-40-.5H4.88v-.75h.25Zm40-.5h-.25v-.75h.25Zm-40-.5H4.88v-.75h.25Zm40-.5h-.25v-.75h.25Zm-40-.5H4.88v-.75h.25Zm40-.5h-.25v-.75h.25Zm-40-.5H4.88v-.75h.25Zm40-.5h-.25v-.75h.25Zm-40-.5H4.88v-.75h.25Zm40-.5h-.25v-.75h.25Zm-40-.5H4.88v-.75h.25Zm40-.5h-.25v-.75h.25Zm-40-.5H4.88v-.75h.25Zm40-.5h-.25v-.75h.25Zm-40-.5H4.88v-.75h.25Zm40-.5h-.25v-.75h.25Zm-40-.5H4.88v-.75h.25Zm40-.5h-.25v-.75h.25Zm-40-.5H4.88v-.75h.25Zm40-.5h-.25v-.75h.25Zm-40-.5H4.88v-.75h.25Zm40-.5h-.25v-.75h.25Zm-40-.5H4.88v-.75h.25Zm40-.5h-.25V9.87h.25Zm-40-.5H4.88V9.37h.25Zm40-.5h-.25V8.87h.25Zm-40-.5H4.88V8.37h.25Zm40-.5h-.25V7.87h.25Zm-.5-.5h-.75V7.87h.75Zm-1,0h-.75V7.87h.75Zm-1,0h-.75V7.87h.75Zm-1,0h-.75V7.87h.75Zm-1,0h-.75V7.87h.75Zm-1,0h-.75V7.87h.75Zm-1,0h-.75V7.87h.75Zm-1,0h-.75V7.87h.75Zm-1,0h-.75V7.87h.75Zm-1,0h-.75V7.87h.75Zm-1,0h-.75V7.87h.75Zm-1,0h-.75V7.87h.75Zm-1,0h-.75V7.87h.75Zm-1,0h-.75V7.87h.75Zm-1,0h-.75V7.87h.75Zm-1,0h-.75V7.87h.75Zm-1,0h-.75V7.87h.75Zm-1,0h-.75V7.87h.75Zm-1,0h-.75V7.87h.75Zm-1,0h-.75V7.87h.75Zm-1,0h-.75V7.87h.75Zm-1,0h-.75V7.87h.75Zm-1,0h-.75V7.87h.75Zm-1,0h-.75V7.87h.75Zm-1,0h-.75V7.87h.75Zm-1,0h-.75V7.87h.75Zm-1,0h-.75V7.87h.75Zm-1,0h-.75V7.87h.75Zm-1,0h-.75V7.87h.75Zm-1,0h-.75V7.87h.75Zm-1,0h-.75V7.87h.75Zm-1,0h-.75V7.87h.75Zm-1,0h-.75V7.87h.75Zm-1,0h-.75V7.87h.75Zm-1,0H9.88V7.87h.75Zm-1,0H8.88V7.87h.75Zm-1,0H7.88V7.87h.75Zm-1,0H6.88V7.87h.75Zm-1,0H5.88V7.87h.75Zm-1,0H4.88V7.87h.75Z"/><path class="cls-1" d="M12,39.55H8.14V10.45H12ZM7.39,9.7V40.3h5.32V9.7Z"/><path class="cls-1" d="M17.88,39.55H14.07V10.45h3.81ZM13.32,9.7V40.3h5.31V9.7Z"/><path class="cls-1" d="M23.87,39.55H20.06V10.45h3.81ZM19.31,9.7V40.3h5.31V9.7Z"/><path class="cls-1" d="M29.89,39.55H26.08V10.45h3.81ZM25.33,9.7V40.3h5.31V9.7Z"/><path class="cls-1" d="M35.81,39.55H32V10.45h3.81ZM31.25,9.7V40.3h5.31V9.7Z"/><path class="cls-1" d="M41.81,39.55H38V10.45h3.81ZM37.25,9.7V40.3h5.31V9.7Z"/></svg>