<svg id="Layer_1" data-name="Layer 1" xmlns="http://www.w3.org/2000/svg" viewBox="0 0 50 50"><defs><style>.cls-1{fill:#b6a6a6;}.cls-2{fill:none;stroke:#b6a6a6;stroke-linecap:square;stroke-miterlimit:10;stroke-width:0.25px;stroke-dasharray:0.5;}</style></defs><title>Template_41</title><path class="cls-1" d="M17.27,10.09V29.25H7.75V10.09h9.52M18,9.34H7V30H18V9.34Z"/><path class="cls-1" d="M29.76,10.09V29.25H20.24V10.09h9.52m.75-.75h-11V30h11V9.34Z"/><path class="cls-1" d="M42.25,10.09V29.25H32.73V10.09h9.52M43,9.34H32V30H43V9.34Z"/><path class="cls-1" d="M42.25,31.72v4.37H7.75V31.72h34.5M43,31H7v5.87H43V31Z"/><path class="cls-1" d="M42.25,38.47v1.44H7.75V38.47h34.5m.75-.75H7v2.94H43V37.72Z"/><rect class="cls-2" x="5" y="8" width="40" height="34" transform="translate(50 50) rotate(180)"/></svg>