<svg id="Layer_1" data-name="Layer 1" xmlns="http://www.w3.org/2000/svg" viewBox="0 0 50 50"><defs><style>.cls-1{fill:#b6a6a6;}.cls-2{fill:none;stroke:#b6a6a6;stroke-linecap:square;stroke-miterlimit:10;stroke-width:0.25px;stroke-dasharray:0.5;}</style></defs><title>Template_49</title><path class="cls-1" d="M42.25,35.12v4.05H7.75V35.12h34.5m.75-.75H7v5.55H43V34.37Z"/><path class="cls-1" d="M42.25,10.6v4.06H7.75V10.6h34.5M43,9.85H7v5.56H43V9.85Z"/><path class="cls-1" d="M14.55,17.21V32.56H7.75V17.21h6.8m.75-.75H7V33.31h8.3V16.46Z"/><rect class="cls-2" x="5" y="8" width="40" height="34" transform="translate(50 50) rotate(180)"/><path class="cls-1" d="M33,17.22V32.56H16.88V17.22H33m.75-.75H16.13V33.31H33.72V16.47Z"/><path class="cls-1" d="M42.23,17.21V32.56H35.29V17.21h6.94m.75-.75H34.54V33.31H43V16.46Z"/></svg>