<svg id="Layer_1" data-name="Layer 1" xmlns="http://www.w3.org/2000/svg" viewBox="0 0 50 50"><defs><style>.cls-1{fill:#b6a6a6;}</style></defs><title>Artboard 70 copy 12Template</title><path class="cls-1" d="M45.12,42.12h-.74v-.25h.74Zm-1,0h-.74v-.25h.74Zm-1,0h-.74v-.25h.74Zm-1,0h-.74v-.25h.74Zm-1,0h-.74v-.25h.74Zm-1,0h-.74v-.25h.74Zm-1,0h-.74v-.25h.74Zm-1,0h-.74v-.25h.74Zm-1,0h-.74v-.25h.74Zm-1,0h-.74v-.25h.74Zm-1,0h-.74v-.25h.74Zm-1,0h-.74v-.25h.74Zm-1,0h-.74v-.25h.74Zm-1,0h-.74v-.25h.74Zm-1,0h-.74v-.25h.74Zm-1,0h-.74v-.25h.74Zm-1,0h-.74v-.25h.74Zm-1,0h-.74v-.25h.74Zm-1,0h-.74v-.25h.74Zm-1,0h-.74v-.25h.74Zm-1,0h-.74v-.25h.74Zm-1,0h-.74v-.25h.74Zm-1,0h-.74v-.25h.74Zm-1,0h-.74v-.25h.74Zm-1,0h-.74v-.25h.74Zm-1,0h-.74v-.25h.74Zm-1,0h-.74v-.25h.74Zm-1,0h-.74v-.25h.74Zm-1,0h-.74v-.25h.74Zm-1,0h-.74v-.25h.74Zm-1,0h-.74v-.25h.74Zm-1,0h-.74v-.25h.74Zm-1,0h-.74v-.25h.74Zm-1,0h-.74v-.25h.74Zm-1,0h-.74v-.25h.74Zm-1,0H9.38v-.25h.74Zm-1,0H8.38v-.25h.74Zm-1,0H7.38v-.25h.74Zm-1,0H6.38v-.25h.74Zm-1,0H5.38v-.25h.74Zm-1,0H4.88v-.75h.24Zm40-.5h-.24v-.75h.24Zm-40-.5H4.88v-.75h.24Zm40-.5h-.24v-.75h.24Zm-40-.5H4.88v-.75h.24Zm40-.5h-.24v-.75h.24Zm-40-.5H4.88v-.75h.24Zm40-.5h-.24v-.75h.24Zm-40-.5H4.88v-.75h.24Zm40-.5h-.24v-.75h.24Zm-40-.5H4.88v-.75h.24Zm40-.5h-.24v-.75h.24Zm-40-.5H4.88v-.75h.24Zm40-.5h-.24v-.75h.24Zm-40-.5H4.88v-.75h.24Zm40-.5h-.24v-.75h.24Zm-40-.5H4.88v-.75h.24Zm40-.5h-.24v-.75h.24Zm-40-.5H4.88v-.75h.24Zm40-.5h-.24v-.75h.24Zm-40-.5H4.88v-.75h.24Zm40-.5h-.24v-.75h.24Zm-40-.5H4.88v-.75h.24Zm40-.5h-.24v-.75h.24Zm-40-.5H4.88v-.75h.24Zm40-.5h-.24v-.75h.24Zm-40-.5H4.88v-.75h.24Zm40-.5h-.24v-.75h.24Zm-40-.5H4.88v-.75h.24Zm40-.5h-.24v-.75h.24Zm-40-.5H4.88v-.75h.24Zm40-.5h-.24v-.75h.24Zm-40-.5H4.88v-.75h.24Zm40-.5h-.24v-.75h.24Zm-40-.5H4.88v-.75h.24Zm40-.5h-.24v-.75h.24Zm-40-.5H4.88v-.75h.24Zm40-.5h-.24v-.75h.24Zm-40-.5H4.88v-.75h.24Zm40-.5h-.24v-.75h.24Zm-40-.5H4.88v-.75h.24Zm40-.5h-.24v-.75h.24Zm-40-.5H4.88v-.75h.24Zm40-.5h-.24v-.75h.24Zm-40-.5H4.88v-.75h.24Zm40-.5h-.24v-.75h.24Zm-40-.5H4.88v-.75h.24Zm40-.5h-.24v-.75h.24Zm-40-.5H4.88v-.75h.24Zm40-.5h-.24v-.75h.24Zm-40-.5H4.88v-.75h.24Zm40-.5h-.24v-.75h.24Zm-40-.5H4.88v-.75h.24Zm40-.5h-.24v-.75h.24Zm-40-.5H4.88v-.75h.24Zm40-.5h-.24v-.75h.24Zm-40-.5H4.88v-.75h.24Zm40-.5h-.24v-.75h.24Zm-40-.5H4.88v-.75h.24Zm40-.5h-.24v-.75h.24Zm-40-.5H4.88v-.75h.24Zm40-.5h-.24v-.75h.24Zm-40-.5H4.88v-.75h.24Zm40-.5h-.24V9.87h.24Zm-40-.5H4.88V9.37h.24Zm40-.5h-.24V8.87h.24Zm-40-.5H4.88V8.37h.24Zm40-.5h-.24V7.87h.24Zm-.5-.5h-.74V7.87h.74Zm-1,0h-.74V7.87h.74Zm-1,0h-.74V7.87h.74Zm-1,0h-.74V7.87h.74Zm-1,0h-.74V7.87h.74Zm-1,0h-.74V7.87h.74Zm-1,0h-.74V7.87h.74Zm-1,0h-.74V7.87h.74Zm-1,0h-.74V7.87h.74Zm-1,0h-.74V7.87h.74Zm-1,0h-.74V7.87h.74Zm-1,0h-.74V7.87h.74Zm-1,0h-.74V7.87h.74Zm-1,0h-.74V7.87h.74Zm-1,0h-.74V7.87h.74Zm-1,0h-.74V7.87h.74Zm-1,0h-.74V7.87h.74Zm-1,0h-.74V7.87h.74Zm-1,0h-.74V7.87h.74Zm-1,0h-.74V7.87h.74Zm-1,0h-.74V7.87h.74Zm-1,0h-.74V7.87h.74Zm-1,0h-.74V7.87h.74Zm-1,0h-.74V7.87h.74Zm-1,0h-.74V7.87h.74Zm-1,0h-.74V7.87h.74Zm-1,0h-.74V7.87h.74Zm-1,0h-.74V7.87h.74Zm-1,0h-.74V7.87h.74Zm-1,0h-.74V7.87h.74Zm-1,0h-.74V7.87h.74Zm-1,0h-.74V7.87h.74Zm-1,0h-.74V7.87h.74Zm-1,0h-.74V7.87h.74Zm-1,0H9.88V7.87h.74Zm-1,0H8.88V7.87h.74Zm-1,0H7.88V7.87h.74Zm-1,0H6.88V7.87h.74Zm-1,0H5.88V7.87h.74Zm-1,0H4.88V7.87h.74Z"/><path class="cls-1" d="M42.57,37v1.81H7.43V37Zm-36,2.56H43.47V36.23H6.53Z"/><path class="cls-1" d="M42.57,32.68v1.81H7.43V32.68Zm-36,2.56H43.47V31.93H6.53Z"/><path class="cls-1" d="M42.57,28.39V30.2H7.43V28.39ZM6.53,31H43.47V27.64H6.53Z"/><path class="cls-1" d="M42.57,24.09v1.82H7.43V24.09Zm-36,2.57H43.47V23.34H6.53Z"/><path class="cls-1" d="M42.57,19.8v1.81H7.43V19.8Zm-36,2.56H43.47V19.05H6.53Z"/><path class="cls-1" d="M42.57,15.51v1.81H7.43V15.51Zm-36,2.56H43.47V14.76H6.53Z"/><path class="cls-1" d="M42.57,11.21V13H7.43V11.21Zm-36,2.56H43.47V10.46H6.53Z"/></svg>