<svg id="Layer_1" data-name="Layer 1" xmlns="http://www.w3.org/2000/svg" viewBox="0 0 50 50"><defs><style>.cls-1{fill:#b6a6a6;}</style></defs><title>Artboard 70 copy 8Template</title><path class="cls-1" d="M45.13,42.12h-.75v-.25h.75Zm-1,0h-.75v-.25h.75Zm-1,0h-.75v-.25h.75Zm-1,0h-.75v-.25h.75Zm-1,0h-.75v-.25h.75Zm-1,0h-.75v-.25h.75Zm-1,0h-.75v-.25h.75Zm-1,0h-.75v-.25h.75Zm-1,0h-.75v-.25h.75Zm-1,0h-.75v-.25h.75Zm-1,0h-.75v-.25h.75Zm-1,0h-.75v-.25h.75Zm-1,0h-.75v-.25h.75Zm-1,0h-.75v-.25h.75Zm-1,0h-.75v-.25h.75Zm-1,0h-.75v-.25h.75Zm-1,0h-.75v-.25h.75Zm-1,0h-.75v-.25h.75Zm-1,0h-.75v-.25h.75Zm-1,0h-.75v-.25h.75Zm-1,0h-.75v-.25h.75Zm-1,0h-.75v-.25h.75Zm-1,0h-.75v-.25h.75Zm-1,0h-.75v-.25h.75Zm-1,0h-.75v-.25h.75Zm-1,0h-.75v-.25h.75Zm-1,0h-.75v-.25h.75Zm-1,0h-.75v-.25h.75Zm-1,0h-.75v-.25h.75Zm-1,0h-.75v-.25h.75Zm-1,0h-.75v-.25h.75Zm-1,0h-.75v-.25h.75Zm-1,0h-.75v-.25h.75Zm-1,0h-.75v-.25h.75Zm-1,0h-.75v-.25h.75Zm-1,0H9.38v-.25h.75Zm-1,0H8.38v-.25h.75Zm-1,0H7.38v-.25h.75Zm-1,0H6.38v-.25h.75Zm-1,0H5.38v-.25h.75Zm-1,0H4.88v-.75h.25Zm40-.5h-.25v-.75h.25Zm-40-.5H4.88v-.75h.25Zm40-.5h-.25v-.75h.25Zm-40-.5H4.88v-.75h.25Zm40-.5h-.25v-.75h.25Zm-40-.5H4.88v-.75h.25Zm40-.5h-.25v-.75h.25Zm-40-.5H4.88v-.75h.25Zm40-.5h-.25v-.75h.25Zm-40-.5H4.88v-.75h.25Zm40-.5h-.25v-.75h.25Zm-40-.5H4.88v-.75h.25Zm40-.5h-.25v-.75h.25Zm-40-.5H4.88v-.75h.25Zm40-.5h-.25v-.75h.25Zm-40-.5H4.88v-.75h.25Zm40-.5h-.25v-.75h.25Zm-40-.5H4.88v-.75h.25Zm40-.5h-.25v-.75h.25Zm-40-.5H4.88v-.75h.25Zm40-.5h-.25v-.75h.25Zm-40-.5H4.88v-.75h.25Zm40-.5h-.25v-.75h.25Zm-40-.5H4.88v-.75h.25Zm40-.5h-.25v-.75h.25Zm-40-.5H4.88v-.75h.25Zm40-.5h-.25v-.75h.25Zm-40-.5H4.88v-.75h.25Zm40-.5h-.25v-.75h.25Zm-40-.5H4.88v-.75h.25Zm40-.5h-.25v-.75h.25Zm-40-.5H4.88v-.75h.25Zm40-.5h-.25v-.75h.25Zm-40-.5H4.88v-.75h.25Zm40-.5h-.25v-.75h.25Zm-40-.5H4.88v-.75h.25Zm40-.5h-.25v-.75h.25Zm-40-.5H4.88v-.75h.25Zm40-.5h-.25v-.75h.25Zm-40-.5H4.88v-.75h.25Zm40-.5h-.25v-.75h.25Zm-40-.5H4.88v-.75h.25Zm40-.5h-.25v-.75h.25Zm-40-.5H4.88v-.75h.25Zm40-.5h-.25v-.75h.25Zm-40-.5H4.88v-.75h.25Zm40-.5h-.25v-.75h.25Zm-40-.5H4.88v-.75h.25Zm40-.5h-.25v-.75h.25Zm-40-.5H4.88v-.75h.25Zm40-.5h-.25v-.75h.25Zm-40-.5H4.88v-.75h.25Zm40-.5h-.25v-.75h.25Zm-40-.5H4.88v-.75h.25Zm40-.5h-.25v-.75h.25Zm-40-.5H4.88v-.75h.25Zm40-.5h-.25v-.75h.25Zm-40-.5H4.88v-.75h.25Zm40-.5h-.25v-.75h.25Zm-40-.5H4.88v-.75h.25Zm40-.5h-.25v-.75h.25Zm-40-.5H4.88v-.75h.25Zm40-.5h-.25V9.87h.25Zm-40-.5H4.88V9.37h.25Zm40-.5h-.25V8.87h.25Zm-40-.5H4.88V8.37h.25Zm40-.5h-.25V7.87h.25Zm-.5-.5h-.75V7.87h.75Zm-1,0h-.75V7.87h.75Zm-1,0h-.75V7.87h.75Zm-1,0h-.75V7.87h.75Zm-1,0h-.75V7.87h.75Zm-1,0h-.75V7.87h.75Zm-1,0h-.75V7.87h.75Zm-1,0h-.75V7.87h.75Zm-1,0h-.75V7.87h.75Zm-1,0h-.75V7.87h.75Zm-1,0h-.75V7.87h.75Zm-1,0h-.75V7.87h.75Zm-1,0h-.75V7.87h.75Zm-1,0h-.75V7.87h.75Zm-1,0h-.75V7.87h.75Zm-1,0h-.75V7.87h.75Zm-1,0h-.75V7.87h.75Zm-1,0h-.75V7.87h.75Zm-1,0h-.75V7.87h.75Zm-1,0h-.75V7.87h.75Zm-1,0h-.75V7.87h.75Zm-1,0h-.75V7.87h.75Zm-1,0h-.75V7.87h.75Zm-1,0h-.75V7.87h.75Zm-1,0h-.75V7.87h.75Zm-1,0h-.75V7.87h.75Zm-1,0h-.75V7.87h.75Zm-1,0h-.75V7.87h.75Zm-1,0h-.75V7.87h.75Zm-1,0h-.75V7.87h.75Zm-1,0h-.75V7.87h.75Zm-1,0h-.75V7.87h.75Zm-1,0h-.75V7.87h.75Zm-1,0h-.75V7.87h.75Zm-1,0H9.88V7.87h.75Zm-1,0H8.88V7.87h.75Zm-1,0H7.88V7.87h.75Zm-1,0H6.88V7.87h.75Zm-1,0H5.88V7.87h.75Zm-1,0H4.88V7.87h.75Z"/><path class="cls-1" d="M18.44,24H7.1V9.72H18.44ZM7.85,23.29h9.84V10.47H7.85Z"/><path class="cls-1" d="M30.67,24H19.33V9.72H30.67Zm-10.59-.75h9.84V10.47H20.08Z"/><path class="cls-1" d="M42.83,24H31.49V9.72H42.83Zm-10.59-.75h9.84V10.47H32.24Z"/><path class="cls-1" d="M18.44,40H7.1V25.7H18.44ZM7.85,39.27h9.84V26.45H7.85Z"/><path class="cls-1" d="M30.67,40H19.33V25.7H30.67Zm-10.59-.75h9.84V26.45H20.08Z"/><path class="cls-1" d="M42.83,40H31.49V25.7H42.83Zm-10.59-.75h9.84V26.45H32.24Z"/></svg>