<svg id="Layer_1" data-name="Layer 1" xmlns="http://www.w3.org/2000/svg" viewBox="0 0 50 50"><defs><style>.cls-1{fill:#b6a6a6;}.cls-2{fill:none;stroke:#b6a6a6;stroke-linecap:square;stroke-miterlimit:10;stroke-width:0.25px;stroke-dasharray:0.5;}</style></defs><title>Template_40</title><path class="cls-1" d="M42.25,20.75V39.91H32.73V20.75h9.52M43,20H32V40.66H43V20Z"/><path class="cls-1" d="M29.76,20.75V39.91H20.24V20.75h9.52m.75-.75h-11V40.66h11V20Z"/><path class="cls-1" d="M17.27,20.75V39.91H7.75V20.75h9.52M18,20H7V40.66H18V20Z"/><path class="cls-1" d="M42.25,13.91v4.37H7.75V13.91h34.5m.75-.75H7V19H43V13.16Z"/><path class="cls-1" d="M42.25,10.09v1.44H7.75V10.09h34.5M43,9.34H7v2.94H43V9.34Z"/><rect class="cls-2" x="5" y="8" width="40" height="34"/></svg>