<svg id="Layer_1" data-name="Layer 1" xmlns="http://www.w3.org/2000/svg" viewBox="0 0 50 50"><defs><style>.cls-1{fill:#b6a6a6;}</style></defs><title>Artboard 70 copy 2Template</title><path class="cls-1" d="M45.1,42.11h-.75v-.25h.75Zm-1,0h-.75v-.25h.75Zm-1,0h-.75v-.25h.75Zm-1,0h-.75v-.25h.75Zm-1,0h-.75v-.25h.75Zm-1,0h-.75v-.25h.75Zm-1,0h-.75v-.25h.75Zm-1,0h-.75v-.25h.75Zm-1,0h-.75v-.25h.75Zm-1,0h-.75v-.25h.75Zm-1,0h-.75v-.25h.75Zm-1,0h-.75v-.25h.75Zm-1,0h-.75v-.25h.75Zm-1,0h-.75v-.25h.75Zm-1,0h-.75v-.25h.75Zm-1,0h-.75v-.25h.75Zm-1,0h-.75v-.25h.75Zm-1,0h-.75v-.25h.75Zm-1,0h-.75v-.25h.75Zm-1,0h-.75v-.25h.75Zm-1,0h-.75v-.25h.75Zm-1,0h-.75v-.25h.75Zm-1,0h-.75v-.25h.75Zm-1,0h-.75v-.25h.75Zm-1,0h-.75v-.25h.75Zm-1,0h-.75v-.25h.75Zm-1,0h-.75v-.25h.75Zm-1,0h-.75v-.25h.75Zm-1,0h-.75v-.25h.75Zm-1,0h-.75v-.25h.75Zm-1,0h-.75v-.25h.75Zm-1,0h-.75v-.25h.75Zm-1,0h-.75v-.25h.75Zm-1,0h-.75v-.25h.75Zm-1,0h-.75v-.25h.75Zm-1,0H9.35v-.25h.75Zm-1,0H8.35v-.25H9.1Zm-1,0H7.35v-.25H8.1Zm-1,0H6.35v-.25H7.1Zm-1,0H5.35v-.25H6.1Zm-1,0H4.85v-.75H5.1Zm40-.5h-.25v-.75h.25Zm-40-.5H4.85v-.75H5.1Zm40-.5h-.25v-.75h.25Zm-40-.5H4.85v-.75H5.1Zm40-.5h-.25v-.75h.25Zm-40-.5H4.85v-.75H5.1Zm40-.5h-.25v-.75h.25Zm-40-.5H4.85v-.75H5.1Zm40-.5h-.25v-.75h.25Zm-40-.5H4.85v-.75H5.1Zm40-.5h-.25v-.75h.25Zm-40-.5H4.85v-.75H5.1Zm40-.5h-.25v-.75h.25Zm-40-.5H4.85v-.75H5.1Zm40-.5h-.25v-.75h.25Zm-40-.5H4.85v-.75H5.1Zm40-.5h-.25v-.75h.25Zm-40-.5H4.85v-.75H5.1Zm40-.5h-.25v-.75h.25Zm-40-.5H4.85v-.75H5.1Zm40-.5h-.25v-.75h.25Zm-40-.5H4.85v-.75H5.1Zm40-.5h-.25v-.75h.25Zm-40-.5H4.85v-.75H5.1Zm40-.5h-.25v-.75h.25Zm-40-.5H4.85v-.75H5.1Zm40-.5h-.25v-.75h.25Zm-40-.5H4.85v-.75H5.1Zm40-.5h-.25v-.75h.25Zm-40-.5H4.85v-.75H5.1Zm40-.5h-.25v-.75h.25Zm-40-.5H4.85v-.75H5.1Zm40-.5h-.25v-.75h.25Zm-40-.5H4.85v-.75H5.1Zm40-.5h-.25v-.75h.25Zm-40-.5H4.85v-.75H5.1Zm40-.5h-.25v-.75h.25Zm-40-.5H4.85v-.75H5.1Zm40-.5h-.25v-.75h.25Zm-40-.5H4.85v-.75H5.1Zm40-.5h-.25v-.75h.25Zm-40-.5H4.85v-.75H5.1Zm40-.5h-.25v-.75h.25Zm-40-.5H4.85v-.75H5.1Zm40-.5h-.25v-.75h.25Zm-40-.5H4.85v-.75H5.1Zm40-.5h-.25v-.75h.25Zm-40-.5H4.85v-.75H5.1Zm40-.5h-.25v-.75h.25Zm-40-.5H4.85v-.75H5.1Zm40-.5h-.25v-.75h.25Zm-40-.5H4.85v-.75H5.1Zm40-.5h-.25v-.75h.25Zm-40-.5H4.85v-.75H5.1Zm40-.5h-.25v-.75h.25Zm-40-.5H4.85v-.75H5.1Zm40-.5h-.25v-.75h.25Zm-40-.5H4.85v-.75H5.1Zm40-.5h-.25v-.75h.25Zm-40-.5H4.85v-.75H5.1Zm40-.5h-.25v-.75h.25Zm-40-.5H4.85v-.75H5.1Zm40-.5h-.25V9.86h.25Zm-40-.5H4.85V9.36H5.1Zm40-.5h-.25V8.86h.25Zm-40-.5H4.85V8.36H5.1Zm40-.5h-.25V7.86h.25Zm-.5-.5h-.75V7.86h.75Zm-1,0h-.75V7.86h.75Zm-1,0h-.75V7.86h.75Zm-1,0h-.75V7.86h.75Zm-1,0h-.75V7.86h.75Zm-1,0h-.75V7.86h.75Zm-1,0h-.75V7.86h.75Zm-1,0h-.75V7.86h.75Zm-1,0h-.75V7.86h.75Zm-1,0h-.75V7.86h.75Zm-1,0h-.75V7.86h.75Zm-1,0h-.75V7.86h.75Zm-1,0h-.75V7.86h.75Zm-1,0h-.75V7.86h.75Zm-1,0h-.75V7.86h.75Zm-1,0h-.75V7.86h.75Zm-1,0h-.75V7.86h.75Zm-1,0h-.75V7.86h.75Zm-1,0h-.75V7.86h.75Zm-1,0h-.75V7.86h.75Zm-1,0h-.75V7.86h.75Zm-1,0h-.75V7.86h.75Zm-1,0h-.75V7.86h.75Zm-1,0h-.75V7.86h.75Zm-1,0h-.75V7.86h.75Zm-1,0h-.75V7.86h.75Zm-1,0h-.75V7.86h.75Zm-1,0h-.75V7.86h.75Zm-1,0h-.75V7.86h.75Zm-1,0h-.75V7.86h.75Zm-1,0h-.75V7.86h.75Zm-1,0h-.75V7.86h.75Zm-1,0h-.75V7.86h.75Zm-1,0h-.75V7.86h.75Zm-1,0H9.85V7.86h.75Zm-1,0H8.85V7.86H9.6Zm-1,0H7.85V7.86H8.6Zm-1,0H6.85V7.86H7.6Zm-1,0H5.85V7.86H6.6Zm-1,0H4.85V7.86H5.6Z"/><path class="cls-1" d="M36.37,39.53H13.56V10.43H36.37Zm.75-29.85H12.81v30.6H37.12V9.68Z"/><path class="cls-1" d="M10.6,10.43v29.1H7.79V10.43H10.6m.75-.75H7v30.6h4.31V9.68Z"/><path class="cls-1" d="M42.09,10.45v29.1H39.28V10.45h2.81m.75-.75H38.53V40.3h4.31V9.7Z"/></svg>