<svg id="Layer_1" data-name="Layer 1" xmlns="http://www.w3.org/2000/svg" viewBox="0 0 50 50"><defs><style>.cls-1{fill:#b6a6a6;}</style></defs><title>Artboard 70 copy 11Template</title><path class="cls-1" d="M45.13,42.12h-.75v-.25h.75Zm-1,0h-.75v-.25h.75Zm-1,0h-.75v-.25h.75Zm-1,0h-.75v-.25h.75Zm-1,0h-.75v-.25h.75Zm-1,0h-.75v-.25h.75Zm-1,0h-.75v-.25h.75Zm-1,0h-.75v-.25h.75Zm-1,0h-.75v-.25h.75Zm-1,0h-.75v-.25h.75Zm-1,0h-.75v-.25h.75Zm-1,0h-.75v-.25h.75Zm-1,0h-.75v-.25h.75Zm-1,0h-.75v-.25h.75Zm-1,0h-.75v-.25h.75Zm-1,0h-.75v-.25h.75Zm-1,0h-.75v-.25h.75Zm-1,0h-.75v-.25h.75Zm-1,0h-.75v-.25h.75Zm-1,0h-.75v-.25h.75Zm-1,0h-.75v-.25h.75Zm-1,0h-.75v-.25h.75Zm-1,0h-.75v-.25h.75Zm-1,0h-.75v-.25h.75Zm-1,0h-.75v-.25h.75Zm-1,0h-.75v-.25h.75Zm-1,0h-.75v-.25h.75Zm-1,0h-.75v-.25h.75Zm-1,0h-.75v-.25h.75Zm-1,0h-.75v-.25h.75Zm-1,0h-.75v-.25h.75Zm-1,0h-.75v-.25h.75Zm-1,0h-.75v-.25h.75Zm-1,0h-.75v-.25h.75Zm-1,0h-.75v-.25h.75Zm-1,0H9.38v-.25h.75Zm-1,0H8.38v-.25h.75Zm-1,0H7.38v-.25h.75Zm-1,0H6.38v-.25h.75Zm-1,0H5.38v-.25h.75Zm-1,0H4.88v-.75h.25Zm40-.5h-.25v-.75h.25Zm-40-.5H4.88v-.75h.25Zm40-.5h-.25v-.75h.25Zm-40-.5H4.88v-.75h.25Zm40-.5h-.25v-.75h.25Zm-40-.5H4.88v-.75h.25Zm40-.5h-.25v-.75h.25Zm-40-.5H4.88v-.75h.25Zm40-.5h-.25v-.75h.25Zm-40-.5H4.88v-.75h.25Zm40-.5h-.25v-.75h.25Zm-40-.5H4.88v-.75h.25Zm40-.5h-.25v-.75h.25Zm-40-.5H4.88v-.75h.25Zm40-.5h-.25v-.75h.25Zm-40-.5H4.88v-.75h.25Zm40-.5h-.25v-.75h.25Zm-40-.5H4.88v-.75h.25Zm40-.5h-.25v-.75h.25Zm-40-.5H4.88v-.75h.25Zm40-.5h-.25v-.75h.25Zm-40-.5H4.88v-.75h.25Zm40-.5h-.25v-.75h.25Zm-40-.5H4.88v-.75h.25Zm40-.5h-.25v-.75h.25Zm-40-.5H4.88v-.75h.25Zm40-.5h-.25v-.75h.25Zm-40-.5H4.88v-.75h.25Zm40-.5h-.25v-.75h.25Zm-40-.5H4.88v-.75h.25Zm40-.5h-.25v-.75h.25Zm-40-.5H4.88v-.75h.25Zm40-.5h-.25v-.75h.25Zm-40-.5H4.88v-.75h.25Zm40-.5h-.25v-.75h.25Zm-40-.5H4.88v-.75h.25Zm40-.5h-.25v-.75h.25Zm-40-.5H4.88v-.75h.25Zm40-.5h-.25v-.75h.25Zm-40-.5H4.88v-.75h.25Zm40-.5h-.25v-.75h.25Zm-40-.5H4.88v-.75h.25Zm40-.5h-.25v-.75h.25Zm-40-.5H4.88v-.75h.25Zm40-.5h-.25v-.75h.25Zm-40-.5H4.88v-.75h.25Zm40-.5h-.25v-.75h.25Zm-40-.5H4.88v-.75h.25Zm40-.5h-.25v-.75h.25Zm-40-.5H4.88v-.75h.25Zm40-.5h-.25v-.75h.25Zm-40-.5H4.88v-.75h.25Zm40-.5h-.25v-.75h.25Zm-40-.5H4.88v-.75h.25Zm40-.5h-.25v-.75h.25Zm-40-.5H4.88v-.75h.25Zm40-.5h-.25v-.75h.25Zm-40-.5H4.88v-.75h.25Zm40-.5h-.25v-.75h.25Zm-40-.5H4.88v-.75h.25Zm40-.5h-.25v-.75h.25Zm-40-.5H4.88v-.75h.25Zm40-.5h-.25V9.87h.25Zm-40-.5H4.88V9.37h.25Zm40-.5h-.25V8.87h.25Zm-40-.5H4.88V8.37h.25Zm40-.5h-.25V7.87h.25Zm-.5-.5h-.75V7.87h.75Zm-1,0h-.75V7.87h.75Zm-1,0h-.75V7.87h.75Zm-1,0h-.75V7.87h.75Zm-1,0h-.75V7.87h.75Zm-1,0h-.75V7.87h.75Zm-1,0h-.75V7.87h.75Zm-1,0h-.75V7.87h.75Zm-1,0h-.75V7.87h.75Zm-1,0h-.75V7.87h.75Zm-1,0h-.75V7.87h.75Zm-1,0h-.75V7.87h.75Zm-1,0h-.75V7.87h.75Zm-1,0h-.75V7.87h.75Zm-1,0h-.75V7.87h.75Zm-1,0h-.75V7.87h.75Zm-1,0h-.75V7.87h.75Zm-1,0h-.75V7.87h.75Zm-1,0h-.75V7.87h.75Zm-1,0h-.75V7.87h.75Zm-1,0h-.75V7.87h.75Zm-1,0h-.75V7.87h.75Zm-1,0h-.75V7.87h.75Zm-1,0h-.75V7.87h.75Zm-1,0h-.75V7.87h.75Zm-1,0h-.75V7.87h.75Zm-1,0h-.75V7.87h.75Zm-1,0h-.75V7.87h.75Zm-1,0h-.75V7.87h.75Zm-1,0h-.75V7.87h.75Zm-1,0h-.75V7.87h.75Zm-1,0h-.75V7.87h.75Zm-1,0h-.75V7.87h.75Zm-1,0h-.75V7.87h.75Zm-1,0H9.88V7.87h.75Zm-1,0H8.88V7.87h.75Zm-1,0H7.88V7.87h.75Zm-1,0H6.88V7.87h.75Zm-1,0H5.88V7.87h.75Zm-1,0H4.88V7.87h.75Z"/><path class="cls-1" d="M42.57,36.77v2.81H7.43V36.77Zm-36,3.56H43.47V36H6.53Z"/><path class="cls-1" d="M42.57,31.5v2.81H7.43V31.5Zm-36,3.56H43.47V30.75H6.53Z"/><path class="cls-1" d="M42.57,26.23V29H7.43V26.23Zm-36,3.56H43.47V25.48H6.53Z"/><path class="cls-1" d="M42.57,21v2.81H7.43V21Zm-36,3.56H43.47V20.21H6.53Z"/><path class="cls-1" d="M42.57,15.69V18.5H7.43V15.69Zm-36,3.56H43.47V14.94H6.53Z"/><path class="cls-1" d="M42.57,10.42v2.81H7.43V10.42ZM6.53,14H43.47V9.67H6.53Z"/></svg>