<svg id="Layer_1" data-name="Layer 1" xmlns="http://www.w3.org/2000/svg" viewBox="0 0 50 50"><defs><style>.cls-1{fill:#b6a6a6;}</style></defs><title>Artboard 70 copy 7Template</title><path class="cls-1" d="M42.25,10.51V21.43H7.75V10.51h34.5M43,9.76H7V22.18H43V9.76Z"/><path class="cls-1" d="M42.25,28.59V39.51H7.75V28.59h34.5m.75-.75H7V40.26H43V27.84Z"/><path class="cls-1" d="M42.25,24.06V26H7.75v-1.9h34.5m.75-.75H7v3.4H43v-3.4Z"/><path class="cls-1" d="M45.13,42.14h-.25v-.75h.25Zm-.5,0h-.75v-.25h.75Zm-1,0h-.75v-.25h.75Zm-1,0h-.75v-.25h.75Zm-1,0h-.75v-.25h.75Zm-1,0h-.75v-.25h.75Zm-1,0h-.75v-.25h.75Zm-1,0h-.75v-.25h.75Zm-1,0h-.75v-.25h.75Zm-1,0h-.75v-.25h.75Zm-1,0h-.75v-.25h.75Zm-1,0h-.75v-.25h.75Zm-1,0h-.75v-.25h.75Zm-1,0h-.75v-.25h.75Zm-1,0h-.75v-.25h.75Zm-1,0h-.75v-.25h.75Zm-1,0h-.75v-.25h.75Zm-1,0h-.75v-.25h.75Zm-1,0h-.75v-.25h.75Zm-1,0h-.75v-.25h.75Zm-1,0h-.75v-.25h.75Zm-1,0h-.75v-.25h.75Zm-1,0h-.75v-.25h.75Zm-1,0h-.75v-.25h.75Zm-1,0h-.75v-.25h.75Zm-1,0h-.75v-.25h.75Zm-1,0h-.75v-.25h.75Zm-1,0h-.75v-.25h.75Zm-1,0h-.75v-.25h.75Zm-1,0h-.75v-.25h.75Zm-1,0h-.75v-.25h.75Zm-1,0h-.75v-.25h.75Zm-1,0h-.75v-.25h.75Zm-1,0h-.75v-.25h.75Zm-1,0h-.75v-.25h.75Zm-1,0H9.88v-.25h.75Zm-1,0H8.88v-.25h.75Zm-1,0H7.88v-.25h.75Zm-1,0H6.88v-.25h.75Zm-1,0H5.88v-.25h.75Zm-1,0H4.88v-.25h.75Zm-.5-.5H4.88v-.75h.25Zm40-.5h-.25v-.75h.25Zm-40-.5H4.88v-.75h.25Zm40-.5h-.25v-.75h.25Zm-40-.5H4.88v-.75h.25Zm40-.5h-.25v-.75h.25Zm-40-.5H4.88v-.75h.25Zm40-.5h-.25v-.75h.25Zm-40-.5H4.88v-.75h.25Zm40-.5h-.25v-.75h.25Zm-40-.5H4.88v-.75h.25Zm40-.5h-.25v-.75h.25Zm-40-.5H4.88v-.75h.25Zm40-.5h-.25v-.75h.25Zm-40-.5H4.88v-.75h.25Zm40-.5h-.25v-.75h.25Zm-40-.5H4.88v-.75h.25Zm40-.5h-.25v-.75h.25Zm-40-.5H4.88v-.75h.25Zm40-.5h-.25v-.75h.25Zm-40-.5H4.88v-.75h.25Zm40-.5h-.25v-.75h.25Zm-40-.5H4.88v-.75h.25Zm40-.5h-.25v-.75h.25Zm-40-.5H4.88v-.75h.25Zm40-.5h-.25v-.75h.25Zm-40-.5H4.88v-.75h.25Zm40-.5h-.25v-.75h.25Zm-40-.5H4.88v-.75h.25Zm40-.5h-.25v-.75h.25Zm-40-.5H4.88v-.75h.25Zm40-.5h-.25v-.75h.25Zm-40-.5H4.88v-.75h.25Zm40-.5h-.25v-.75h.25Zm-40-.5H4.88v-.75h.25Zm40-.5h-.25v-.75h.25Zm-40-.5H4.88v-.75h.25Zm40-.5h-.25v-.75h.25Zm-40-.5H4.88v-.75h.25Zm40-.5h-.25v-.75h.25Zm-40-.5H4.88v-.75h.25Zm40-.5h-.25v-.75h.25Zm-40-.5H4.88v-.75h.25Zm40-.5h-.25v-.75h.25Zm-40-.5H4.88v-.75h.25Zm40-.5h-.25v-.75h.25Zm-40-.5H4.88v-.75h.25Zm40-.5h-.25v-.75h.25Zm-40-.5H4.88v-.75h.25Zm40-.5h-.25v-.75h.25Zm-40-.5H4.88v-.75h.25Zm40-.5h-.25v-.75h.25Zm-40-.5H4.88v-.75h.25Zm40-.5h-.25v-.75h.25Zm-40-.5H4.88v-.75h.25Zm40-.5h-.25v-.75h.25Zm-40-.5H4.88v-.75h.25Zm40-.5h-.25v-.75h.25Zm-40-.5H4.88v-.75h.25Zm40-.5h-.25v-.75h.25Zm-40-.5H4.88v-.75h.25Zm40-.5h-.25v-.75h.25Zm-40-.5H4.88V9.89h.25Zm40-.5h-.25V9.39h.25Zm-40-.5H4.88V8.89h.25Zm40-.5h-.25V8.39h.25Zm-40-.5H4.88V7.89h.25Zm40-.5h-.75V7.89h.75Zm-1,0h-.75V7.89h.75Zm-1,0h-.75V7.89h.75Zm-1,0h-.75V7.89h.75Zm-1,0h-.75V7.89h.75Zm-1,0h-.75V7.89h.75Zm-1,0h-.75V7.89h.75Zm-1,0h-.75V7.89h.75Zm-1,0h-.75V7.89h.75Zm-1,0h-.75V7.89h.75Zm-1,0h-.75V7.89h.75Zm-1,0h-.75V7.89h.75Zm-1,0h-.75V7.89h.75Zm-1,0h-.75V7.89h.75Zm-1,0h-.75V7.89h.75Zm-1,0h-.75V7.89h.75Zm-1,0h-.75V7.89h.75Zm-1,0h-.75V7.89h.75Zm-1,0h-.75V7.89h.75Zm-1,0h-.75V7.89h.75Zm-1,0h-.75V7.89h.75Zm-1,0h-.75V7.89h.75Zm-1,0h-.75V7.89h.75Zm-1,0h-.75V7.89h.75Zm-1,0h-.75V7.89h.75Zm-1,0h-.75V7.89h.75Zm-1,0h-.75V7.89h.75Zm-1,0h-.75V7.89h.75Zm-1,0h-.75V7.89h.75Zm-1,0h-.75V7.89h.75Zm-1,0h-.75V7.89h.75Zm-1,0h-.75V7.89h.75Zm-1,0h-.75V7.89h.75Zm-1,0h-.75V7.89h.75Zm-1,0h-.75V7.89h.75Zm-1,0H9.38V7.89h.75Zm-1,0H8.38V7.89h.75Zm-1,0H7.38V7.89h.75Zm-1,0H6.38V7.89h.75Zm-1,0H5.38V7.89h.75Z"/></svg>