<svg id="Layer_1" data-name="Layer 1" xmlns="http://www.w3.org/2000/svg" viewBox="0 0 50 50"><defs><style>.cls-1{fill:#b6a6a6;}.cls-2{fill:none;stroke:#b6a6a6;stroke-linecap:square;stroke-miterlimit:10;stroke-width:0.25px;stroke-dasharray:0.5;}</style></defs><title>Template_43</title><path class="cls-1" d="M42.25,10.54v7.8H26.75v-7.8h15.5M43,9.79H26v9.3H43V9.79Z"/><path class="cls-1" d="M42.25,21v7.81H26.75V21h15.5m.75-.75H26v9.31H43V20.23Z"/><path class="cls-1" d="M42.25,31.43v7.81H26.75V31.43h15.5m.75-.75H26V40H43V30.68Z"/><path class="cls-1" d="M23.25,10.69V18.5H7.75V10.69h15.5M24,9.94H7v9.31H24V9.94Z"/><path class="cls-1" d="M23.25,21.14v7.8H7.75v-7.8h15.5m.75-.75H7v9.3H24v-9.3Z"/><path class="cls-1" d="M23.25,31.58v7.81H7.75V31.58h15.5m.75-.75H7v9.31H24V30.83Z"/><rect class="cls-2" x="5" y="8.04" width="40" height="34" transform="translate(50 50.08) rotate(180)"/></svg>