<svg id="Layer_1" data-name="Layer 1" xmlns="http://www.w3.org/2000/svg" viewBox="0 0 50 50"><defs><style>.cls-1{fill:#b6a6a6;}</style></defs><title>Artboard 70Template</title><path class="cls-1" d="M45.13,42.12h-.75v-.25h.75Zm-1,0h-.75v-.25h.75Zm-1,0h-.75v-.25h.75Zm-1,0h-.75v-.25h.75Zm-1,0h-.75v-.25h.75Zm-1,0h-.75v-.25h.75Zm-1,0h-.75v-.25h.75Zm-1,0h-.75v-.25h.75Zm-1,0h-.75v-.25h.75Zm-1,0h-.75v-.25h.75Zm-1,0h-.75v-.25h.75Zm-1,0h-.75v-.25h.75Zm-1,0h-.75v-.25h.75Zm-1,0h-.75v-.25h.75Zm-1,0h-.75v-.25h.75Zm-1,0h-.75v-.25h.75Zm-1,0h-.75v-.25h.75Zm-1,0h-.75v-.25h.75Zm-1,0h-.75v-.25h.75Zm-1,0h-.75v-.25h.75Zm-1,0h-.75v-.25h.75Zm-1,0h-.75v-.25h.75Zm-1,0h-.75v-.25h.75Zm-1,0h-.75v-.25h.75Zm-1,0h-.75v-.25h.75Zm-1,0h-.75v-.25h.75Zm-1,0h-.75v-.25h.75Zm-1,0h-.75v-.25h.75Zm-1,0h-.75v-.25h.75Zm-1,0h-.75v-.25h.75Zm-1,0h-.75v-.25h.75Zm-1,0h-.75v-.25h.75Zm-1,0h-.75v-.25h.75Zm-1,0h-.75v-.25h.75Zm-1,0h-.75v-.25h.75Zm-1,0H9.38v-.25h.75Zm-1,0H8.38v-.25h.75Zm-1,0H7.38v-.25h.75Zm-1,0H6.38v-.25h.75Zm-1,0H5.38v-.25h.75Zm-1,0H4.88v-.75h.25Zm40-.5h-.25v-.75h.25Zm-40-.5H4.88v-.75h.25Zm40-.5h-.25v-.75h.25Zm-40-.5H4.88v-.75h.25Zm40-.5h-.25v-.75h.25Zm-40-.5H4.88v-.75h.25Zm40-.5h-.25v-.75h.25Zm-40-.5H4.88v-.75h.25Zm40-.5h-.25v-.75h.25Zm-40-.5H4.88v-.75h.25Zm40-.5h-.25v-.75h.25Zm-40-.5H4.88v-.75h.25Zm40-.5h-.25v-.75h.25Zm-40-.5H4.88v-.75h.25Zm40-.5h-.25v-.75h.25Zm-40-.5H4.88v-.75h.25Zm40-.5h-.25v-.75h.25Zm-40-.5H4.88v-.75h.25Zm40-.5h-.25v-.75h.25Zm-40-.5H4.88v-.75h.25Zm40-.5h-.25v-.75h.25Zm-40-.5H4.88v-.75h.25Zm40-.5h-.25v-.75h.25Zm-40-.5H4.88v-.75h.25Zm40-.5h-.25v-.75h.25Zm-40-.5H4.88v-.75h.25Zm40-.5h-.25v-.75h.25Zm-40-.5H4.88v-.75h.25Zm40-.5h-.25v-.75h.25Zm-40-.5H4.88v-.75h.25Zm40-.5h-.25v-.75h.25Zm-40-.5H4.88v-.75h.25Zm40-.5h-.25v-.75h.25Zm-40-.5H4.88v-.75h.25Zm40-.5h-.25v-.75h.25Zm-40-.5H4.88v-.75h.25Zm40-.5h-.25v-.75h.25Zm-40-.5H4.88v-.75h.25Zm40-.5h-.25v-.75h.25Zm-40-.5H4.88v-.75h.25Zm40-.5h-.25v-.75h.25Zm-40-.5H4.88v-.75h.25Zm40-.5h-.25v-.75h.25Zm-40-.5H4.88v-.75h.25Zm40-.5h-.25v-.75h.25Zm-40-.5H4.88v-.75h.25Zm40-.5h-.25v-.75h.25Zm-40-.5H4.88v-.75h.25Zm40-.5h-.25v-.75h.25Zm-40-.5H4.88v-.75h.25Zm40-.5h-.25v-.75h.25Zm-40-.5H4.88v-.75h.25Zm40-.5h-.25v-.75h.25Zm-40-.5H4.88v-.75h.25Zm40-.5h-.25v-.75h.25Zm-40-.5H4.88v-.75h.25Zm40-.5h-.25v-.75h.25Zm-40-.5H4.88v-.75h.25Zm40-.5h-.25v-.75h.25Zm-40-.5H4.88v-.75h.25Zm40-.5h-.25v-.75h.25Zm-40-.5H4.88v-.75h.25Zm40-.5h-.25V9.87h.25Zm-40-.5H4.88V9.37h.25Zm40-.5h-.25V8.87h.25Zm-40-.5H4.88V8.37h.25Zm40-.5h-.25V7.87h.25Zm-.5-.5h-.75V7.87h.75Zm-1,0h-.75V7.87h.75Zm-1,0h-.75V7.87h.75Zm-1,0h-.75V7.87h.75Zm-1,0h-.75V7.87h.75Zm-1,0h-.75V7.87h.75Zm-1,0h-.75V7.87h.75Zm-1,0h-.75V7.87h.75Zm-1,0h-.75V7.87h.75Zm-1,0h-.75V7.87h.75Zm-1,0h-.75V7.87h.75Zm-1,0h-.75V7.87h.75Zm-1,0h-.75V7.87h.75Zm-1,0h-.75V7.87h.75Zm-1,0h-.75V7.87h.75Zm-1,0h-.75V7.87h.75Zm-1,0h-.75V7.87h.75Zm-1,0h-.75V7.87h.75Zm-1,0h-.75V7.87h.75Zm-1,0h-.75V7.87h.75Zm-1,0h-.75V7.87h.75Zm-1,0h-.75V7.87h.75Zm-1,0h-.75V7.87h.75Zm-1,0h-.75V7.87h.75Zm-1,0h-.75V7.87h.75Zm-1,0h-.75V7.87h.75Zm-1,0h-.75V7.87h.75Zm-1,0h-.75V7.87h.75Zm-1,0h-.75V7.87h.75Zm-1,0h-.75V7.87h.75Zm-1,0h-.75V7.87h.75Zm-1,0h-.75V7.87h.75Zm-1,0h-.75V7.87h.75Zm-1,0h-.75V7.87h.75Zm-1,0H9.88V7.87h.75Zm-1,0H8.88V7.87h.75Zm-1,0H7.88V7.87h.75Zm-1,0H6.88V7.87h.75Zm-1,0H5.88V7.87h.75Zm-1,0H4.88V7.87h.75Z"/><path class="cls-1" d="M23.4,10.45v29.1H13.59V10.45H23.4m.75-.75H12.84V40.3H24.15V9.7Z"/><path class="cls-1" d="M10.63,10.45v29.1H7.82V10.45h2.81m.75-.75H7.07V40.3h4.31V9.7Z"/><path class="cls-1" d="M42.07,10.45v29.1H32.26V10.45h9.81m.75-.75H31.51V40.3H42.82V9.7Z"/><path class="cls-1" d="M29.24,10.45v29.1H26.43V10.45h2.81M30,9.7H25.68V40.3H30V9.7Z"/></svg>