<svg id="Layer_1" data-name="Layer 1" xmlns="http://www.w3.org/2000/svg" viewBox="0 0 50 50"><defs><style>.cls-1{fill:#b6a6a6;}</style></defs><title>Artboard 70 copy 3Template</title><path class="cls-1" d="M45.11,42.14h-.75v-.25h.75Zm-1,0h-.75v-.25h.75Zm-1,0h-.75v-.25h.75Zm-1,0h-.75v-.25h.75Zm-1,0h-.75v-.25h.75Zm-1,0h-.75v-.25h.75Zm-1,0h-.75v-.25h.75Zm-1,0h-.75v-.25h.75Zm-1,0h-.75v-.25h.75Zm-1,0h-.75v-.25h.75Zm-1,0h-.75v-.25h.75Zm-1,0h-.75v-.25h.75Zm-1,0h-.75v-.25h.75Zm-1,0h-.75v-.25h.75Zm-1,0h-.75v-.25h.75Zm-1,0h-.75v-.25h.75Zm-1,0h-.75v-.25h.75Zm-1,0h-.75v-.25h.75Zm-1,0h-.75v-.25h.75Zm-1,0h-.75v-.25h.75Zm-1,0h-.75v-.25h.75Zm-1,0h-.75v-.25h.75Zm-1,0h-.75v-.25h.75Zm-1,0h-.75v-.25h.75Zm-1,0h-.75v-.25h.75Zm-1,0h-.75v-.25h.75Zm-1,0h-.75v-.25h.75Zm-1,0h-.75v-.25h.75Zm-1,0h-.75v-.25h.75Zm-1,0h-.75v-.25h.75Zm-1,0h-.75v-.25h.75Zm-1,0h-.75v-.25h.75Zm-1,0h-.75v-.25h.75Zm-1,0h-.75v-.25h.75Zm-1,0h-.75v-.25h.75Zm-1,0H9.36v-.25h.75Zm-1,0H8.36v-.25h.75Zm-1,0H7.36v-.25h.75Zm-1,0H6.36v-.25h.75Zm-1,0H5.36v-.25h.75Zm-1,0H4.86v-.75h.25Zm40-.5h-.25v-.75h.25Zm-40-.5H4.86v-.75h.25Zm40-.5h-.25v-.75h.25Zm-40-.5H4.86v-.75h.25Zm40-.5h-.25v-.75h.25Zm-40-.5H4.86v-.75h.25Zm40-.5h-.25v-.75h.25Zm-40-.5H4.86v-.75h.25Zm40-.5h-.25v-.75h.25Zm-40-.5H4.86v-.75h.25Zm40-.5h-.25v-.75h.25Zm-40-.5H4.86v-.75h.25Zm40-.5h-.25v-.75h.25Zm-40-.5H4.86v-.75h.25Zm40-.5h-.25v-.75h.25Zm-40-.5H4.86v-.75h.25Zm40-.5h-.25v-.75h.25Zm-40-.5H4.86v-.75h.25Zm40-.5h-.25v-.75h.25Zm-40-.5H4.86v-.75h.25Zm40-.5h-.25v-.75h.25Zm-40-.5H4.86v-.75h.25Zm40-.5h-.25v-.75h.25Zm-40-.5H4.86v-.75h.25Zm40-.5h-.25v-.75h.25Zm-40-.5H4.86v-.75h.25Zm40-.5h-.25v-.75h.25Zm-40-.5H4.86v-.75h.25Zm40-.5h-.25v-.75h.25Zm-40-.5H4.86v-.75h.25Zm40-.5h-.25v-.75h.25Zm-40-.5H4.86v-.75h.25Zm40-.5h-.25v-.75h.25Zm-40-.5H4.86v-.75h.25Zm40-.5h-.25v-.75h.25Zm-40-.5H4.86v-.75h.25Zm40-.5h-.25v-.75h.25Zm-40-.5H4.86v-.75h.25Zm40-.5h-.25v-.75h.25Zm-40-.5H4.86v-.75h.25Zm40-.5h-.25v-.75h.25Zm-40-.5H4.86v-.75h.25Zm40-.5h-.25v-.75h.25Zm-40-.5H4.86v-.75h.25Zm40-.5h-.25v-.75h.25Zm-40-.5H4.86v-.75h.25Zm40-.5h-.25v-.75h.25Zm-40-.5H4.86v-.75h.25Zm40-.5h-.25v-.75h.25Zm-40-.5H4.86v-.75h.25Zm40-.5h-.25v-.75h.25Zm-40-.5H4.86v-.75h.25Zm40-.5h-.25v-.75h.25Zm-40-.5H4.86v-.75h.25Zm40-.5h-.25v-.75h.25Zm-40-.5H4.86v-.75h.25Zm40-.5h-.25v-.75h.25Zm-40-.5H4.86v-.75h.25Zm40-.5h-.25v-.75h.25Zm-40-.5H4.86v-.75h.25Zm40-.5h-.25v-.75h.25Zm-40-.5H4.86v-.75h.25Zm40-.5h-.25V9.89h.25Zm-40-.5H4.86V9.39h.25Zm40-.5h-.25V8.89h.25Zm-40-.5H4.86V8.39h.25Zm40-.5h-.25V7.89h.25Zm-.5-.5h-.75V7.89h.75Zm-1,0h-.75V7.89h.75Zm-1,0h-.75V7.89h.75Zm-1,0h-.75V7.89h.75Zm-1,0h-.75V7.89h.75Zm-1,0h-.75V7.89h.75Zm-1,0h-.75V7.89h.75Zm-1,0h-.75V7.89h.75Zm-1,0h-.75V7.89h.75Zm-1,0h-.75V7.89h.75Zm-1,0h-.75V7.89h.75Zm-1,0h-.75V7.89h.75Zm-1,0h-.75V7.89h.75Zm-1,0h-.75V7.89h.75Zm-1,0h-.75V7.89h.75Zm-1,0h-.75V7.89h.75Zm-1,0h-.75V7.89h.75Zm-1,0h-.75V7.89h.75Zm-1,0h-.75V7.89h.75Zm-1,0h-.75V7.89h.75Zm-1,0h-.75V7.89h.75Zm-1,0h-.75V7.89h.75Zm-1,0h-.75V7.89h.75Zm-1,0h-.75V7.89h.75Zm-1,0h-.75V7.89h.75Zm-1,0h-.75V7.89h.75Zm-1,0h-.75V7.89h.75Zm-1,0h-.75V7.89h.75Zm-1,0h-.75V7.89h.75Zm-1,0h-.75V7.89h.75Zm-1,0h-.75V7.89h.75Zm-1,0h-.75V7.89h.75Zm-1,0h-.75V7.89h.75Zm-1,0h-.75V7.89h.75Zm-1,0H9.86V7.89h.75Zm-1,0H8.86V7.89h.75Zm-1,0H7.86V7.89h.75Zm-1,0H6.86V7.89h.75Zm-1,0H5.86V7.89h.75Zm-1,0H4.86V7.89h.75Z"/><path class="cls-1" d="M11.91,39.56H7.1V10.46h4.81ZM6.35,9.71v30.6h6.31V9.71Z"/><path class="cls-1" d="M19.79,39.56H15V10.46h4.81ZM14.23,9.71v30.6h6.31V9.71Z"/><path class="cls-1" d="M27.39,39.56H22.58V10.46h4.81ZM21.83,9.71v30.6h6.31V9.71Z"/><path class="cls-1" d="M35.13,39.56H30.32V10.46h4.81ZM29.57,9.71v30.6h6.31V9.71Z"/><path class="cls-1" d="M42.88,39.56H38.07V10.46h4.81ZM37.32,9.71v30.6h6.31V9.71Z"/></svg>