<svg xmlns="http://www.w3.org/2000/svg" xmlns:xlink="http://www.w3.org/1999/xlink" viewBox="0 0 140.74 286.71"><defs><style>.cls-1{fill:url(#New_Gradient_Swatch_1);}.cls-2{fill:url(#New_Gradient_Swatch_1-2);}</style><linearGradient id="New_Gradient_Swatch_1" x1="70.37" x2="70.37" y2="286.71" gradientTransform="matrix(-1, 0, 0, 1, 140.74, 0)" gradientUnits="userSpaceOnUse"><stop offset="0" stop-color="#7fd7fe"/><stop offset="1" stop-color="#55bdea"/></linearGradient><linearGradient id="New_Gradient_Swatch_1-2" x1="70.37" y1="286.71" x2="70.37" y2="0" gradientTransform="matrix(1, 0, 0, 1, 0, 0)" xlink:href="#New_Gradient_Swatch_1"/></defs><title>hoverDepressed (2)</title><g id="Layer_2" data-name="Layer 2"><g id="arrowBack"><g id="hoverDepressed"><path class="cls-1" d="M140.74,15.53V271.21c0,17-18.62,20.42-29.27,8.18L4.79,158.66a20.55,20.55,0,0,1-.2-26.14L111.28,7.58C121.83-5,140.74-1.66,140.74,15.53Z"/><path class="cls-2" d="M126.44,0V6c5.2,0,8.3,3.56,8.3,9.53V271.21c0,6-3.1,9.5-8.29,9.5A14.22,14.22,0,0,1,116,275.42L9.32,154.72a14.57,14.57,0,0,1-.16-18.3l106.71-125A14.11,14.11,0,0,1,126.44,6V0m0,0a20.08,20.08,0,0,0-15.16,7.58L4.59,132.52a20.55,20.55,0,0,0,.2,26.14L111.47,279.39a20.16,20.16,0,0,0,15,7.32c7.63,0,14.29-5.31,14.29-15.5V15.53C140.74,5.32,134.07,0,126.44,0Z"/></g></g></g></svg>