<svg xmlns="http://www.w3.org/2000/svg" xmlns:xlink="http://www.w3.org/1999/xlink" viewBox="0 0 129 118">
  <defs>
    <style>
      .cls-1 {
        opacity: 0.5;
      }

      .cls-2 {
        fill: url(#linear-gradient);
      }

      .cls-3 {
        fill: #55bcea;
      }
    </style>
    <linearGradient id="linear-gradient" x1="423.84" y1="-184.85" x2="309" y2="-184.85" gradientTransform="translate(-120.43 -307.27) rotate(90)" gradientUnits="userSpaceOnUse">
      <stop offset="0" stop-color="#55bdea"/>
      <stop offset="1" stop-color="#7fd7fe"/>
    </linearGradient>
  </defs>
  <title>arrowRight_Carousel_Depressed</title>
  <g id="arrow_Carousel_Down">
    <g id="arrowRight_Large_Button_Down_SVG">
      <path class="cls-2" d="M72.36,116.57a8.68,8.68,0,0,1-8.66-9.07V86H13.28c-7,0-11.71-6.45-11.71-12.47V44.82c0-6,4.71-12.46,11.71-12.46H63.7V10.8a8.68,8.68,0,0,1,8.66-9.07,9.57,9.57,0,0,1,6.76,2.92c7.25,7.25,40.68,41.62,44.56,45.68a13.27,13.27,0,0,1,3.59,8.73A13.42,13.42,0,0,1,123.68,68C119.8,72,86.37,106.41,79.12,113.65a9.53,9.53,0,0,1-6.76,2.92Z"/>
      <path class="cls-3" d="M72.36,2.73a8.59,8.59,0,0,1,6.06,2.62c7,7,40.4,41.35,44.54,45.67a12.16,12.16,0,0,1,3.31,8.06,12.51,12.51,0,0,1-3.31,8.2C118.82,71.6,85.37,106,78.42,113a8.55,8.55,0,0,1-6.06,2.62,7.66,7.66,0,0,1-7.66-8.07V85H13.28C7.08,85,2.57,79.31,2.57,73.48V44.82c0-5.83,4.51-11.46,10.71-11.46H64.7V10.8a7.66,7.66,0,0,1,7.66-8.07m0-2h0a9.57,9.57,0,0,0-6.73,2.72A10.18,10.18,0,0,0,62.7,10.8V31.36H13.28c-7.6,0-12.71,7-12.71,13.46V73.48C.57,80,5.68,87,13.28,87H62.7V107.5c0,5.74,4.15,10.07,9.66,10.07a10.56,10.56,0,0,0,7.47-3.21c7.22-7.22,40.68-41.63,44.57-45.7a14.38,14.38,0,0,0,3.87-9.53V59a14.18,14.18,0,0,0-3.87-9.39c-3.89-4.07-37.35-38.48-44.57-45.7A10.56,10.56,0,0,0,72.36.73Z"/>
    </g>
  </g>
</svg>
