<svg xmlns="http://www.w3.org/2000/svg" viewBox="0 0 490 123">
  <defs>
    <style>
      .cls-1 {
        opacity: 0.5;
      }

      .cls-2 {
        fill: #7ed6ff;
      }

      .cls-3 {
        fill: #55bcea;
      }

      .cls-4 {
        fill: none;
        stroke: #55bcea;
        stroke-miterlimit: 10;
        stroke-width: 10px;
      }
    </style>
  </defs>
  <title>arrow_Large_Hover_Right_PNG</title>
  <g id="arrow_Large_Button_Hover">
    <g id="arrowRight_Large_Button_Hover_SVG">
      <g id="fill" class="cls-1">
        <path class="cls-2" d="M430.86,118.57A8.18,8.18,0,0,1,422.7,110V88H15.78C9.08,88,4.57,81.76,4.57,76V47.32c0-5.78,4.51-12,11.21-12H422.7V13.3a8.19,8.19,0,0,1,8.16-8.57,9.06,9.06,0,0,1,6.41,2.77c7.24,7.24,40.67,41.62,44.55,45.68a12.66,12.66,0,0,1,3.45,8.39,12.93,12.93,0,0,1-3.45,8.56c-3.88,4.05-37.31,38.43-44.55,45.67a9.06,9.06,0,0,1-6.41,2.77Z"/>
        <path class="cls-3" d="M430.86,5.23a8.59,8.59,0,0,1,6.06,2.62c6.95,7,40.4,41.35,44.54,45.67a12.16,12.16,0,0,1,3.31,8.06,12.51,12.51,0,0,1-3.31,8.2c-4.14,4.32-37.59,38.71-44.54,45.67a8.55,8.55,0,0,1-6.06,2.62A7.66,7.66,0,0,1,423.2,110V87.45H15.78C9.58,87.45,5.07,81.81,5.07,76V47.32c0-5.83,4.51-11.46,10.71-11.46H423.2V13.3a7.66,7.66,0,0,1,7.66-8.07m0-1v0a8.55,8.55,0,0,0-6,2.44,9.14,9.14,0,0,0-2.63,6.63V34.86H15.78c-7,0-11.71,6.44-11.71,12.46V76c0,6,4.71,12.47,11.71,12.47H422.2V110a8.68,8.68,0,0,0,8.66,9.07,9.53,9.53,0,0,0,6.76-2.92c7.22-7.22,40.67-41.61,44.56-45.68a12.63,12.63,0,0,0,0-17.64c-3.9-4.07-37.34-38.47-44.56-45.68a9.57,9.57,0,0,0-6.76-2.92Z"/>
      </g>
      <path id="outline" class="cls-4" d="M436.92,115.45c6.95-7,40.4-41.35,44.54-45.67a12.51,12.51,0,0,0,3.31-8.2,12.16,12.16,0,0,0-3.31-8.06c-4.14-4.32-37.59-38.71-44.54-45.67-5.25-5.25-13.72-2.2-13.72,5.45V35.86H15.78c-6.2,0-10.71,5.63-10.71,11.46V76c0,5.83,4.51,11.47,10.71,11.47H423.2V110C423.2,117.65,431.67,120.7,436.92,115.45Z"/>
    </g>
  </g>
</svg>
