<svg xmlns="http://www.w3.org/2000/svg" viewBox="0 0 490 123">
  <defs>
    <style>
      .cls-1 {
        opacity: 0.5;
      }

      .cls-2 {
        fill: #7ed6ff;
      }

      .cls-3 {
        fill: #55bcea;
      }

      .cls-4 {
        fill: none;
        stroke: #55bcea;
        stroke-miterlimit: 10;
        stroke-width: 10px;
      }
    </style>
  </defs>
  <title>arrow_Large_Hover_Left_PNG</title>
  <g id="arrow_Large_Button_Hover">
    <g id="arrowLeft_Large_Button_Hover_SVG">
      <g id="fill" class="cls-1">
        <path class="cls-2" d="M59,118.57a9.06,9.06,0,0,1-6.41-2.77C45.37,108.6,11.92,74.2,8,70.13a12.7,12.7,0,0,1-3.45-8.4A12.94,12.94,0,0,1,8,53.18C11.92,49.1,45.37,14.7,52.57,7.5A9.06,9.06,0,0,1,59,4.73a8.19,8.19,0,0,1,8.16,8.57V35.36H474.06c6.7,0,11.21,6.18,11.21,12V76c0,5.78-4.51,12-11.21,12H67.14v22A8.18,8.18,0,0,1,59,118.57Z"/>
        <path class="cls-3" d="M59,5.23a7.66,7.66,0,0,1,7.66,8.07V35.86H474.06c6.2,0,10.71,5.63,10.71,11.46V76c0,5.83-4.51,11.47-10.71,11.47H66.64V110A7.66,7.66,0,0,1,59,118.07a8.55,8.55,0,0,1-6.06-2.62c-7-7-40.4-41.35-44.54-45.67a12.16,12.16,0,0,1-3.31-8.06,12.51,12.51,0,0,1,3.31-8.2C12.52,49.2,46,14.81,52.92,7.85A8.59,8.59,0,0,1,59,5.23m0-1a9.57,9.57,0,0,0-6.76,2.92C45,14.36,11.56,48.76,7.66,52.83A13.42,13.42,0,0,0,4.07,61.7a13.25,13.25,0,0,0,3.59,8.77c3.89,4.07,37.34,38.46,44.56,45.68A9.53,9.53,0,0,0,59,119.07,8.68,8.68,0,0,0,67.64,110V88.45H474.06c7,0,11.71-6.45,11.71-12.47V47.32c0-6-4.71-12.46-11.71-12.46H67.64V13.3A8.68,8.68,0,0,0,59,4.23Z"/>
      </g>
      <path id="outline" class="cls-4" d="M52.92,7.85c-7,7-40.4,41.35-44.54,45.67a12.51,12.51,0,0,0-3.31,8.2,12.16,12.16,0,0,0,3.31,8.06C12.52,74.1,46,108.49,52.92,115.45c5.25,5.25,13.72,2.2,13.72-5.45V87.45H474.06c6.2,0,10.71-5.64,10.71-11.47V47.32c0-5.83-4.51-11.46-10.71-11.46H66.64V13.3C66.64,5.65,58.17,2.6,52.92,7.85Z"/>
    </g>
  </g>
</svg>
