<svg xmlns="http://www.w3.org/2000/svg" viewBox="0 0 116.87 483.7"><defs><style>.cls-1{fill:#ffec6a;}.cls-2{fill:#eba91f;}</style></defs><title>arrow_Large_KeyConcept_Up_SVG</title><g id="Layer_2" data-name="Layer 2"><g id="arrow_Large_KeyConcept"><g id="arrow_Large_KeyConcept_Up_SVG"><path class="cls-1" d="M44.1,482.7c-6,0-12.46-4.71-12.46-11.71V64.57H10.09a8.72,8.72,0,0,1-8.42-5.31A9.2,9.2,0,0,1,3.93,49.15C11.13,42,45.53,8.49,49.61,4.59A13.27,13.27,0,0,1,58.34,1a13.42,13.42,0,0,1,8.91,3.59C71.34,8.5,105.75,42,112.94,49.15a9.17,9.17,0,0,1,2.25,10.1,8.72,8.72,0,0,1-8.41,5.32H85.23V471c0,7-6.45,11.71-12.47,11.71Z"/><path class="cls-2" d="M58.36,2a12.49,12.49,0,0,1,8.2,3.31c4.32,4.14,38.71,37.59,45.67,44.54,5.25,5.25,2.2,13.72-5.45,13.72H84.23V471c0,6.2-5.64,10.71-11.47,10.71H44.1c-5.82,0-11.46-4.51-11.46-10.71V63.57H10.09c-7.66,0-10.7-8.47-5.45-13.72,7-7,41.34-40.4,45.66-44.54A12.18,12.18,0,0,1,58.36,2m0-2h0a14.21,14.21,0,0,0-9.4,3.87C44.85,7.76,10.45,41.21,3.22,48.44A10.17,10.17,0,0,0,.75,59.64a9.81,9.81,0,0,0,9.34,5.93H30.64V471c0,7.6,7,12.71,13.46,12.71H72.76c6.51,0,13.47-5.11,13.47-12.71V65.57h20.55a9.82,9.82,0,0,0,9.34-5.93,10.17,10.17,0,0,0-2.48-11.2C106.42,41.22,72,7.76,67.94,3.87A14.38,14.38,0,0,0,58.41,0Z"/></g></g></g></svg>