<svg xmlns="http://www.w3.org/2000/svg" viewBox="0 0 116.87 483.7"><defs><style>.cls-1{fill:#ffec6a;}.cls-2{fill:#eba91f;}</style></defs><title>arrow_Large_KeyConcept_Down_SVG</title><g id="Layer_2" data-name="Layer 2"><g id="arrow_Large_KeyConcept"><g id="arrow_Large_KeyConcept_Down_SVG"><path class="cls-1" d="M58.48,482.7a13.44,13.44,0,0,1-8.87-3.59c-4.08-3.91-38.49-37.37-45.68-44.56a9.2,9.2,0,0,1-2.26-10.11,8.72,8.72,0,0,1,8.42-5.31H31.64V12.71C31.64,5.71,38.08,1,44.1,1H72.76c6,0,12.47,4.71,12.47,11.71V419.13h21.55a8.71,8.71,0,0,1,8.41,5.31,9.18,9.18,0,0,1-2.25,10.11c-7.18,7.18-41.6,40.65-45.69,44.56a13.22,13.22,0,0,1-8.72,3.59h-.05Z"/><path class="cls-2" d="M72.76,2c5.83,0,11.47,4.51,11.47,10.71V420.13h22.55c7.65,0,10.7,8.47,5.45,13.72-7,6.95-41.35,40.4-45.67,44.54a12.14,12.14,0,0,1-8.06,3.31,12.53,12.53,0,0,1-8.2-3.31C46,474.25,11.59,440.8,4.64,433.85c-5.25-5.25-2.21-13.72,5.45-13.72H32.64V12.71C32.64,6.51,38.28,2,44.1,2H72.76m0-2H44.1C37.6,0,30.64,5.11,30.64,12.71V418.13H10.09a9.81,9.81,0,0,0-9.34,5.93,10.17,10.17,0,0,0,2.47,11.2c7.23,7.22,41.63,40.68,45.7,44.57a14.46,14.46,0,0,0,9.54,3.87h.09a14.16,14.16,0,0,0,9.39-3.87c4.08-3.89,38.48-37.35,45.7-44.57a10.17,10.17,0,0,0,2.48-11.2,9.82,9.82,0,0,0-9.34-5.93H86.23V12.71c0-7.6-7-12.71-13.47-12.71Z"/></g></g></g></svg>