<svg xmlns="http://www.w3.org/2000/svg" viewBox="0 0 483.7 116.84"><defs><style>.cls-1{fill:#ffec6a;}.cls-2{fill:#eba91f;}</style></defs><title>arrow_Large_KeyConcept_Right_SVG</title><g id="Layer_2" data-name="Layer 2"><g id="arrow_Large_KeyConcept"><g id="arrow_Large_KeyConcept_Right_SVG"><path class="cls-1" d="M427.79,115.84a8.68,8.68,0,0,1-8.66-9.07V85.21H12.71C5.71,85.21,1,78.77,1,72.75V44.09c0-6,4.71-12.46,11.71-12.46H419.13V10.07A8.68,8.68,0,0,1,427.79,1a9.57,9.57,0,0,1,6.76,2.92c7.27,7.26,40.68,41.63,44.56,45.68a13.27,13.27,0,0,1,3.59,8.73,13.42,13.42,0,0,1-3.59,8.91c-3.88,4.06-37.31,38.44-44.56,45.68a9.57,9.57,0,0,1-6.76,2.92Z"/><path class="cls-2" d="M427.79,2a8.59,8.59,0,0,1,6.06,2.62c6.95,7,40.4,41.35,44.54,45.67a12.16,12.16,0,0,1,3.31,8.06,12.51,12.51,0,0,1-3.31,8.2c-4.14,4.32-37.59,38.71-44.54,45.67a8.55,8.55,0,0,1-6.06,2.62,7.66,7.66,0,0,1-7.66-8.07V84.21H12.71C6.51,84.21,2,78.58,2,72.75V44.09c0-5.83,4.51-11.46,10.71-11.46H420.13V10.07A7.66,7.66,0,0,1,427.79,2m0-2h0a9.55,9.55,0,0,0-6.73,2.72,10.18,10.18,0,0,0-2.93,7.35V30.63H12.71C5.11,30.63,0,37.59,0,44.09V72.75c0,6.5,5.11,13.46,12.71,13.46H418.13v20.56c0,5.74,4.15,10.07,9.66,10.07a10.56,10.56,0,0,0,7.47-3.21c7.22-7.22,40.68-41.63,44.57-45.7a14.43,14.43,0,0,0,3.87-9.53v-.1a14.18,14.18,0,0,0-3.87-9.39c-3.89-4.07-37.35-38.48-44.57-45.7A10.56,10.56,0,0,0,427.79,0Z"/></g></g></g></svg>