<svg xmlns="http://www.w3.org/2000/svg" viewBox="0 0 123 490">
  <defs>
    <style>
      .cls-1 {
        opacity: 0.5;
      }

      .cls-2 {
        fill: #7ed6ff;
      }

      .cls-3 {
        fill: #55bcea;
      }

      .cls-4 {
        fill: none;
        stroke: #55bcea;
        stroke-miterlimit: 10;
        stroke-width: 10px;
      }
    </style>
  </defs>
  <title>arrow_Large_Hover_Up_PNG</title>
  <g id="arrow_Large_Button_Hover">
    <g id="arrowUp_Large_Button_Hover_SVG">
      <g id="fill" class="cls-1">
        <path class="cls-2" d="M47.09,485.5c-5.78,0-12-4.5-12-11.21V67.37H13.07a8.23,8.23,0,0,1-7.95-5A8.7,8.7,0,0,1,7.27,52.8C14.5,45.57,48.88,12.14,53,8.25A12.7,12.7,0,0,1,61.34,4.8a12.89,12.89,0,0,1,8.55,3.45C74,12.16,108.38,45.61,115.57,52.8a8.7,8.7,0,0,1,2.15,9.56,8.23,8.23,0,0,1-8,5H87.71V474.29c0,6.71-6.18,11.21-12,11.21Z"/>
        <path class="cls-3" d="M61.35,5.3a12.51,12.51,0,0,1,8.2,3.31c4.32,4.14,38.71,37.59,45.67,44.54,5.25,5.25,2.2,13.72-5.45,13.72H87.21V474.29c0,6.2-5.63,10.71-11.46,10.71H47.09c-5.83,0-11.46-4.51-11.46-10.71V66.87H13.07c-7.65,0-10.7-8.47-5.45-13.72,7-6.95,41.35-40.4,45.67-44.54A12.16,12.16,0,0,1,61.35,5.3m0-1h0A13.27,13.27,0,0,0,52.6,7.89C48.53,11.78,14.14,45.23,6.92,52.45A9.19,9.19,0,0,0,4.66,62.56a8.72,8.72,0,0,0,8.41,5.31H34.63V474.29c0,7,6.44,11.71,12.46,11.71H75.75c6,0,12.46-4.71,12.46-11.71V67.87h21.56a8.71,8.71,0,0,0,8.41-5.31,9.19,9.19,0,0,0-2.26-10.11C108.7,45.22,74.31,11.78,70.24,7.89A13.4,13.4,0,0,0,61.37,4.3Z"/>
      </g>
      <path id="outline" class="cls-4" d="M115.22,53.15c-7-6.95-41.35-40.4-45.67-44.54a12.51,12.51,0,0,0-8.2-3.31,12.16,12.16,0,0,0-8.06,3.31C49,12.75,14.58,46.2,7.62,53.15c-5.25,5.25-2.2,13.72,5.45,13.72H35.63V474.29c0,6.2,5.63,10.71,11.46,10.71H75.75c5.83,0,11.46-4.51,11.46-10.71V66.87h22.56C117.42,66.87,120.47,58.4,115.22,53.15Z"/>
    </g>
  </g>
</svg>
