<svg xmlns="http://www.w3.org/2000/svg" xmlns:xlink="http://www.w3.org/1999/xlink" viewBox="0 0 129 118">
  <defs>
    <style>
      .cls-1 {
        opacity: 0.5;
      }

      .cls-2 {
        fill: url(#linear-gradient);
      }

      .cls-3 {
        fill: #55bcea;
      }
    </style>
    <linearGradient id="linear-gradient" x1="-88" y1="-391.85" x2="26.84" y2="-391.85" gradientTransform="translate(456.27 28.57) rotate(-90)" gradientUnits="userSpaceOnUse">
      <stop offset="0" stop-color="#55bdea"/>
      <stop offset="1" stop-color="#7fd7fe"/>
    </linearGradient>
  </defs>
  <title>arrowLeft_Carousel_Depressed</title>
  <g id="arrow_Carousel_Down">
    <g id="arrowLeft_Large_Button_Down_SVG">
      <path class="cls-2" d="M56.48,116.57a9.53,9.53,0,0,1-6.76-2.92C42.49,106.43,9.05,72,5.16,68a13.22,13.22,0,0,1-3.59-8.72,13.44,13.44,0,0,1,3.59-8.92C9.05,46.26,42.49,11.87,49.72,4.65a9.57,9.57,0,0,1,6.76-2.92,8.68,8.68,0,0,1,8.66,9.07V32.36h50.42c7,0,11.71,6.44,11.71,12.46V73.48c0,6-4.71,12.47-11.71,12.47H65.14V107.5A8.68,8.68,0,0,1,56.48,116.57Z"/>
      <path class="cls-3" d="M56.48,2.73a7.66,7.66,0,0,1,7.66,8.07V33.36h51.42c6.2,0,10.71,5.63,10.71,11.46V73.48c0,5.83-4.51,11.47-10.71,11.47H64.14V107.5a7.66,7.66,0,0,1-7.66,8.07A8.55,8.55,0,0,1,50.42,113c-7-7-40.4-41.35-44.54-45.67a12.16,12.16,0,0,1-3.31-8.06A12.51,12.51,0,0,1,5.88,51C10,46.7,43.47,12.31,50.42,5.35a8.59,8.59,0,0,1,6.06-2.62m0-2A10.56,10.56,0,0,0,49,3.94C41.78,11.17,8.33,45.57,4.44,49.64A14.45,14.45,0,0,0,.57,59.17v.1a14.16,14.16,0,0,0,3.87,9.39c3.89,4.07,37.35,38.48,44.57,45.7a10.56,10.56,0,0,0,7.47,3.21c5.51,0,9.66-4.33,9.66-10.07V87h49.42c7.6,0,12.71-7,12.71-13.47V44.82c0-6.5-5.11-13.46-12.71-13.46H66.14V10.8C66.14,5.06,62,.73,56.48.73Z"/>
    </g>
  </g>
</svg>
