<svg xmlns="http://www.w3.org/2000/svg" xmlns:xlink="http://www.w3.org/1999/xlink" viewBox="0 0 288 288"><defs><style>.cls-1{fill:url(#New_Gradient_Swatch_1);}.cls-2{fill:url(#New_Gradient_Swatch_1-2);}.cls-3{fill:url(#New_Gradient_Swatch_1-3);}.cls-4{fill:url(#New_Gradient_Swatch_1-4);}.cls-5{fill:url(#New_Gradient_Swatch_1-5);}.cls-6{fill:url(#New_Gradient_Swatch_1-6);}</style><linearGradient id="New_Gradient_Swatch_1" x1="144" y1="196.25" x2="144" y2="91.75" gradientUnits="userSpaceOnUse"><stop offset="0" stop-color="#7fd7fe"/><stop offset="1" stop-color="#55bdea"/></linearGradient><linearGradient id="New_Gradient_Swatch_1-2" x1="144" y1="91.75" x2="144" y2="196.25" xlink:href="#New_Gradient_Swatch_1"/><linearGradient id="New_Gradient_Swatch_1-3" x1="144" y1="0" x2="144" y2="288" xlink:href="#New_Gradient_Swatch_1"/><linearGradient id="New_Gradient_Swatch_1-4" x1="144" y1="288" x2="144" y2="0" xlink:href="#New_Gradient_Swatch_1"/><linearGradient id="New_Gradient_Swatch_1-5" x1="144" y1="46.67" x2="144" y2="241.33" xlink:href="#New_Gradient_Swatch_1"/><linearGradient id="New_Gradient_Swatch_1-6" x1="144" y1="241.33" x2="144" y2="46.67" xlink:href="#New_Gradient_Swatch_1"/></defs><title>hoverDepressed copy 2</title><g id="Layer_2" data-name="Layer 2"><g id="Toggle"><g id="hoverDepressed_copy_2" data-name="hoverDepressed copy 2"><rect class="cls-1" x="91.75" y="91.75" width="104.5" height="104.5" rx="52.25" ry="52.25"/><path class="cls-2" d="M144,93.75A50.25,50.25,0,1,1,93.75,144,50.3,50.3,0,0,1,144,93.75m0-2h0A52.4,52.4,0,0,0,91.75,144h0A52.4,52.4,0,0,0,144,196.25h0A52.4,52.4,0,0,0,196.25,144h0A52.4,52.4,0,0,0,144,91.75Z"/><path class="cls-3" d="M148.33,0h-8.66C62.85,0,0,62.85,0,139.67v8.66C0,225.15,62.85,288,139.67,288h8.66C225.15,288,288,225.15,288,148.33v-8.66C288,62.85,225.15,0,148.33,0ZM269,143.17c0,65.81-58.85,124.66-124.67,124.66h0C78.52,267.83,19.67,209,19.67,143.17h0C19.67,77.35,78.52,18.5,144.33,18.5h0C210.15,18.5,269,77.35,269,143.17Z"/><path class="cls-4" d="M148.33,2A138.07,138.07,0,0,1,286,139.67v8.66A138.07,138.07,0,0,1,148.33,286h-8.66A138.07,138.07,0,0,1,2,148.33v-8.66A138.07,138.07,0,0,1,139.67,2h8.66m-4,267.83h0c67.48,0,126.67-59.19,126.67-126.66S211.81,16.5,144.33,16.5,17.67,75.69,17.67,143.17,76.86,269.83,144.33,269.83M148.33,0h-8.66C62.85,0,0,62.85,0,139.67v8.66C0,225.15,62.85,288,139.67,288h8.66C225.15,288,288,225.15,288,148.33v-8.66C288,62.85,225.15,0,148.33,0Zm-4,267.83C78.52,267.83,19.67,209,19.67,143.17h0C19.67,77.35,78.52,18.5,144.33,18.5h0C210.15,18.5,269,77.35,269,143.17h0c0,65.81-58.85,124.66-124.67,124.66Z"/><path class="cls-5" d="M147.05,46.67H141c-54.06,0-94.28,40.22-94.28,94.28v6.1c0,54.06,40.22,94.28,94.28,94.28h6.1c54.06,0,94.28-40.22,94.28-94.28V141C241.33,86.89,201.11,46.67,147.05,46.67Zm75.39,97c0,41.4-36.56,78-78,78H144c-41.4,0-78-36.56-78-78v-.25c0-41.53,36.68-78.21,78.21-78.21h0c41.54,0,78.21,36.68,78.21,78.21Z"/><path class="cls-6" d="M147.05,48.67c25.61,0,49,9.33,66,26.28s26.28,40.39,26.28,66v6.1c0,25.61-9.33,49-26.28,66s-40.39,26.28-66,26.28H141c-25.61,0-49-9.33-66-26.28s-26.28-40.39-26.28-66V141c0-25.61,9.33-49,26.28-66s40.39-26.28,66-26.28h6.1m-3.06,175h.49c42.6,0,80-37.36,80-80v-.25c0-42.73-37.48-80.21-80.21-80.21S64,100.68,64,143.41v.25c0,42.6,37.37,80,80,80m3.06-176.95H141c-54.06,0-94.28,40.22-94.28,94.28v6.1c0,54.06,40.22,94.28,94.28,94.28h6.1c54.06,0,94.28-40.22,94.28-94.28V141c0-54.06-40.22-94.28-94.28-94.28Zm-3.06,175c-41.4,0-78-36.56-78-78v-.25c0-41.53,36.68-78.21,78.21-78.21h0c41.54,0,78.21,36.68,78.21,78.21v.25c0,41.4-36.56,78-78,78Z"/></g></g></g></svg>