<svg xmlns="http://www.w3.org/2000/svg" viewBox="0 0 286.76 286.76">
  <defs>
    <style>
      .cls-1 {
        fill: #fff;
      }

      .cls-2 {
        fill: #393a39;
      }
    </style>
  </defs>
  <title>buttonDrag_White_Normal_1</title>
  <g id="Layer_2" data-name="Layer 2">
    <g id="DragWhite">
      <g id="normal">
        <g>
          <path class="cls-1" d="M143.38,170.49a12.92,12.92,0,0,1-9.19-3.79l-14.13-14.13a13,13,0,0,1,0-18.38l14.13-14.13a13,13,0,0,1,18.38,0l14.13,14.13a13,13,0,0,1,0,18.38L152.57,166.7A12.92,12.92,0,0,1,143.38,170.49Z"/>
          <path class="cls-2" d="M143.38,117.27a11.91,11.91,0,0,1,8.49,3.5L166,134.9a12,12,0,0,1,0,17L151.87,166a12,12,0,0,1-17,0l-14.13-14.12a12,12,0,0,1,0-17l14.13-14.13a11.87,11.87,0,0,1,8.48-3.5m0-2a14,14,0,0,0-9.9,4.08l-14.13,14.13a14.05,14.05,0,0,0,0,19.8l14.13,14.13a14.05,14.05,0,0,0,19.8,0l14.13-14.13a14.05,14.05,0,0,0,0-19.8l-14.13-14.13a14,14,0,0,0-9.9-4.08Z"/>
        </g>
        <g>
          <path class="cls-1" d="M143.38,285.76a42.27,42.27,0,0,1-30.13-12.43L13.43,173.52a42.66,42.66,0,0,1,0-60.27l99.82-99.82a42.74,42.74,0,0,1,60.27,0l99.81,99.82a42.66,42.66,0,0,1,0,60.27l-99.81,99.81A42.31,42.31,0,0,1,143.38,285.76ZM144,19.42a28.55,28.55,0,0,0-20.33,8.39l-95,95a28.78,28.78,0,0,0,0,40.66l95,95a28.84,28.84,0,0,0,40.67,0l94.95-95a28.77,28.77,0,0,0,0-40.66l-94.95-95A28.55,28.55,0,0,0,144,19.42Z"/>
          <path class="cls-2" d="M143.38,2a41.32,41.32,0,0,1,29.43,12.14L272.62,114a41.66,41.66,0,0,1,0,58.86l-99.81,99.81a41.74,41.74,0,0,1-58.86,0L14.14,172.81a41.74,41.74,0,0,1,0-58.86L114,14.14A41.32,41.32,0,0,1,143.38,2M144,267.78a29.56,29.56,0,0,0,21.05-8.68l94.95-95a29.79,29.79,0,0,0,0-42.08l-94.95-95a29.85,29.85,0,0,0-42.09,0L28,122.06a29.79,29.79,0,0,0,0,42.08l94.95,95a29.54,29.54,0,0,0,21,8.68M143.38,0a43.48,43.48,0,0,0-30.84,12.72L12.72,112.54a43.75,43.75,0,0,0,0,61.68L112.54,274a43.75,43.75,0,0,0,61.68,0L274,174.22a43.75,43.75,0,0,0,0-61.68L174.22,12.72A43.48,43.48,0,0,0,143.38,0ZM144,265.78a27.66,27.66,0,0,1-19.62-8.1l-95-95a27.85,27.85,0,0,1,0-39.26l95-94.95a27.82,27.82,0,0,1,39.25,0l95,95a27.85,27.85,0,0,1,0,39.26l-95,95a27.67,27.67,0,0,1-19.63,8.1Z"/>
        </g>
        <g>
          <path class="cls-1" d="M143.38,227.35a24.68,24.68,0,0,1-17.57-7.25L66.66,161a24.91,24.91,0,0,1,0-35.14l59.15-59.15a24.91,24.91,0,0,1,35.14,0l59.15,59.15a24.91,24.91,0,0,1,0,35.14L161,220.1A24.68,24.68,0,0,1,143.38,227.35Zm.39-151.84a11.36,11.36,0,0,0-8.09,3.35L79.29,135.24a11.3,11.3,0,0,0,0,15.95l56.51,56.5a11.27,11.27,0,0,0,15.94,0l56.39-56.39a11.44,11.44,0,0,0,0-16.17L151.86,78.86A11.38,11.38,0,0,0,143.77,75.51Z"/>
          <path class="cls-2" d="M143.38,60.41a23.64,23.64,0,0,1,16.86,7l59.15,59.15a23.86,23.86,0,0,1,0,33.72l-59.15,59.15a23.9,23.9,0,0,1-33.72,0L67.37,160.24a23.86,23.86,0,0,1,0-33.72l59.15-59.15a23.64,23.64,0,0,1,16.86-7M143.77,212a12.23,12.23,0,0,0,8.68-3.59L208.83,152a12.45,12.45,0,0,0,0-17.59L152.56,78.15a12.45,12.45,0,0,0-17.59,0L78.59,134.54a12.25,12.25,0,0,0,0,17.35l56.5,56.51a12.23,12.23,0,0,0,8.68,3.59m-.39-153.58A25.82,25.82,0,0,0,125.1,66L66,125.1a25.94,25.94,0,0,0,0,36.56l59.15,59.15a25.93,25.93,0,0,0,36.56,0l59.15-59.15a25.94,25.94,0,0,0,0-36.56L161.66,66a25.8,25.8,0,0,0-18.28-7.54ZM143.77,210a10.24,10.24,0,0,1-7.27-3L80,150.48A10.28,10.28,0,0,1,80,136l56.39-56.39a10.45,10.45,0,0,1,14.76,0l56.27,56.27a10.43,10.43,0,0,1,0,14.76L151,207a10.2,10.2,0,0,1-7.26,3Z"/>
        </g>
      </g>
    </g>
  </g>
</svg>
