<svg xmlns="http://www.w3.org/2000/svg" xmlns:xlink="http://www.w3.org/1999/xlink" viewBox="0 0 287.65 287.65"><defs><style>.cls-1{fill:url(#New_Gradient_Swatch_1);}.cls-2{fill:url(#New_Gradient_Swatch_1-2);}.cls-3{fill:url(#New_Gradient_Swatch_1-3);}.cls-4{fill:url(#New_Gradient_Swatch_1-4);}.cls-5{fill:url(#New_Gradient_Swatch_1-5);}.cls-6{fill:url(#New_Gradient_Swatch_1-6);}</style><linearGradient id="New_Gradient_Swatch_1" x1="178.29" y1="178.29" x2="109.36" y2="109.36" gradientTransform="translate(287.65 0) rotate(90)" gradientUnits="userSpaceOnUse"><stop offset="0" stop-color="#7fd7fe"/><stop offset="1" stop-color="#55bdea"/></linearGradient><linearGradient id="New_Gradient_Swatch_1-2" x1="143.82" y1="95.08" x2="143.82" y2="192.57" gradientTransform="matrix(1, 0, 0, 1, 0, 0)" xlink:href="#New_Gradient_Swatch_1"/><linearGradient id="New_Gradient_Swatch_1-3" x1="42.13" y1="42.13" x2="245.52" y2="245.52" gradientTransform="translate(143.82 -59.57) rotate(45)" xlink:href="#New_Gradient_Swatch_1"/><linearGradient id="New_Gradient_Swatch_1-4" x1="143.82" y1="287.65" x2="143.82" y2="0" gradientTransform="matrix(1, 0, 0, 1, 0, 0)" xlink:href="#New_Gradient_Swatch_1"/><linearGradient id="New_Gradient_Swatch_1-5" x1="72.97" y1="72.97" x2="214.68" y2="214.68" gradientTransform="translate(143.82 -59.57) rotate(45)" xlink:href="#New_Gradient_Swatch_1"/><linearGradient id="New_Gradient_Swatch_1-6" x1="143.82" y1="244.03" x2="143.82" y2="43.61" gradientTransform="matrix(1, 0, 0, 1, 0, 0)" xlink:href="#New_Gradient_Swatch_1"/></defs><title>hoverDepressed copy</title><g id="Layer_2" data-name="Layer 2"><g id="Drag"><g id="hoverDepressed_copy" data-name="hoverDepressed copy"><rect class="cls-1" x="102.26" y="102.26" width="83.13" height="83.13" rx="24.17" ry="24.17" transform="translate(-59.57 143.82) rotate(-45)"/><path class="cls-2" d="M143.82,97.08a22,22,0,0,1,15.68,6.47l24.6,24.6a22.18,22.18,0,0,1,0,31.35l-24.6,24.6a22.22,22.22,0,0,1-31.35,0l-24.6-24.6a22.18,22.18,0,0,1,0-31.35l24.6-24.6a22,22,0,0,1,15.67-6.47m0-2a24.08,24.08,0,0,0-17.08,7l-24.61,24.61a24.23,24.23,0,0,0,0,34.17l24.61,24.61a24.23,24.23,0,0,0,34.17,0l24.61-24.61a24.23,24.23,0,0,0,0-34.17l-24.61-24.61a24.09,24.09,0,0,0-17.09-7Z"/><path class="cls-3" d="M274.89,112.89,174.76,12.76a43.89,43.89,0,0,0-61.87,0L12.76,112.89a43.89,43.89,0,0,0,0,61.87L112.89,274.89a43.89,43.89,0,0,0,61.87,0L274.89,174.76A43.89,43.89,0,0,0,274.89,112.89ZM164.17,258.48a27.93,27.93,0,0,1-39.38,0L29.54,163.23a27.91,27.91,0,0,1,0-39.37l95.25-95.25a27.93,27.93,0,0,1,39.38,0l95.25,95.25a27.91,27.91,0,0,1,0,39.37Z"/><path class="cls-4" d="M143.82,2a41.43,41.43,0,0,1,29.53,12.18L273.47,114.3a41.88,41.88,0,0,1,0,59.05L173.35,273.47a41.88,41.88,0,0,1-59,0L14.18,173.35a41.88,41.88,0,0,1,0-59L114.3,14.18A41.42,41.42,0,0,1,143.82,2m.66,266.6a29.6,29.6,0,0,0,21.1-8.71l95.25-95.25a29.86,29.86,0,0,0,0-42.2L165.58,27.19a29.91,29.91,0,0,0-42.2,0L28.13,122.44a29.86,29.86,0,0,0,0,42.2l95.25,95.25a29.6,29.6,0,0,0,21.1,8.71M143.82,0a43.58,43.58,0,0,0-30.93,12.76L12.76,112.89a43.89,43.89,0,0,0,0,61.87L112.89,274.89a43.88,43.88,0,0,0,61.87,0L274.89,174.76a43.89,43.89,0,0,0,0-61.87L174.76,12.76A43.61,43.61,0,0,0,143.82,0Zm.66,266.6a27.78,27.78,0,0,1-19.69-8.12L29.54,163.23a27.91,27.91,0,0,1,0-39.37l95.25-95.25a27.91,27.91,0,0,1,39.38,0l95.25,95.25a27.91,27.91,0,0,1,0,39.37l-95.25,95.25a27.78,27.78,0,0,1-19.69,8.12Z"/><path class="cls-5" d="M235.05,123.05,164.6,52.6c-12-12-29.57-12-41.55,0L52.6,123.05c-12,12-12,29.57,0,41.55l70.45,70.45c12,12,29.57,12,41.55,0l70.45-70.45C247,152.62,247,135,235.05,123.05Zm-82.11,96.53a12.24,12.24,0,0,1-17.31,0l-67.3-67.3a12.24,12.24,0,0,1,0-17.31l67.16-67.16a12.43,12.43,0,0,1,17.59,0l67,67a12.45,12.45,0,0,1,0,17.59Z"/><path class="cls-6" d="M143.82,45.61A27.44,27.44,0,0,1,163.18,54l70.46,70.46c11.22,11.21,11.22,27.49,0,38.71l-70.46,70.46a26.52,26.52,0,0,1-38.71,0L54,163.18c-11.22-11.22-11.22-27.5,0-38.71L124.47,54a27.44,27.44,0,0,1,19.35-8.4m.47,179.56A14.13,14.13,0,0,0,154.35,221l67.17-67.17a14.44,14.44,0,0,0,0-20.41l-67-67a14.45,14.45,0,0,0-20.41,0L66.91,133.56a14.23,14.23,0,0,0,0,20.13L134.22,221a14.14,14.14,0,0,0,10.07,4.17m-.47-181.56a29.31,29.31,0,0,0-20.77,9L52.6,123.05c-12,12-12,29.57,0,41.54l70.45,70.46a28.51,28.51,0,0,0,41.54,0l70.46-70.46c12-12,12-29.56,0-41.54L164.59,52.6a29.27,29.27,0,0,0-20.77-9Zm.47,179.56a12.21,12.21,0,0,1-8.66-3.59l-67.3-67.3a12.24,12.24,0,0,1,0-17.31l67.16-67.16a12.45,12.45,0,0,1,17.59,0l67,67a12.45,12.45,0,0,1,0,17.59l-67.17,67.16a12.2,12.2,0,0,1-8.65,3.59Z"/></g></g></g></svg>