<svg xmlns="http://www.w3.org/2000/svg" viewBox="0 0 287.65 287.65">
  <defs>
    <style>
      .cls-1 {
        fill: #fff;
      }

      .cls-2 {
        fill: #393a39;
      }
    </style>
  </defs>
  <title>buttonDrag_White_HoverDepressed</title>
  <g id="Layer_2" data-name="Layer 2">
    <g id="DragWhite">
      <g id="hoverDepressed">
        <g>
          <path class="cls-1" d="M143.82,191.57a23,23,0,0,1-16.38-6.76l-24.6-24.6a23.21,23.21,0,0,1,0-32.77l24.6-24.6a23.24,23.24,0,0,1,32.77,0l24.6,24.6a23.24,23.24,0,0,1,0,32.77l-24.6,24.6A23,23,0,0,1,143.82,191.57Z"/>
          <path class="cls-2" d="M143.82,97.08a22,22,0,0,1,15.68,6.47l24.6,24.6a22.18,22.18,0,0,1,0,31.35l-24.6,24.6a22.22,22.22,0,0,1-31.35,0l-24.6-24.6a22.18,22.18,0,0,1,0-31.35l24.6-24.6a22,22,0,0,1,15.67-6.47m0-2a24.08,24.08,0,0,0-17.08,7l-24.61,24.61a24.23,24.23,0,0,0,0,34.17l24.61,24.61a24.23,24.23,0,0,0,34.17,0l24.61-24.61a24.23,24.23,0,0,0,0-34.17l-24.61-24.61a24.09,24.09,0,0,0-17.09-7Z"/>
        </g>
        <g>
          <path class="cls-1" d="M143.82,286.65a42.45,42.45,0,0,1-30.23-12.47L13.47,174.05a42.8,42.8,0,0,1,0-60.46L113.59,13.47a42.88,42.88,0,0,1,60.46,0L274.18,113.59a42.8,42.8,0,0,1,0,60.46L174.05,274.18A42.44,42.44,0,0,1,143.82,286.65Zm.66-267.17a28.6,28.6,0,0,0-20.39,8.42L28.84,123.15a28.91,28.91,0,0,0,0,40.79l95.25,95.25a28.92,28.92,0,0,0,40.78,0l95.25-95.25a28.87,28.87,0,0,0,0-40.79L164.87,27.9A28.6,28.6,0,0,0,144.48,19.48Z"/>
          <path class="cls-2" d="M143.82,2a41.43,41.43,0,0,1,29.53,12.18L273.47,114.3a41.88,41.88,0,0,1,0,59.05L173.35,273.47a41.88,41.88,0,0,1-59,0L14.18,173.35a41.88,41.88,0,0,1,0-59L114.3,14.18A41.42,41.42,0,0,1,143.82,2m.66,266.6a29.6,29.6,0,0,0,21.1-8.71l95.25-95.25a29.86,29.86,0,0,0,0-42.2L165.58,27.19a29.91,29.91,0,0,0-42.2,0L28.13,122.44a29.86,29.86,0,0,0,0,42.2l95.25,95.25a29.6,29.6,0,0,0,21.1,8.71M143.82,0a43.58,43.58,0,0,0-30.93,12.76L12.76,112.89a43.89,43.89,0,0,0,0,61.87L112.89,274.89a43.88,43.88,0,0,0,61.87,0L274.89,174.76a43.89,43.89,0,0,0,0-61.87L174.76,12.76A43.61,43.61,0,0,0,143.82,0Zm.66,266.6a27.78,27.78,0,0,1-19.69-8.12L29.54,163.23a27.91,27.91,0,0,1,0-39.37l95.25-95.25a27.91,27.91,0,0,1,39.38,0l95.25,95.25a27.91,27.91,0,0,1,0,39.37l-95.25,95.25a27.78,27.78,0,0,1-19.69,8.12Z"/>
        </g>
        <g>
          <path class="cls-1" d="M143.82,243a28.41,28.41,0,0,1-20.06-8.68L53.3,163.89a27.51,27.51,0,0,1,0-40.13L123.76,53.3a27.51,27.51,0,0,1,40.13,0l70.46,70.46c11.62,11.63,11.62,28.5,0,40.13l-70.46,70.46A28.42,28.42,0,0,1,143.82,243Zm.47-179.87a13.33,13.33,0,0,0-9.5,3.94L67.62,134.27a13.25,13.25,0,0,0,0,18.72l67.31,67.3a13.23,13.23,0,0,0,18.72,0l67.16-67.17a13.41,13.41,0,0,0,0-19l-67-67A13.36,13.36,0,0,0,144.29,63.16Z"/>
          <path class="cls-2" d="M143.82,45.61A27.44,27.44,0,0,1,163.18,54l70.46,70.46c11.22,11.21,11.22,27.49,0,38.71l-70.46,70.46a26.52,26.52,0,0,1-38.71,0L54,163.18c-11.22-11.22-11.22-27.5,0-38.71L124.47,54a27.44,27.44,0,0,1,19.35-8.4m.47,179.56A14.13,14.13,0,0,0,154.35,221l67.17-67.17a14.44,14.44,0,0,0,0-20.41l-67-67a14.45,14.45,0,0,0-20.41,0L66.91,133.56a14.23,14.23,0,0,0,0,20.13L134.22,221a14.14,14.14,0,0,0,10.07,4.17m-.47-181.56a29.31,29.31,0,0,0-20.77,9L52.6,123.05c-12,12-12,29.57,0,41.54l70.45,70.46a28.51,28.51,0,0,0,41.54,0l70.46-70.46c12-12,12-29.56,0-41.54L164.59,52.6a29.27,29.27,0,0,0-20.77-9Zm.47,179.56a12.21,12.21,0,0,1-8.66-3.59l-67.3-67.3a12.24,12.24,0,0,1,0-17.31l67.16-67.16a12.45,12.45,0,0,1,17.59,0l67,67a12.45,12.45,0,0,1,0,17.59l-67.17,67.16a12.2,12.2,0,0,1-8.65,3.59Z"/>
        </g>
      </g>
    </g>
  </g>
</svg>
