<svg xmlns="http://www.w3.org/2000/svg" viewBox="0 0 288 288"><defs><style>.cls-1{fill:#d9d9d9;}</style></defs><title>buttonZoomDisabled</title><g id="Layer_2" data-name="Layer 2"><g id="Zoom"><g id="disabled"><rect class="cls-1" x="114.75" y="114.75" width="58.5" height="58.5" rx="13" ry="13"/><path class="cls-1" d="M160.25,115.75a12,12,0,0,1,12,12v32.5a12,12,0,0,1-12,12h-32.5a12,12,0,0,1-12-12v-32.5a12,12,0,0,1,12-12h32.5m0-2h-32.5a14,14,0,0,0-14,14v32.5a14,14,0,0,0,14,14h32.5a14,14,0,0,0,14-14v-32.5a14,14,0,0,0-14-14Z"/><path class="cls-1" d="M55,287A54.06,54.06,0,0,1,1,233V55A54.06,54.06,0,0,1,55,1H233a54.06,54.06,0,0,1,54,54V233a54.06,54.06,0,0,1-54,54ZM59.67,22.5a36,36,0,0,0-36,36V227.83a36,36,0,0,0,36,36H229a36,36,0,0,0,36-36V58.5a36,36,0,0,0-36-36Z"/><path class="cls-1" d="M233,2a53.07,53.07,0,0,1,53,53V233a53.07,53.07,0,0,1-53,53H55A53.07,53.07,0,0,1,2,233V55A53.07,53.07,0,0,1,55,2H233M59.67,264.83H229a37,37,0,0,0,37-37V58.5a37,37,0,0,0-37-37H59.67a37,37,0,0,0-37,37V227.83a37,37,0,0,0,37,37M233,0H55A55.16,55.16,0,0,0,0,55V233a55.16,55.16,0,0,0,55,55H233a55.16,55.16,0,0,0,55-55V55A55.16,55.16,0,0,0,233,0ZM59.67,262.83a35.1,35.1,0,0,1-35-35V58.5a35.1,35.1,0,0,1,35-35H229a35.1,35.1,0,0,1,35,35V227.83a35.1,35.1,0,0,1-35,35Z"/><path class="cls-1" d="M91.26,228.33a31.62,31.62,0,0,1-31.59-31.59V91.26A31.62,31.62,0,0,1,91.26,59.67H196.74a31.62,31.62,0,0,1,31.59,31.59V196.74a31.62,31.62,0,0,1-31.59,31.59ZM94,79.17A14.18,14.18,0,0,0,79.86,93.33V193.89a14,14,0,0,0,14,14H194.58a14,14,0,0,0,13.95-14V93.33a14.17,14.17,0,0,0-14.16-14.16Z"/><path class="cls-1" d="M196.74,60.67a30.62,30.62,0,0,1,30.59,30.59V196.74a30.62,30.62,0,0,1-30.59,30.59H91.26a30.62,30.62,0,0,1-30.59-30.59V91.26A30.62,30.62,0,0,1,91.26,60.67H196.74M93.82,208.84H194.58a15,15,0,0,0,14.95-15V93.33a15.18,15.18,0,0,0-15.16-15.16H94A15.18,15.18,0,0,0,78.86,93.33V193.89a15,15,0,0,0,15,15M196.74,58.67H91.26A32.68,32.68,0,0,0,58.67,91.26V196.74a32.68,32.68,0,0,0,32.59,32.59H196.74a32.68,32.68,0,0,0,32.59-32.59V91.26a32.68,32.68,0,0,0-32.59-32.59ZM93.82,206.84a13,13,0,0,1-13-13V93.33A13.16,13.16,0,0,1,94,80.17H194.37a13.16,13.16,0,0,1,13.16,13.16V193.89a13,13,0,0,1-12.95,13Z"/></g></g></g></svg>