<svg xmlns="http://www.w3.org/2000/svg" viewBox="0 0 288 288">
  <defs>
    <style>
      .cls-1 {
        fill: #fff;
      }
    </style>
  </defs>
  <g id="Layer_2" data-name="Layer 2">
    <g id="ZoomWhite">
      <g id="hoverDepressed">
        <rect class="cls-1" x="91.75" y="91.75" width="104.5" height="104.5" rx="24.17"/>
        <path class="cls-1" d="M233,0H55A55.16,55.16,0,0,0,0,55V233a55.16,55.16,0,0,0,55,55H233a55.16,55.16,0,0,0,55-55V55A55.16,55.16,0,0,0,233,0Zm31,227.83a35.1,35.1,0,0,1-35,35H59.67a35.1,35.1,0,0,1-35-35V58.5a35.1,35.1,0,0,1,35-35H229a35.1,35.1,0,0,1,35,35Z"/>
        <path class="cls-1" d="M206.63,42.67H81.37a38.81,38.81,0,0,0-38.7,38.7V206.63a38.81,38.81,0,0,0,38.7,38.7H206.63a38.81,38.81,0,0,0,38.7-38.7V81.37A38.81,38.81,0,0,0,206.63,42.67Zm12.81,160.57a15.37,15.37,0,0,1-15.38,15.38H84.41A15.38,15.38,0,0,1,69,203.24V83.83A15.63,15.63,0,0,1,84.65,68.2H203.81a15.63,15.63,0,0,1,15.63,15.63Z"/>
      </g>
    </g>
  </g>
</svg>
