<svg xmlns="http://www.w3.org/2000/svg" viewBox="0 0 288 288">
  <defs>
    <style>
      .cls-1 {
        fill: #fff;
      }
    </style>
  </defs>
  <g id="Layer_2" data-name="Layer 2">
    <g id="ZoomWhite">
      <g id="normal">
        <rect class="cls-1" x="113.75" y="113.75" width="60.5" height="60.5" rx="14"/>
        <rect class="cls-1" x="113.75" y="113.75" width="60.5" height="60.5" rx="14"/>
        <path class="cls-1" d="M233,0H55A55.16,55.16,0,0,0,0,55V233a55.16,55.16,0,0,0,55,55H233a55.16,55.16,0,0,0,55-55V55A55.16,55.16,0,0,0,233,0Zm31,227.83a35.1,35.1,0,0,1-35,35H59.67a35.1,35.1,0,0,1-35-35V58.5a35.1,35.1,0,0,1,35-35H229a35.1,35.1,0,0,1,35,35Z"/>
        <path class="cls-1" d="M196.74,58.67H91.26A32.68,32.68,0,0,0,58.67,91.26V196.74a32.68,32.68,0,0,0,32.59,32.59H196.74a32.68,32.68,0,0,0,32.59-32.59V91.26A32.68,32.68,0,0,0,196.74,58.67Zm10.79,135.22a13,13,0,0,1-12.95,13H93.82a13,13,0,0,1-13-13V93.33A13.16,13.16,0,0,1,94,80.17H194.37a13.16,13.16,0,0,1,13.16,13.16Z"/>
      </g>
    </g>
  </g>
</svg>
