<svg xmlns="http://www.w3.org/2000/svg" xmlns:xlink="http://www.w3.org/1999/xlink" viewBox="0 0 288 288"><defs><style>.cls-1{fill:url(#New_Gradient_Swatch_1);}.cls-2{fill:url(#New_Gradient_Swatch_1-2);}.cls-3{fill:url(#New_Gradient_Swatch_1-3);}.cls-4{fill:url(#New_Gradient_Swatch_1-4);}.cls-5{fill:url(#New_Gradient_Swatch_1-5);}.cls-6{fill:url(#New_Gradient_Swatch_1-6);}</style><linearGradient id="New_Gradient_Swatch_1" x1="144" y1="196.25" x2="144" y2="91.75" gradientUnits="userSpaceOnUse"><stop offset="0" stop-color="#7fd7fe"/><stop offset="1" stop-color="#55bdea"/></linearGradient><linearGradient id="New_Gradient_Swatch_1-2" x1="144" y1="91.75" x2="144" y2="196.25" xlink:href="#New_Gradient_Swatch_1"/><linearGradient id="New_Gradient_Swatch_1-3" x1="144" y1="0" x2="144" y2="288" xlink:href="#New_Gradient_Swatch_1"/><linearGradient id="New_Gradient_Swatch_1-4" x1="144" y1="288" x2="144" y2="0" xlink:href="#New_Gradient_Swatch_1"/><linearGradient id="New_Gradient_Swatch_1-5" x1="144" y1="42.67" x2="144" y2="245.33" xlink:href="#New_Gradient_Swatch_1"/><linearGradient id="New_Gradient_Swatch_1-6" x1="144" y1="245.33" x2="144" y2="42.67" xlink:href="#New_Gradient_Swatch_1"/></defs><title>hoverDepressed</title><g id="Layer_2" data-name="Layer 2"><g id="Zoom"><g id="hoverDepressed"><rect class="cls-1" x="91.75" y="91.75" width="104.5" height="104.5" rx="24.17" ry="24.17"/><path class="cls-2" d="M172.08,93.75a22.19,22.19,0,0,1,22.17,22.17v56.16a22.19,22.19,0,0,1-22.17,22.17H115.92a22.19,22.19,0,0,1-22.17-22.17V115.92a22.19,22.19,0,0,1,22.17-22.17h56.16m0-2H115.92a24.25,24.25,0,0,0-24.17,24.17v56.16a24.24,24.24,0,0,0,24.17,24.17h56.16a24.23,24.23,0,0,0,24.17-24.17V115.92a24.24,24.24,0,0,0-24.17-24.17Z"/><path class="cls-3" d="M233,0H55A55.16,55.16,0,0,0,0,55V233a55.16,55.16,0,0,0,55,55H233a55.16,55.16,0,0,0,55-55V55A55.16,55.16,0,0,0,233,0Zm31,227.83a35.1,35.1,0,0,1-35,35H59.67a35.1,35.1,0,0,1-35-35V58.5a35.1,35.1,0,0,1,35-35H229a35.1,35.1,0,0,1,35,35Z"/><path class="cls-4" d="M233,2a53.07,53.07,0,0,1,53,53V233a53.07,53.07,0,0,1-53,53H55A53.07,53.07,0,0,1,2,233V55A53.07,53.07,0,0,1,55,2H233M59.67,264.83H229a37,37,0,0,0,37-37V58.5a37,37,0,0,0-37-37H59.67a37,37,0,0,0-37,37V227.83a37,37,0,0,0,37,37M233,0H55A55.16,55.16,0,0,0,0,55V233a55.16,55.16,0,0,0,55,55H233a55.16,55.16,0,0,0,55-55V55A55.16,55.16,0,0,0,233,0ZM59.67,262.83a35.1,35.1,0,0,1-35-35V58.5a35.1,35.1,0,0,1,35-35H229a35.1,35.1,0,0,1,35,35V227.83a35.1,35.1,0,0,1-35,35Z"/><path class="cls-5" d="M206.63,42.67H81.37a38.81,38.81,0,0,0-38.7,38.7V206.63a38.81,38.81,0,0,0,38.7,38.7H206.63a38.81,38.81,0,0,0,38.7-38.7V81.37A38.81,38.81,0,0,0,206.63,42.67Zm12.81,160.57a15.37,15.37,0,0,1-15.38,15.38H84.41A15.38,15.38,0,0,1,69,203.24V83.83A15.63,15.63,0,0,1,84.65,68.2H203.81a15.63,15.63,0,0,1,15.63,15.63Z"/><path class="cls-6" d="M206.63,44.67a36.74,36.74,0,0,1,36.7,36.7V206.63a36.74,36.74,0,0,1-36.7,36.7H81.37a36.74,36.74,0,0,1-36.7-36.7V81.37a36.74,36.74,0,0,1,36.7-36.7H206.63m-122.22,176H204.06a17.39,17.39,0,0,0,17.38-17.38V83.83A17.65,17.65,0,0,0,203.81,66.2H84.65A17.65,17.65,0,0,0,67,83.83V203.24a17.4,17.4,0,0,0,17.39,17.38M206.63,42.67H81.37a38.81,38.81,0,0,0-38.7,38.7V206.63a38.81,38.81,0,0,0,38.7,38.7H206.63a38.81,38.81,0,0,0,38.7-38.7V81.37a38.81,38.81,0,0,0-38.7-38.7Zm-122.22,176A15.38,15.38,0,0,1,69,203.24V83.83A15.63,15.63,0,0,1,84.65,68.2H203.81a15.63,15.63,0,0,1,15.63,15.63V203.24a15.37,15.37,0,0,1-15.38,15.38Z"/></g></g></g></svg>