<svg xmlns="http://www.w3.org/2000/svg" viewBox="0 0 1388.63 1388.63"><defs><style>.cls-1{fill:#2f4eb5;}.cls-2{font-size:32px;fill:#fff;}.cls-16,.cls-19,.cls-2,.cls-22,.cls-23,.cls-24{font-family:Roboto-Bold, Roboto;font-weight:700;}.cls-3{fill:#adc3f2;}.cls-4{letter-spacing:-0.02em;}.cls-5{letter-spacing:-0.01em;}.cls-6{letter-spacing:-0.03em;}.cls-7{letter-spacing:-0.02em;}.cls-8{letter-spacing:0.02em;}.cls-9{fill:#112568;}.cls-10,.cls-11{fill:#212021;stroke:#212021;stroke-miterlimit:10;}.cls-10{stroke-width:3px;}.cls-12{fill:#4aa152;}.cls-13,.cls-14,.cls-15,.cls-18,.cls-25{opacity:0.5;}.cls-14{fill:gray;}.cls-15{fill:#e6e6e6;}.cls-16{font-size:110px;}.cls-16,.cls-19,.cls-23,.cls-25{fill:#f2f2f2;}.cls-17{fill:#787878;}.cls-18{fill:#4d4d4d;}.cls-19,.cls-22{font-size:80px;}.cls-20{fill:#44c2cd;}.cls-21{fill:#efe057;}.cls-22,.cls-24{fill:#333;}.cls-23,.cls-24{font-size:30px;}</style></defs><title>CodonWheel_001_3</title><g id="Layer_2" data-name="Layer 2"><g id="AminoAcid_Tabs"><g id="Phenylalanine"><path class="cls-1" d="M701.45,244.69A451,451,0,0,1,781,253L830,17.67A692.5,692.5,0,0,0,702.12,4.42Z"/><text class="cls-2" transform="matrix(0.1, -0.99, 0.99, 0.1, 752.82, 238.6)">Phenylalanine</text></g><rect class="cls-3" x="689.63" y="131.2" width="242.26" height="10.85" transform="translate(511.85 902.56) rotate(-78.25)"/><g id="Leucine_UUA_UUG" data-name="Leucine_UUA/UUG"><path class="cls-1" d="M791.64,255.15a445.44,445.44,0,0,1,72.56,22.6L957.46,56.26A685,685,0,0,0,840.59,19.87Z"/><text class="cls-2" transform="matrix(0.3, -0.95, 0.95, 0.3, 841.09, 258.89)">Leucine</text></g><rect class="cls-3" x="794.59" y="163.93" width="242.26" height="10.85" transform="translate(404.29 947.6) rotate(-67.17)"/><g id="Serine_UC"><path class="cls-1" d="M874.19,282a450.21,450.21,0,0,1,134.74,90.9l170-169.74A690.69,690.69,0,0,0,967.45,60.48Z"/><text class="cls-2" transform="matrix(0.56, -0.83, 0.83, 0.56, 959.33, 318.91)">Serine</text></g><rect class="cls-3" x="976.57" y="286.5" width="242.26" height="10.85" transform="translate(114.6 860.84) rotate(-44.95)"/><g id="Tyrosine"><path class="cls-1" d="M1016.59,380.56a451.88,451.88,0,0,1,48.22,58.67l199.5-133.93a693,693,0,0,0-77.68-94.49Z"/><text class="cls-2" transform="matrix(0.77, -0.63, 0.63, 0.77, 1057.03, 412.17)">Ty<tspan class="cls-4" x="35.86" y="0">r</tspan><tspan x="46.97" y="0">osine</tspan></text></g><rect class="cls-3" x="1046.32" y="371.44" width="242.26" height="10.85" transform="translate(-11.89 714.67) rotate(-33.87)"/><g id="Stop_UAA_UAG" data-name="Stop_UAA/UAG"><path class="cls-1" d="M1070.86,448.23A447.83,447.83,0,0,1,1107.34,516l221.77-92.62a688.76,688.76,0,0,0-58.74-109.1Z"/><text class="cls-2" transform="translate(1103.16 484.55) rotate(-28.5)">S<tspan class="cls-5" x="19.67" y="0">t</tspan><tspan x="30.02" y="0">op</tspan></text></g><rect class="cls-3" x="1098.95" y="469.39" width="242.26" height="10.85" transform="translate(-88.74 506.87) rotate(-22.67)"/><g id="Cysteine"><path class="cls-1" d="M1111.52,526a445.53,445.53,0,0,1,22.22,72.15l235.36-48.53a684.8,684.8,0,0,0-35.8-116.24Z"/><text class="cls-2" transform="matrix(0.95, -0.3, 0.3, 0.95, 1135.9, 567.3)">Cysteine</text></g><rect class="cls-3" x="1131.16" y="573.85" width="242.26" height="10.85" transform="translate(-91.18 264.84) rotate(-11.65)"/><g id="Stop_UGA_UGG" data-name="Stop_UGA/UGG"><path class="cls-1" d="M1371.28,560.28l-235.36,48.53q3.06,15.91,5,32.22l238.93-25.58Q1376.66,587.52,1371.28,560.28Z"/><text class="cls-2" transform="matrix(0.99, -0.15, 0.15, 0.99, 1149.76, 633.72)">S<tspan class="cls-5" x="19.67" y="0">t</tspan><tspan x="30.02" y="0">op</tspan></text></g><rect class="cls-3" x="1139.64" y="628.23" width="242.26" height="10.85" transform="translate(-60.29 137.81) rotate(-6.11)"/><g id="Tryptophan"><path class="cls-1" d="M1142,651.82q1.71,18.31,1.93,37h240.26q-.23-31.67-3.27-62.61Z"/><text class="cls-2" transform="matrix(1, -0.05, 0.05, 1, 1153.51, 679.64)"><tspan class="cls-6">T</tspan><tspan x="18.78" y="0">ryp</tspan><tspan class="cls-5" x="64.53" y="0">t</tspan><tspan x="74.88" y="0">ophan</tspan></text></g><rect class="cls-3" x="1142.85" y="688.85" width="242.26" height="10.85"/><g id="Leucine_CU"><path class="cls-1" d="M1144,699.7A447.88,447.88,0,0,1,1111.58,862l221.88,92.35a687.42,687.42,0,0,0,50.76-254.61Z"/><text class="cls-2" transform="matrix(0.98, 0.2, -0.2, 0.98, 1142.44, 795.3)">Leucine</text></g><rect class="cls-3" x="1099.06" y="907.62" width="242.26" height="10.85" transform="translate(444.47 -398.74) rotate(22.6)"/><g id="Proline"><path class="cls-1" d="M1107.4,872a450,450,0,0,1-90.86,135.65l170.17,169.61a690.61,690.61,0,0,0,142.57-212.91Z"/><text class="cls-2" transform="matrix(0.83, 0.55, -0.55, 0.83, 1071.09, 956.87)">P<tspan class="cls-4" x="20.64" y="0">r</tspan><tspan x="31.75" y="0">oline</tspan></text></g><rect class="cls-3" x="976.58" y="1090.76" width="242.26" height="10.85" transform="translate(1094.09 -455.13) rotate(44.91)"/><g id="Histidine"><path class="cls-1" d="M1008.88,1015.3a452.42,452.42,0,0,1-57.69,47.77l134.9,198.85a693.88,693.88,0,0,0,93-77Z"/><text class="cls-2" transform="matrix(0.64, 0.77, -0.77, 0.64, 980.55, 1053.3)">Histidine</text></g><rect class="cls-3" x="892.93" y="1159.98" width="242.26" height="10.85" transform="translate(1409.19 -328.03) rotate(55.85)"/><g id="Glutamine"><path class="cls-1" d="M942.21,1069.16a448.88,448.88,0,0,1-67.85,36.93l93.56,221.36A688.16,688.16,0,0,0,1077.11,1268Z"/><text class="cls-2" transform="matrix(0.48, 0.88, -0.88, 0.48, 905.43, 1101.96)">Glutamine</text></g><rect class="cls-3" x="794.91" y="1213.22" width="242.26" height="10.85" transform="translate(1681.94 -99.54) rotate(67.09)"/><g id="Arginine_CG"><path class="cls-1" d="M864.37,1110.31a447.82,447.82,0,0,1-162.29,33.12l1.22,240.27a687.37,687.37,0,0,0,254.62-52Z"/><text class="cls-2" transform="matrix(0.21, 0.98, -0.98, 0.21, 778.57, 1145.49)">Arginine</text></g><rect class="cls-3" x="576.14" y="1258.05" width="242.26" height="10.85" transform="translate(1957.16 559.76) rotate(89.71)"/><g id="Isoteucine"><path class="cls-1" d="M691.23,1143.47a449.13,449.13,0,0,1-120.47-17.25L501.9,1356.47a689.86,689.86,0,0,0,190.56,27.27Z"/><text class="cls-2" transform="matrix(0.15, -0.99, 0.99, 0.15, 614.24, 1297.53)">Isoteucine</text></g><rect class="cls-3" x="410.08" y="1234.12" width="242.26" height="10.85" transform="translate(1870.99 1085.77) rotate(106.65)"/><g id="Methionine"><path class="cls-1" d="M560.37,1123.12q-17.55-5.49-34.46-12.35l-92.74,221.72q28.54,11.7,58.34,20.88Z"/><text class="cls-2" transform="matrix(0.34, -0.94, 0.94, 0.34, 495.27, 1281.96)">Methionine</text></g><rect class="cls-3" x="353.51" y="1213.87" width="242.26" height="10.85" transform="translate(1782.65 1251.93) rotate(112.7)"/><g id="Threonine"><path class="cls-1" d="M515.91,1106.58a450.13,450.13,0,0,1-134.51-90.16L212,1186.8a690.49,690.49,0,0,0,211.17,141.49Z"/><text class="cls-2" transform="matrix(0.56, -0.83, 0.83, 0.56, 364.93, 1201.26)">Threonine</text></g><rect class="cls-3" x="171.8" y="1092.28" width="242.26" height="10.85" transform="translate(1277.89 1663.94) rotate(134.84)"/><g id="Asparagine"><path class="cls-1" d="M373.71,1008.77A452.48,452.48,0,0,1,325,949.94L125.91,1084.43a693.38,693.38,0,0,0,78.4,94.72Z"/><text class="cls-2" transform="matrix(0.77, -0.64, 0.64, 0.77, 221.48, 1097.88)">Aspa<tspan class="cls-5" x="73.16" y="0">r</tspan><tspan x="84.36" y="0">agine</tspan></text></g><rect class="cls-3" x="101.45" y="1007.17" width="242.26" height="10.85" transform="translate(973.78 1727.15) rotate(145.96)"/><g id="Lysine"><path class="cls-1" d="M319,941a448,448,0,0,1-36.84-68.07l-221.59,93a688,688,0,0,0,59.31,109.53Z"/><text class="cls-2" transform="matrix(0.88, -0.48, 0.48, 0.88, 214.82, 967.22)">Lysine</text></g><rect class="cls-3" x="48.33" y="908.87" width="242.26" height="10.85" transform="translate(679.64 1691.71) rotate(157.23)"/><g id="Serine_AGC_AGU" data-name="Serine_AGC/AGU"><path class="cls-1" d="M277.92,862.88a446,446,0,0,1-22.78-74.09L19.65,836.7A685.14,685.14,0,0,0,56.32,955.91Z"/><text class="cls-2" transform="matrix(0.96, -0.29, 0.29, 0.96, 170.47, 863.68)">Serine</text></g><rect class="cls-3" x="15.41" y="801.96" width="242.26" height="10.85" transform="translate(431.3 1571.34) rotate(168.5)"/><g id="Arginine_AGG_AGA" data-name="Arginine_AGG/AGA"><path class="cls-1" d="M253,778.15a451.54,451.54,0,0,1-7.83-79.51L4.9,698.3A692.91,692.91,0,0,0,17.5,826.07Z"/><text class="cls-2" transform="matrix(0.99, -0.11, 0.11, 0.99, 119.03, 766.6)">Arginine</text></g><rect class="cls-3" x="4.02" y="687.62" width="242.26" height="10.85" transform="translate(249.31 1386.26) rotate(-179.92)"/><g id="Valine"><path class="cls-1" d="M245.18,687.79a448,448,0,0,1,33.15-163.57L56.89,430.84a687.58,687.58,0,0,0-52,256.61Z"/><text class="cls-2" transform="matrix(0.98, 0.21, -0.21, 0.98, 156.29, 590.97)"><tspan class="cls-7">V</tspan><tspan x="20.2" y="0">aline</tspan></text></g><rect class="cls-3" x="48.84" y="467.21" width="242.26" height="10.85" transform="translate(142.94 974.17) rotate(-157.14)"/><g id="Alanine"><path class="cls-1" d="M282.56,514.22a450.25,450.25,0,0,1,91.86-135.58L205.24,208A690.65,690.65,0,0,0,61.12,420.85Z"/><text class="cls-2" transform="matrix(0.83, 0.56, -0.56, 0.83, 221.05, 381.62)">Alanine</text></g><rect class="cls-3" x="172.63" y="284.17" width="242.26" height="10.85" transform="translate(294.98 702.1) rotate(-134.76)"/><g id="Aspartic_acid" data-name="Aspartic acid"><path class="cls-1" d="M382.13,371a451.32,451.32,0,0,1,59.43-48.43L308.61,122.4a692.36,692.36,0,0,0-95.67,78Z"/><text class="cls-2" transform="matrix(0.63, 0.78, -0.78, 0.63, 280.11, 195.38)">Aspa<tspan class="cls-8" x="73.16" y="0">r</tspan><tspan x="85.61" y="0">tic acid</tspan></text></g><rect class="cls-3" x="258.57" y="214.2" width="242.26" height="10.85" transform="translate(406.83 657.42) rotate(-123.59)"/><g id="Glutamic_acid" data-name="Glutamic acid"><path class="cls-1" d="M450.59,316.56A448,448,0,0,1,518,280.66L426.14,58.56a688.21,688.21,0,0,0-108.49,57.83Z"/><text class="cls-2" transform="matrix(0.47, 0.88, -0.88, 0.47, 378.99, 119.11)">Glutamic acid</text></g><rect class="cls-3" x="356.04" y="162.36" width="242.26" height="10.85" transform="translate(504.46 672.85) rotate(-112.47)"/><g id="Glycine"><path class="cls-1" d="M528,276.52a447.77,447.77,0,0,1,162.6-31.86l.67-240.27a687.79,687.79,0,0,0-255.1,50Z"/><text class="cls-2" transform="matrix(0.19, 0.98, -0.98, 0.19, 576.14, 141.36)">Glycine</text></g><rect class="cls-3" x="575.23" y="119.23" width="242.26" height="10.85" transform="translate(569.77 820.66) rotate(-89.84)"/></g><g id="G_Black_Outline" data-name="G_Black+Outline"><g id="G_Outline"><path class="cls-9" d="M4.93,694.06C4.93,313.19,313.69,4.43,694.56,4.43h0V0h0C311.24,0,.5,310.74.5,694.06Z"/></g><g id="G_Black"><path class="cls-10" d="M694.56,694.06V244.63h0c-248.21,0-449.43,201.22-449.43,449.43Z"/></g></g><g id="A_Black_Outline" data-name="A_Black+Outline"><g id="A_Outline"><path class="cls-11" d="M694.56,1383.7c-380.87,0-689.63-308.76-689.63-689.64H.5c0,383.32,310.74,694.07,694.06,694.07Z"/></g><g id="A_Black"><path class="cls-10" d="M694.56,694.06H245.13c0,248.22,201.22,449.44,449.43,449.44Z"/></g></g><g id="C_Black_Outline" data-name="C_Black+Outline"><g id="C_Outline"><path class="cls-9" d="M1384.2,694.06c0,380.88-308.76,689.64-689.64,689.64h0v4.43h0c383.32,0,694.07-310.75,694.07-694.07Z"/></g><g id="C_Black"><path class="cls-10" d="M694.56,694.06V1143.5h0c248.22,0,449.44-201.22,449.44-449.44Z"/></g></g><g id="U_Black_Outline" data-name="U_Black+Outline"><g id="U_Outline"><path class="cls-9" d="M694.56,4.43c380.88,0,689.64,308.76,689.64,689.63h4.43C1388.63,310.74,1077.88,0,694.56,0Z"/></g><g id="U_Black"><path class="cls-10" d="M694.56,694.06H1144c0-248.21-201.22-449.43-449.44-449.43Z"/></g></g><g id="G_GROUP_MAIN"><g id="G"><path class="cls-12" d="M687.75,687.54V458.23C562.54,462,461.66,562.48,457.35,687.54Z"/><path class="cls-13" d="M457.35,687.54h230.4v-10H457.91C457.66,680.86,457.46,684.19,457.35,687.54Z"/><path class="cls-14" d="M687.75,468.75V458.23C562.54,462,461.66,562.48,457.35,687.54h10.56C476.85,570.47,570.53,477.13,687.75,468.75Z"/><path class="cls-15" d="M677.75,687.54h10V458.23c-3.35.1-6.68.28-10,.52Z"/><text class="cls-16" transform="translate(561.86 624.68)">G</text></g><g id="G_GROUP"><g id="GU"><path class="cls-17" d="M348,558.35a371.68,371.68,0,0,0-26.08,129.19h126.5a245.8,245.8,0,0,1,17.84-84.23Z"/><path class="cls-13" d="M322.28,677.54c-.16,3.32-.29,6.66-.37,10h126.5q.18-5,.55-10Z"/><path class="cls-14" d="M438.76,687.54h9.65a245.8,245.8,0,0,1,17.84-84.23l-9.18-3.49A271.37,271.37,0,0,0,438.76,687.54Z"/><path class="cls-15" d="M462.31,613.72q1.86-5.26,3.94-10.41L348,558.35c-1.37,3.44-2.66,6.92-3.93,10.41Z"/><path class="cls-18" d="M356.51,561.59,348,558.35a371.68,371.68,0,0,0-26.08,129.19H331A371.84,371.84,0,0,1,356.51,561.59Z"/><text class="cls-19" transform="translate(361.35 660.34)">U</text></g><g id="GC"><path class="cls-20" d="M352.42,547.66l116.76,48.7a247,247,0,0,1,48.19-71.69L426,437.3A373.83,373.83,0,0,0,352.42,547.66Z"/><path class="cls-15" d="M510,532.61q3.57-4.05,7.33-7.94L426,437.3c-2.49,2.59-4.94,5.24-7.36,7.91Z"/><path class="cls-18" d="M433.14,444.16,426,437.3a373.83,373.83,0,0,0-73.53,110.36l9,3.76A373.56,373.56,0,0,1,433.14,444.16Z"/><path class="cls-13" d="M356.64,538.33c-1.44,3.09-2.86,6.19-4.22,9.33l116.76,48.7q2.07-4.7,4.34-9.29Z"/><path class="cls-18" d="M460.11,592.57l9.07,3.79a247,247,0,0,1,48.19-71.69l-7.89-7.54A302.38,302.38,0,0,0,460.11,592.57Z"/><text class="cls-19" transform="translate(405.74 552.44)">C</text></g><g id="GA"><path class="cls-21" d="M434.69,428.51,523.07,519a247,247,0,0,1,71.37-48.41l-50-116.21A373.74,373.74,0,0,0,434.69,428.51Z"/><path class="cls-14" d="M548.5,363.7l-4-9.36a373.74,373.74,0,0,0-109.78,74.17l7.42,7.59A373.62,373.62,0,0,1,548.5,363.7Z"/><path class="cls-13" d="M442.55,421.09c-2.65,2.44-5.28,4.9-7.86,7.42L523.07,519q3.87-3.76,7.91-7.36Z"/><path class="cls-18" d="M515.86,511.59l7.21,7.37a247,247,0,0,1,71.37-48.41l-4.15-9.67A280.39,280.39,0,0,0,515.86,511.59Z"/><path class="cls-15" d="M585.33,474.85q4.5-2.24,9.11-4.3l-50-116.21c-3.08,1.36-6.12,2.77-9.16,4.21Z"/><text class="cls-22" transform="translate(492.3 464.29)">A</text></g><g id="GG"><path class="cls-12" d="M601.07,467.69a245.37,245.37,0,0,1,86.68-18.39V322.82A371.8,371.8,0,0,0,554.67,350Z"/><path class="cls-15" d="M677.75,449.8c3.32-.23,6.65-.41,10-.5V322.82c-3.34.06-6.67.18-10,.33Z"/><path class="cls-13" d="M597.21,457.9l3.86,9.79a245.37,245.37,0,0,1,86.68-18.39V438.89A264.91,264.91,0,0,0,597.21,457.9Z"/><path class="cls-15" d="M687.75,332.85v-10A371.8,371.8,0,0,0,554.67,350l3.55,9A371.45,371.45,0,0,1,687.75,332.85Z"/><path class="cls-13" d="M564.74,346.12c-3.38,1.26-6.74,2.55-10.07,3.9l46.4,117.67q5-2.06,10.07-3.89Z"/><text class="cls-19" transform="translate(604.72 417.54)">G</text></g></g><g id="GG_GROUP"><g id="GGG"><path class="cls-12" d="M655.5,311.37c10.83-1.09,21.79-1.77,32.87-1.95l.09-53.82q-19,.27-37.56,2.13Z"/><path class="cls-15" d="M684.37,309.53c1.33,0,2.66-.09,4-.11l.09-53.82c-1.34,0-2.67.06-4,.1Z"/><path class="cls-13" d="M655.18,307.65l.32,3.72c10.83-1.09,21.79-1.77,32.87-1.95v-3.53Q671.63,306.21,655.18,307.65Z"/><path class="cls-13" d="M655.24,257.34c-1.45.13-2.9.25-4.34.39l4.6,53.64c1.44-.14,2.89-.26,4.34-.39Z"/><path class="cls-15" d="M688.45,259.62v-4q-19,.27-37.56,2.13l.34,4Q669.65,260,688.45,259.62Z"/><text class="cls-23" transform="translate(659.69 293.97)">G</text></g><g id="GGA"><path class="cls-21" d="M618.56,316.54q16-3.29,32.51-5.28l-5.37-53.55q-18.86,2.19-37.15,5.92Z"/><path class="cls-15" d="M647.1,311.77c1.32-.17,2.64-.35,4-.51l-5.37-53.55c-1.33.15-2.64.34-4,.5Z"/><path class="cls-13" d="M617.86,312.86l.7,3.68q16-3.29,32.51-5.28l-.36-3.51Q634.09,309.76,617.86,312.86Z"/><path class="cls-13" d="M612.83,262.81l-4.28.82,10,52.91c1.42-.29,2.85-.56,4.27-.84Z"/><path class="cls-15" d="M646.1,261.71l-.4-4q-18.86,2.19-37.15,5.92l.74,3.92Q627.44,263.95,646.1,261.71Z"/><text class="cls-24" transform="translate(621.75 297.97)">A</text></g><g id="GGC"><path class="cls-20" d="M582.18,325c10.41-3.21,21-6,31.85-8.38l-10.49-52.79q-18.57,4-36.41,9.47Z"/><path class="cls-15" d="M610.13,317.49c1.3-.3,2.59-.61,3.9-.89l-10.49-52.79c-1.31.28-2.61.59-3.91.88Z"/><path class="cls-13" d="M581.13,321.39l1,3.59c10.41-3.21,21-6,31.85-8.38l-.69-3.46Q597,316.74,581.13,321.39Z"/><path class="cls-13" d="M571.3,272.05c-1.39.41-2.79.81-4.17,1.23l15,51.7c1.38-.43,2.78-.83,4.17-1.24Z"/><path class="cls-15" d="M604.32,267.76l-.78-3.95q-18.57,4-36.41,9.47l1.11,3.83Q586,271.78,604.32,267.76Z"/><text class="cls-23" transform="translate(582.66 306.24)">C</text></g><g id="GGU"><path class="cls-17" d="M547.88,336.74q15.09-6.28,30.9-11.4L563.27,273.8q-18.09,5.77-35.33,12.93Z"/><path class="cls-15" d="M575,326.61c1.27-.42,2.53-.86,3.8-1.27L563.27,273.8c-1.27.41-2.53.84-3.8,1.26Z"/><path class="cls-13" d="M546.5,333.27l1.38,3.47q15.09-6.28,30.9-11.4l-1-3.37Q561.83,327.11,546.5,333.27Z"/><path class="cls-13" d="M532,285.1c-1.34.55-2.7,1.07-4,1.63l19.94,50c1.34-.56,2.7-1.09,4-1.63Z"/><path class="cls-15" d="M564.43,277.66l-1.16-3.86q-18.09,5.77-35.33,12.93l1.48,3.71Q546.54,283.42,564.43,277.66Z"/><text class="cls-23" transform="translate(544.41 316.74)">U</text></g></g><g id="GA_GROUP"><g id="GAU"><path class="cls-17" d="M422.6,418.68q11.43-11.65,24-22.53l-34.35-41.43q-14.43,12.34-27.52,25.66Z"/><path class="cls-15" d="M443.61,398.79c1-.88,2-1.77,3-2.64l-34.35-41.43c-1,.87-2,1.76-3,2.63Z"/><path class="cls-18" d="M420,416l2.63,2.66q11.43-11.65,24-22.53l-2.25-2.71Q431.7,404.39,420,416Z"/><path class="cls-13" d="M387.84,377.31c-1,1-2.07,2-3.09,3.07l37.85,38.3c1-1,2-2.05,3.08-3.08Z"/><path class="cls-14" d="M414.84,357.82l-2.57-3.1q-14.43,12.34-27.52,25.66l2.81,2.84Q400.6,370.1,414.84,357.82Z"/><text class="cls-23" transform="translate(406.21 397.55)">U</text></g><g id="GAC"><path class="cls-20" d="M449.61,394.49q12.5-10.51,26.07-20.12l-30.22-44.54q-15.54,10.92-29.85,22.91Z"/><path class="cls-15" d="M472.43,376.71c1.08-.78,2.15-1.57,3.25-2.34l-30.22-44.54c-1.1.77-2.17,1.56-3.25,2.34Z"/><path class="cls-13" d="M447.24,391.59l2.37,2.9q12.5-10.51,26.07-20.12l-2-2.92Q460,381.14,447.24,391.59Z"/><path class="cls-13" d="M419,350c-1.12.92-2.26,1.83-3.37,2.76l34,41.75c1.1-.93,2.24-1.85,3.36-2.77Z"/><path class="cls-14" d="M447.72,333.16l-2.26-3.33q-15.54,10.92-29.85,22.91l2.52,3.09Q432.37,344,447.72,333.16Z"/><text class="cls-23" transform="translate(436.68 374.1)">C</text></g><g id="GAA"><path class="cls-21" d="M479.83,372.55q13.46-9.26,27.88-17.52l-25.79-47.24q-16.51,9.38-31.91,19.93Z"/><path class="cls-15" d="M504.26,357.05c1.15-.67,2.29-1.36,3.45-2l-25.79-47.24c-1.16.66-2.3,1.35-3.46,2Z"/><path class="cls-13" d="M477.76,369.44l2.07,3.11q13.46-9.26,27.88-17.52L506,351.94Q491.5,360.27,477.76,369.44Z"/><path class="cls-13" d="M453.63,325.3c-1.21.81-2.42,1.6-3.62,2.42l29.82,44.83c1.19-.82,2.41-1.62,3.61-2.43Z"/><path class="cls-15" d="M483.85,311.33l-1.93-3.54q-16.51,9.38-31.91,19.93l2.21,3.32Q467.52,320.66,483.85,311.33Z"/><text class="cls-24" transform="translate(471.8 347.77)">A</text></g><g id="GAG"><path class="cls-12" d="M511.84,353.41q14.32-7.85,29.52-14.6L520.48,289.2q-17.37,7.65-33.76,16.59Z"/><path class="cls-15" d="M537.71,340.47c1.22-.55,2.42-1.12,3.65-1.66L520.48,289.2c-1.22.54-2.43,1.1-3.64,1.65Z"/><path class="cls-13" d="M510.1,350.1l1.74,3.31q14.32-7.85,29.52-14.6L540,335.56Q524.69,342.37,510.1,350.1Z"/><path class="cls-13" d="M490.56,303.75c-1.28.68-2.57,1.35-3.84,2l25.12,47.62c1.27-.69,2.56-1.37,3.84-2.05Z"/><path class="cls-15" d="M522,292.91l-1.56-3.71q-17.37,7.65-33.76,16.59l1.86,3.53Q504.86,300.55,522,292.91Z"/><text class="cls-23" transform="translate(505.66 333.67)">G</text></g></g><g id="GC_GROUP"><g id="GCU"><path class="cls-17" d="M339.51,542q6-15.18,13.43-30.07L305.24,487q-8.52,17-15.44,34.3Z"/><path class="cls-15" d="M351.19,515.49c.59-1.2,1.16-2.4,1.75-3.6L305.24,487c-.6,1.19-1.17,2.4-1.76,3.59Z"/><path class="cls-14" d="M336.05,540.52l3.46,1.44q6-15.18,13.43-30.07l-3.12-1.63Q342.37,525.26,336.05,540.52Z"/><path class="cls-13" d="M291.46,517.25c-.56,1.34-1.13,2.68-1.66,4L339.51,542c.53-1.35,1.1-2.69,1.65-4Z"/><path class="cls-14" d="M308.81,488.83,305.24,487q-8.52,17-15.44,34.3l3.68,1.54Q300.43,505.67,308.81,488.83Z"/><text class="cls-23" transform="translate(310.6 526.34)">U</text></g><g id="GCC"><path class="cls-20" d="M355.06,509.2q7.47-14.52,16.26-28.63l-45.1-29.39q-10.11,16.08-18.66,32.67Z"/><path class="cls-15" d="M369.23,484c.7-1.14,1.38-2.28,2.09-3.41l-45.1-29.39c-.71,1.13-1.39,2.28-2.09,3.41Z"/><path class="cls-18" d="M351.76,507.44l3.3,1.76q7.47-14.52,16.26-28.63l-3-1.93Q359.51,492.86,351.76,507.44Z"/><path class="cls-13" d="M309.6,480c-.68,1.28-1.38,2.56-2,3.85l47.5,25.35c.66-1.28,1.35-2.57,2-3.85Z"/><path class="cls-18" d="M329.6,453.38l-3.38-2.2q-10.11,16.08-18.66,32.67l3.52,1.88Q319.63,469.34,329.6,453.38Z"/><text class="cls-23" transform="translate(329.1 492.04)">C</text></g><g id="GCA"><path class="cls-21" d="M374.44,477.28q8.83-13.74,18.94-26.94l-42.05-33.58q-11.61,15-21.73,30.71Z"/><path class="cls-15" d="M391,453.54c.8-1.06,1.59-2.14,2.4-3.2l-42.05-33.58c-.82,1.05-1.61,2.13-2.42,3.19Z"/><path class="cls-18" d="M371.33,475.21l3.11,2.07q8.83-13.74,18.94-26.94l-2.75-2.2Q380.44,461.45,371.33,475.21Z"/><path class="cls-13" d="M332,443.84c-.79,1.21-1.61,2.42-2.4,3.63l44.84,29.81c.78-1.22,1.59-2.42,2.39-3.64Z"/><path class="cls-18" d="M354.47,419.27l-3.14-2.51q-11.61,15-21.73,30.71l3.33,2.21Q343,434.19,354.47,419.27Z"/><text class="cls-24" transform="translate(351.83 455.99)">A</text></g><g id="GCG"><path class="cls-12" d="M396.56,447.25q10.19-12.78,21.57-24.88l-38.44-37.68Q366.63,398.48,355,413.06Z"/><path class="cls-15" d="M415.41,425.31c.91-1,1.8-2,2.72-2.94l-38.44-37.68c-.92,1-1.81,2-2.72,2.94Z"/><path class="cls-18" d="M393.67,444.88l2.89,2.37q10.19-12.78,21.57-24.88l-2.51-2.47Q404.13,432.1,393.67,444.88Z"/><path class="cls-13" d="M357.73,409.68c-.92,1.13-1.85,2.24-2.76,3.38l41.59,34.19c.9-1.13,1.83-2.25,2.75-3.38Z"/><path class="cls-14" d="M382.57,387.51l-2.88-2.82Q366.63,398.48,355,413.06l3.08,2.53Q369.68,401.19,382.57,387.51Z"/><text class="cls-23" transform="translate(376.49 425.53)">G</text></g></g><g id="GU_GROUP"><g id="GUU"><path class="cls-17" d="M310.57,686.75c-.14-10.89.14-21.87.93-32.92L257.89,649q-1.39,18.93-1.16,37.6Z"/><path class="cls-15" d="M311.26,657.83c.08-1.34.14-2.66.24-4L257.89,649c-.1,1.33-.17,2.66-.25,4Z"/><path class="cls-15" d="M306.83,686.74h3.74c-.14-10.89.14-21.87.93-32.92l-3.51-.31Q306.84,670.23,306.83,686.74Z"/><path class="cls-13" d="M256.73,682.29c0,1.45,0,2.9,0,4.35l53.84.11c0-1.45,0-2.9,0-4.36Z"/><path class="cls-13" d="M261.9,649.39l-4-.35q-1.39,18.93-1.16,37.6h4Q260.58,668.16,261.9,649.39Z"/><text class="cls-23" transform="translate(274.01 678.86)">U</text></g><g id="GUC"><path class="cls-20" d="M312.42,650.54q1.35-16.27,4.08-32.68L263.6,608q-3.19,18.72-4.76,37.32Z"/><path class="cls-15" d="M315.88,621.82c.21-1.32.4-2.64.62-4L263.6,608c-.23,1.32-.42,2.63-.63,3.95Z"/><path class="cls-15" d="M308.7,650.17l3.72.37q1.35-16.27,4.08-32.68l-3.46-.65Q310.28,633.74,308.7,650.17Z"/><path class="cls-13" d="M259.25,640.93c-.13,1.45-.29,2.89-.41,4.34l53.58,5.27c.12-1.44.27-2.89.41-4.34Z"/><path class="cls-18" d="M267.56,608.69l-4-.74q-3.19,18.72-4.76,37.32l4,.39Q264.44,627.24,267.56,608.69Z"/><text class="cls-23" transform="translate(277.07 640.86)">C</text></g><g id="GUA"><path class="cls-21" d="M318.13,613.63c1.94-10.71,4.32-21.43,7.21-32.13l-51.7-15q-5,18.32-8.33,36.69Z"/><path class="cls-15" d="M324.34,585.38c.33-1.3.65-2.59,1-3.88l-51.7-15c-.36,1.29-.68,2.58-1,3.87Z"/><path class="cls-14" d="M314.46,612.91l3.67.72c1.94-10.71,4.32-21.43,7.21-32.13l-3.39-1Q317.63,596.7,314.46,612.91Z"/><path class="cls-13" d="M266.14,599c-.28,1.43-.57,2.85-.83,4.28l52.82,10.4c.26-1.42.55-2.85.82-4.27Z"/><path class="cls-18" d="M277.5,567.66l-3.86-1.12q-5,18.32-8.33,36.69l3.91.77Q272.63,585.82,277.5,567.66Z"/><text class="cls-24" transform="translate(284.79 600.86)">A</text></g><g id="GUG"><path class="cls-12" d="M327.09,577.43c3-10.47,6.47-20.89,10.42-31.24l-49.92-20.12q-6.81,17.71-12,35.66Z"/><path class="cls-15" d="M336.13,549.94c.46-1.25.91-2.5,1.38-3.75l-49.92-20.12c-.48,1.25-.92,2.5-1.39,3.75Z"/><path class="cls-14" d="M323.52,576.34l3.57,1.09c3-10.47,6.47-20.89,10.42-31.24l-3.26-1.32Q328.29,560.53,323.52,576.34Z"/><path class="cls-13" d="M276.85,557.56c-.42,1.39-.85,2.77-1.26,4.17l51.5,15.7c.4-1.39.83-2.78,1.25-4.17Z"/><path class="cls-18" d="M291.33,527.57l-3.74-1.5q-6.81,17.71-12,35.66l3.82,1.16Q284.63,545.15,291.33,527.57Z"/><text class="cls-23" transform="translate(296.67 563.86)">G</text></g></g></g><g id="A_GROUP_MAIN"><g id="A"><path class="cls-21" d="M688,700.87H458.73C462.45,826.09,563,927,688,931.28Z"/><path class="cls-15" d="M688,931.28V700.87H678V930.71C681.36,931,684.69,931.17,688,931.28Z"/><path class="cls-13" d="M469.25,700.87H458.73C462.45,826.09,563,927,688,931.28V920.71C571,911.78,477.63,818.09,469.25,700.87Z"/><path class="cls-15" d="M688,710.87v-10H458.73c.1,3.36.28,6.69.52,10Z"/><text class="cls-16" transform="translate(556.03 821.46)">A</text></g><g id="A_GROUP"><g id="AU"><path class="cls-17" d="M558.85,1040.64A371.91,371.91,0,0,0,688,1066.71V940.21a245.56,245.56,0,0,1-84.23-17.83Z"/><path class="cls-14" d="M678,1066.35c3.32.16,6.66.29,10,.36V940.21c-3.35-.11-6.68-.3-10-.54Z"/><path class="cls-15" d="M688,949.87v-9.66a245.56,245.56,0,0,1-84.23-17.83l-3.49,9.18A271.37,271.37,0,0,0,688,949.87Z"/><path class="cls-18" d="M614.22,926.32q-5.26-1.86-10.41-3.94l-45,118.26c3.44,1.36,6.92,2.66,10.41,3.93Z"/><path class="cls-13" d="M562.09,1032.11l-3.24,8.53A371.91,371.91,0,0,0,688,1066.71v-9.06A371.61,371.61,0,0,1,562.09,1032.11Z"/><text class="cls-19" transform="translate(607.13 1032.32)">U</text></g><g id="AC"><path class="cls-20" d="M548.16,1036.2l48.7-116.75a247,247,0,0,1-71.69-48.19L437.8,962.67A373.44,373.44,0,0,0,548.16,1036.2Z"/><path class="cls-14" d="M533.11,878.59q-4.05-3.58-7.94-7.33L437.8,962.67c2.59,2.5,5.24,4.94,7.91,7.37Z"/><path class="cls-13" d="M444.66,955.49l-6.86,7.18a373.44,373.44,0,0,0,110.36,73.53l3.76-9A373.77,373.77,0,0,1,444.66,955.49Z"/><path class="cls-14" d="M538.83,1032c3.09,1.44,6.19,2.85,9.33,4.21l48.7-116.75q-4.7-2.07-9.29-4.34Z"/><path class="cls-15" d="M593.07,928.52l3.79-9.07a247,247,0,0,1-71.69-48.19l-7.54,7.88A302.13,302.13,0,0,0,593.07,928.52Z"/><text class="cls-19" transform="translate(496.39 982.09)">C</text></g><g id="AA"><path class="cls-21" d="M429,953.94l90.45-88.38a246.88,246.88,0,0,1-48.41-71.38l-116.21,50A373.79,373.79,0,0,0,429,953.94Z"/><path class="cls-13" d="M364.2,840.13l-9.36,4A373.79,373.79,0,0,0,429,953.94l7.59-7.42A373.76,373.76,0,0,1,364.2,840.13Z"/><path class="cls-18" d="M421.59,946.07c2.44,2.66,4.9,5.29,7.42,7.87l90.45-88.38q-3.76-3.87-7.36-7.91Z"/><path class="cls-15" d="M512.09,872.77l7.37-7.21a246.88,246.88,0,0,1-48.41-71.38l-9.67,4.16A280.55,280.55,0,0,0,512.09,872.77Z"/><path class="cls-15" d="M475.35,803.3c-1.49-3-2.93-6-4.3-9.12l-116.21,50q2,4.62,4.21,9.16Z"/><text class="cls-22" transform="translate(410.49 896.79)">A</text></g><g id="AG"><path class="cls-12" d="M468.19,787.56a245.38,245.38,0,0,1-18.39-86.69H323.32A371.81,371.81,0,0,0,350.52,834Z"/><path class="cls-15" d="M450.3,710.87c-.23-3.31-.41-6.64-.5-10H323.32c.06,3.35.18,6.68.33,10Z"/><path class="cls-15" d="M458.4,791.42l9.79-3.86a245.38,245.38,0,0,1-18.39-86.69H439.39A264.91,264.91,0,0,0,458.4,791.42Z"/><path class="cls-13" d="M333.35,700.87h-10A371.81,371.81,0,0,0,350.52,834l9-3.55A371.51,371.51,0,0,1,333.35,700.87Z"/><path class="cls-13" d="M346.62,823.89c1.26,3.38,2.55,6.74,3.9,10.07l117.67-46.4q-2.06-5-3.89-10.07Z"/><text class="cls-19" transform="translate(362.41 784.04)">G</text></g></g><g id="AG_GROUP"><g id="AGG"><path class="cls-12" d="M311.87,733.13c-1.09-10.84-1.77-21.79-1.95-32.87l-53.82-.09q.27,19,2.13,37.56Z"/><path class="cls-15" d="M310,704.26c0-1.34-.09-2.67-.11-4l-53.82-.09c0,1.33.06,2.66.1,4Z"/><path class="cls-15" d="M308.15,733.45l3.72-.32c-1.09-10.84-1.77-21.79-1.95-32.87h-3.53Q306.71,717,308.15,733.45Z"/><path class="cls-13" d="M257.84,733.39c.13,1.45.25,2.9.39,4.34l53.64-4.6c-.14-1.44-.26-2.89-.39-4.34Z"/><path class="cls-13" d="M260.12,700.17h-4q.27,19,2.13,37.56l4-.34Q260.46,719,260.12,700.17Z"/><text class="cls-23" transform="translate(272.48 728.49)">G</text></g><g id="AGA"><path class="cls-21" d="M317,770.07q-3.29-16-5.28-32.51l-53.55,5.36q2.19,18.87,5.92,37.16Z"/><path class="cls-15" d="M312.27,741.53c-.17-1.32-.35-2.64-.51-4l-53.55,5.36c.15,1.33.34,2.65.5,4Z"/><path class="cls-15" d="M313.36,770.76l3.68-.69q-3.29-16-5.28-32.51l-3.51.35Q310.26,754.55,313.36,770.76Z"/><path class="cls-13" d="M263.31,775.8c.28,1.43.54,2.86.82,4.28l52.91-10c-.29-1.42-.56-2.85-.84-4.28Z"/><path class="cls-13" d="M262.21,742.52l-4,.4q2.19,18.87,5.92,37.16l3.92-.74Q264.45,761.19,262.21,742.52Z"/><text class="cls-24" transform="translate(276.61 768.56)">A</text></g><g id="AGC"><path class="cls-20" d="M325.48,806.45c-3.21-10.41-6-21-8.38-31.85l-52.79,10.49q4,18.57,9.47,36.41Z"/><path class="cls-15" d="M318,778.5c-.3-1.3-.61-2.59-.89-3.9l-52.79,10.49c.28,1.31.59,2.6.88,3.91Z"/><path class="cls-15" d="M321.89,807.49l3.59-1c-3.21-10.41-6-21-8.38-31.85l-3.46.69Q317.24,791.64,321.89,807.49Z"/><path class="cls-13" d="M272.55,817.32c.41,1.4.81,2.8,1.23,4.18l51.7-15c-.43-1.39-.83-2.79-1.24-4.18Z"/><path class="cls-13" d="M268.26,784.31l-3.95.78q4,18.57,9.47,36.41l3.83-1.11Q272.28,802.68,268.26,784.31Z"/><text class="cls-23" transform="translate(285.16 807.92)">C</text></g><g id="AGU"><path class="cls-17" d="M337.24,840.74q-6.28-15.07-11.4-30.89l-51.54,15.5q5.77,18.1,12.93,35.34Z"/><path class="cls-15" d="M327.11,813.64c-.42-1.26-.86-2.52-1.27-3.79l-51.54,15.5c.41,1.28.84,2.54,1.26,3.8Z"/><path class="cls-15" d="M333.77,842.13l3.47-1.39q-6.28-15.07-11.4-30.89l-3.37,1Q327.61,826.79,333.77,842.13Z"/><path class="cls-13" d="M285.6,856.65c.55,1.34,1.07,2.7,1.63,4l50-20c-.56-1.33-1.09-2.69-1.63-4Z"/><path class="cls-13" d="M278.16,824.19l-3.86,1.16q5.77,18.1,12.93,35.34l3.71-1.48Q283.92,842.09,278.16,824.19Z"/><text class="cls-23" transform="translate(296.6 845.11)">U</text></g></g><g id="AA_GROUP"><g id="AAU"><path class="cls-17" d="M419.18,966q-11.65-11.44-22.53-24l-41.43,34.35q12.34,14.43,25.66,27.51Z"/><path class="cls-14" d="M399.29,945c-.88-1-1.77-2-2.64-3l-41.43,34.35c.87,1,1.76,2,2.63,3Z"/><path class="cls-15" d="M416.52,968.66l2.66-2.63q-11.65-11.44-22.53-24l-2.71,2.25Q404.89,956.94,416.52,968.66Z"/><path class="cls-18" d="M377.81,1000.78c1,1,2,2.08,3.07,3.09L419.18,966c-1-1-2.05-2-3.08-3.08Z"/><path class="cls-13" d="M358.32,973.79l-3.1,2.57q12.34,14.43,25.66,27.51l2.84-2.8Q370.6,988,358.32,973.79Z"/><text class="cls-23" transform="translate(377.4 983.3)">U</text></g><g id="AAC"><path class="cls-20" d="M395,939Q384.48,926.51,374.87,913l-44.54,30.22q10.92,15.54,22.91,29.85Z"/><path class="cls-14" d="M377.21,916.2c-.78-1.09-1.57-2.16-2.34-3.25l-44.54,30.22c.77,1.09,1.56,2.17,2.34,3.25Z"/><path class="cls-15" d="M392.09,941.38,395,939Q384.48,926.51,374.87,913l-2.92,2Q381.64,928.6,392.09,941.38Z"/><path class="cls-18" d="M350.48,969.65c.92,1.12,1.83,2.25,2.76,3.37L395,939c-.93-1.11-1.85-2.24-2.77-3.36Z"/><path class="cls-13" d="M333.66,940.91l-3.33,2.26q10.92,15.54,22.91,29.85l3.09-2.52Q344.53,956.27,333.66,940.91Z"/><text class="cls-23" transform="translate(352.01 952.89)">C</text></g><g id="AAA"><path class="cls-21" d="M373.05,908.8q-9.26-13.45-17.52-27.89l-47.24,25.8q9.38,16.51,19.93,31.91Z"/><path class="cls-15" d="M357.55,884.37c-.67-1.15-1.36-2.29-2-3.46l-47.24,25.8c.66,1.16,1.35,2.3,2,3.46Z"/><path class="cls-15" d="M369.94,910.87l3.11-2.07q-9.26-13.45-17.52-27.89l-3.09,1.69Q360.77,897.14,369.94,910.87Z"/><path class="cls-13" d="M325.8,935c.81,1.2,1.6,2.42,2.42,3.62l44.83-29.82c-.82-1.19-1.62-2.41-2.43-3.61Z"/><path class="cls-13" d="M311.83,904.78l-3.54,1.93q9.38,16.51,19.93,31.91l3.32-2.21Q321.16,921.11,311.83,904.78Z"/><text class="cls-24" transform="translate(329.4 918.5)">A</text></g><g id="AAG"><path class="cls-12" d="M353.91,876.79q-7.85-14.34-14.6-29.52L289.7,868.14q7.65,17.39,16.59,33.77Z"/><path class="cls-15" d="M341,850.91c-.55-1.21-1.12-2.42-1.66-3.64L289.7,868.14c.54,1.23,1.1,2.43,1.65,3.65Z"/><path class="cls-15" d="M350.6,878.53l3.31-1.74q-7.85-14.34-14.6-29.52l-3.25,1.37Q342.87,863.94,350.6,878.53Z"/><path class="cls-13" d="M304.25,898.06c.68,1.29,1.35,2.58,2,3.85l47.62-25.12c-.69-1.27-1.37-2.56-2.05-3.84Z"/><path class="cls-13" d="M293.41,866.58l-3.71,1.56q7.65,17.39,16.59,33.77l3.53-1.86Q301,883.78,293.41,866.58Z"/><text class="cls-23" transform="translate(311.18 884.51)">G</text></g></g><g id="AC_GROUP"><g id="ACU"><path class="cls-17" d="M542.46,1049.12q-15.18-6-30.07-13.44l-24.92,47.71q17,8.52,34.3,15.44Z"/><path class="cls-18" d="M516,1037.43c-1.2-.58-2.4-1.15-3.6-1.75l-24.92,47.71c1.19.6,2.4,1.17,3.59,1.76Z"/><path class="cls-15" d="M541,1052.57l1.44-3.45q-15.18-6-30.07-13.44l-1.63,3.13Q525.76,1046.25,541,1052.57Z"/><path class="cls-14" d="M517.75,1097.17c1.34.55,2.68,1.12,4,1.66l20.69-49.71c-1.35-.53-2.69-1.1-4-1.65Z"/><path class="cls-13" d="M489.33,1079.82l-1.86,3.57q17,8.52,34.3,15.44l1.54-3.68Q506.17,1088.21,489.33,1079.82Z"/><text class="cls-23" transform="translate(506.2 1079.91)">U</text></g><g id="ACC"><path class="cls-20" d="M509.7,1033.57q-14.52-7.47-28.63-16.26l-29.39,45.09q16.08,10.11,32.67,18.67Z"/><path class="cls-18" d="M484.48,1019.4c-1.14-.7-2.28-1.38-3.41-2.09l-29.39,45.09c1.13.72,2.28,1.4,3.41,2.1Z"/><path class="cls-15" d="M507.94,1036.87l1.76-3.3q-14.52-7.47-28.63-16.26l-1.93,3Q493.36,1029.13,507.94,1036.87Z"/><path class="cls-14" d="M480.5,1079c1.28.68,2.56,1.37,3.85,2l25.35-47.5c-1.28-.66-2.57-1.35-3.85-2Z"/><path class="cls-13" d="M453.88,1059l-2.2,3.37q16.08,10.11,32.67,18.67l1.88-3.52Q469.84,1069,453.88,1059Z"/><text class="cls-23" transform="translate(470.96 1059.48)">C</text></g><g id="ACA"><path class="cls-21" d="M477.78,1014.19q-13.74-8.84-26.94-18.94l-33.58,42q15,11.61,30.71,21.72Z"/><path class="cls-14" d="M454,997.65c-1.06-.8-2.14-1.59-3.2-2.4l-33.58,42c1.05.82,2.13,1.61,3.19,2.42Z"/><path class="cls-15" d="M475.71,1017.3l2.07-3.11q-13.74-8.84-26.94-18.94l-2.2,2.75Q461.95,1008.19,475.71,1017.3Z"/><path class="cls-18" d="M444.34,1056.62c1.21.8,2.42,1.62,3.63,2.4l29.81-44.83c-1.22-.79-2.42-1.6-3.64-2.4Z"/><path class="cls-13" d="M419.77,1034.16l-2.51,3.14q15,11.61,30.71,21.72l2.21-3.32Q434.69,1045.61,419.77,1034.16Z"/><text class="cls-24" transform="translate(435.63 1036.47)">A</text></g><g id="ACG"><path class="cls-12" d="M447.75,992.07Q435,981.89,422.87,970.5l-37.68,38.43Q399,1022,413.56,1033.65Z"/><path class="cls-14" d="M425.81,973.21c-1-.9-2-1.8-2.94-2.71l-37.68,38.43c1,.92,2,1.82,2.94,2.73Z"/><path class="cls-15" d="M445.38,995l2.37-2.89Q435,981.89,422.87,970.5L420.4,973Q432.6,984.48,445.38,995Z"/><path class="cls-18" d="M410.18,1030.9c1.13.92,2.24,1.85,3.38,2.75l34.19-41.58-3.38-2.75Z"/><path class="cls-13" d="M388,1006.06l-2.82,2.87Q399,1022,413.56,1033.65l2.53-3.08Q401.69,1019,388,1006.06Z"/><text class="cls-23" transform="translate(407.04 1011.69)">G</text></g></g><g id="AU_GROUP"><g id="AUU"><path class="cls-17" d="M687.25,1078.05c-10.89.15-21.87-.13-32.92-.92l-4.79,53.61q18.93,1.38,37.6,1.16Z"/><path class="cls-13" d="M658.33,1077.37c-1.34-.08-2.66-.14-4-.24l-4.79,53.61c1.33.1,2.66.16,4,.25Z"/><path class="cls-15" d="M687.24,1081.79v-3.74c-10.89.15-21.87-.13-32.92-.92l-.31,3.51Q670.73,1081.8,687.24,1081.79Z"/><path class="cls-15" d="M682.79,1131.9h4.35l.11-53.85c-1.45,0-2.9,0-4.36,0Z"/><path class="cls-13" d="M649.89,1126.73l-.35,4q18.93,1.38,37.6,1.16v-4Q668.66,1128,649.89,1126.73Z"/><text class="cls-23" transform="translate(658.72 1115.51)">U</text></g><g id="AUC"><path class="cls-20" d="M651,1076.2q-16.27-1.34-32.68-4.07l-9.91,52.9q18.72,3.2,37.32,4.76Z"/><path class="cls-18" d="M622.32,1072.75c-1.32-.21-2.64-.4-4-.62l-9.91,52.9,3.95.63Z"/><path class="cls-15" d="M650.67,1079.93l.37-3.73q-16.27-1.34-32.68-4.07l-.65,3.46Q634.24,1078.34,650.67,1079.93Z"/><path class="cls-15" d="M641.43,1129.37c1.45.14,2.89.29,4.34.42L651,1076.2c-1.44-.11-2.89-.26-4.34-.4Z"/><path class="cls-13" d="M609.19,1121.07l-.74,4q18.72,3.2,37.32,4.76l.39-4Q627.74,1124.17,609.19,1121.07Z"/><text class="cls-23" transform="translate(620.78 1112.51)">C</text></g><g id="AUA"><path class="cls-21" d="M614.13,1070.49q-16.07-2.9-32.13-7.2L567,1115q18.32,5,36.69,8.33Z"/><path class="cls-18" d="M585.88,1064.29c-1.3-.33-2.59-.65-3.88-1L567,1115c1.29.35,2.58.67,3.87,1Z"/><path class="cls-15" d="M613.41,1074.16l.72-3.67q-16.07-2.9-32.13-7.2l-1,3.39Q597.2,1071,613.41,1074.16Z"/><path class="cls-15" d="M599.45,1122.49c1.43.28,2.85.57,4.28.83l10.4-52.83c-1.42-.25-2.85-.54-4.27-.81Z"/><path class="cls-13" d="M568.16,1111.12,567,1115q18.32,5,36.69,8.33l.77-3.91Q586.32,1116,568.16,1111.12Z"/><text class="cls-24" transform="translate(580.5 1104.51)">A</text></g><g id="AUG"><path class="cls-12" d="M577.93,1061.53c-10.47-3-20.89-6.46-31.24-10.42L526.57,1101q17.71,6.83,35.66,12Z"/><path class="cls-18" d="M550.44,1052.5c-1.25-.46-2.5-.91-3.75-1.39L526.57,1101c1.25.48,2.5.93,3.75,1.4Z"/><path class="cls-15" d="M576.84,1065.11l1.09-3.58c-10.47-3-20.89-6.46-31.24-10.42l-1.32,3.27Q561,1060.32,576.84,1065.11Z"/><path class="cls-14" d="M558.06,1111.78c1.39.42,2.77.85,4.17,1.26l15.7-51.51c-1.39-.4-2.78-.83-4.17-1.24Z"/><path class="cls-13" d="M528.07,1097.3l-1.5,3.73q17.71,6.83,35.66,12l1.16-3.82Q545.65,1104,528.07,1097.3Z"/><text class="cls-23" transform="translate(542.38 1092.51)">G</text></g></g></g><g id="C_GROUP_MAIN"><g id="C"><path class="cls-20" d="M701.37,700.59V929.9c125.22-3.73,226.1-104.25,230.41-229.31Z"/><path class="cls-15" d="M931.78,700.59H701.37v10H931.21C931.47,707.27,931.67,703.94,931.78,700.59Z"/><path class="cls-18" d="M701.37,919.38V929.9c125.22-3.73,226.1-104.25,230.41-229.31H921.21C912.28,817.65,818.59,911,701.37,919.38Z"/><path class="cls-13" d="M711.37,700.59h-10V929.9c3.36-.1,6.69-.28,10-.52Z"/><text class="cls-16" transform="translate(753.82 827.74)">C</text></g><g id="C_GROUP"><g id="CU"><path class="cls-17" d="M1041.14,829.78a372,372,0,0,0,26.07-129.19H940.71a245.56,245.56,0,0,1-17.83,84.23Z"/><path class="cls-15" d="M1066.85,710.59c.16-3.33.29-6.66.36-10H940.71c-.11,3.35-.3,6.68-.54,10Z"/><path class="cls-18" d="M950.37,700.59h-9.66a245.56,245.56,0,0,1-17.83,84.23l9.18,3.49A271.37,271.37,0,0,0,950.37,700.59Z"/><path class="cls-13" d="M926.82,774.41c-1.24,3.5-2.55,7-3.94,10.41l118.26,45c1.36-3.44,2.66-6.92,3.93-10.42Z"/><path class="cls-14" d="M1032.61,826.54l8.53,3.24a372,372,0,0,0,26.07-129.19h-9.06A371.61,371.61,0,0,1,1032.61,826.54Z"/><text class="cls-19" transform="translate(973.04 784.63)">U</text></g><g id="CC"><path class="cls-20" d="M1036.7,840.47,920,791.77a247,247,0,0,1-48.19,71.69l91.41,87.37A373.44,373.44,0,0,0,1036.7,840.47Z"/><path class="cls-13" d="M879.09,855.52q-3.58,4.05-7.33,7.94l91.41,87.37c2.5-2.6,4.94-5.24,7.37-7.91Z"/><path class="cls-14" d="M956,944l7.18,6.87a373.44,373.44,0,0,0,73.53-110.36l-9-3.76A373.58,373.58,0,0,1,956,944Z"/><path class="cls-15" d="M1032.49,849.8q2.16-4.63,4.21-9.33L920,791.77q-2.07,4.69-4.34,9.29Z"/><path class="cls-14" d="M929,795.55,920,791.77a247,247,0,0,1-48.19,71.69l7.88,7.53A302,302,0,0,0,929,795.55Z"/><text class="cls-19" transform="translate(928.97 894.53)">C</text></g><g id="CA"><path class="cls-21" d="M954.44,959.62l-88.38-90.45a246.88,246.88,0,0,1-71.38,48.41l50,116.21A373.79,373.79,0,0,0,954.44,959.62Z"/><path class="cls-13" d="M840.63,1024.43l4,9.36a373.79,373.79,0,0,0,109.79-74.17L947,952A373.73,373.73,0,0,1,840.63,1024.43Z"/><path class="cls-15" d="M946.57,967c2.66-2.44,5.29-4.9,7.87-7.42l-88.38-90.45q-3.87,3.76-7.91,7.36Z"/><path class="cls-14" d="M873.27,876.54l-7.21-7.37a246.88,246.88,0,0,1-71.38,48.41l4.16,9.67A280.79,280.79,0,0,0,873.27,876.54Z"/><path class="cls-13" d="M803.8,913.27c-3,1.5-6,2.94-9.12,4.31l50,116.21q4.62-2,9.16-4.21Z"/><text class="cls-22" transform="translate(843.92 973.69)">A</text></g><g id="CG"><path class="cls-12" d="M788.06,920.44a245.82,245.82,0,0,1-86.69,18.39v126.48a371.81,371.81,0,0,0,133.09-27.2Z"/><path class="cls-13" d="M711.37,938.33c-3.31.23-6.64.41-10,.5v126.48c3.35-.06,6.68-.18,10-.33Z"/><path class="cls-15" d="M791.92,930.22l-3.86-9.78a245.82,245.82,0,0,1-86.69,18.39v10.41A264.92,264.92,0,0,0,791.92,930.22Z"/><path class="cls-13" d="M701.37,1055.28v10a371.81,371.81,0,0,0,133.09-27.2l-3.55-9A372,372,0,0,1,701.37,1055.28Z"/><path class="cls-15" d="M824.39,1042q5.07-1.87,10.07-3.89l-46.4-117.67q-5,2-10.07,3.89Z"/><text class="cls-19" transform="translate(726.84 1024.43)">G</text></g></g><g id="CG_GROUP"><g id="CGG"><path class="cls-12" d="M733.63,1076.75c-10.84,1.1-21.8,1.78-32.87,2l-.09,53.82q19-.27,37.56-2.13Z"/><path class="cls-13" d="M704.76,1078.6c-1.34,0-2.67.09-4,.11l-.09,53.82c1.33,0,2.66-.07,4-.1Z"/><path class="cls-15" d="M734,1080.48l-.32-3.73c-10.84,1.1-21.8,1.78-32.87,2v3.52Q717.49,1081.92,734,1080.48Z"/><path class="cls-15" d="M733.89,1130.78c1.45-.13,2.9-.24,4.34-.38l-4.6-53.65c-1.44.15-2.89.27-4.34.4Z"/><path class="cls-13" d="M700.67,1128.51v4q19-.27,37.56-2.13l-.34-4Q719.47,1128.17,700.67,1128.51Z"/><text class="cls-23" transform="translate(707.93 1115.78)">G</text></g><g id="CGA"><path class="cls-21" d="M770.57,1071.59q-16,3.29-32.51,5.28l5.36,53.55q18.87-2.19,37.16-5.93Z"/><path class="cls-13" d="M742,1076.35c-1.32.17-2.64.36-4,.52l5.36,53.55c1.33-.15,2.65-.34,4-.5Z"/><path class="cls-15" d="M771.26,1075.26l-.69-3.67q-16,3.29-32.51,5.28l.35,3.5Q755,1078.36,771.26,1075.26Z"/><path class="cls-15" d="M776.3,1125.32c1.43-.28,2.86-.54,4.28-.83l-10-52.9c-1.42.29-2.85.56-4.28.83Z"/><path class="cls-13" d="M743,1126.42l.4,4q18.87-2.19,37.16-5.93l-.75-3.92Q761.7,1124.19,743,1126.42Z"/><text class="cls-24" transform="translate(748.12 1111.78)">A</text></g><g id="CGC"><path class="cls-20" d="M807,1063.15q-15.62,4.81-31.85,8.38l10.49,52.79q18.57-4,36.41-9.48Z"/><path class="cls-13" d="M779,1070.64c-1.3.29-2.59.61-3.9.89l10.49,52.79c1.31-.28,2.6-.59,3.91-.89Z"/><path class="cls-15" d="M808,1066.74l-1-3.59q-15.62,4.81-31.85,8.38l.69,3.46Q792.14,1071.39,808,1066.74Z"/><path class="cls-15" d="M817.82,1116.07c1.4-.41,2.8-.8,4.18-1.23l-15-51.69c-1.39.43-2.79.83-4.18,1.24Z"/><path class="cls-13" d="M784.81,1120.37l.78,4q18.57-4,36.41-9.48l-1.11-3.83Q803.18,1116.35,784.81,1120.37Z"/><text class="cls-23" transform="translate(787.76 1103.51)">C</text></g><g id="CGU"><path class="cls-17" d="M841.24,1051.39q-15.07,6.28-30.89,11.39l15.5,51.54q18.1-5.76,35.34-12.92Z"/><path class="cls-13" d="M814.14,1061.52c-1.26.42-2.52.86-3.79,1.26l15.5,51.54c1.28-.4,2.54-.84,3.8-1.25Z"/><path class="cls-15" d="M842.63,1054.86l-1.39-3.47q-15.07,6.28-30.89,11.39l1,3.38Q827.29,1061,842.63,1054.86Z"/><path class="cls-15" d="M857.15,1103c1.34-.54,2.7-1.07,4-1.62l-20-50-4,1.63Z"/><path class="cls-13" d="M824.69,1110.47l1.16,3.85q18.1-5.76,35.34-12.92l-1.48-3.71Q842.59,1104.71,824.69,1110.47Z"/><text class="cls-23" transform="translate(823.9 1093)">U</text></g></g><g id="CA_GROUP"><g id="CAU"><path class="cls-17" d="M966.53,969.45q-11.44,11.65-24,22.53l34.35,41.43q14.43-12.35,27.51-25.66Z"/><path class="cls-13" d="M945.52,989.33c-1,.88-2,1.78-3,2.65l34.35,41.43c1-.87,2-1.76,3-2.64Z"/><path class="cls-14" d="M969.16,972.11l-2.63-2.66q-11.44,11.65-24,22.53l2.25,2.71Q957.44,983.74,969.16,972.11Z"/><path class="cls-15" d="M1001.28,1010.82c1-1,2.08-2,3.09-3.07l-37.84-38.3c-1,1-2,2-3.08,3.08Z"/><path class="cls-13" d="M974.29,1030.31l2.57,3.1q14.43-12.35,27.51-25.66l-2.8-2.84Q988.54,1018,974.29,1030.31Z"/><text class="cls-23" transform="translate(962.09 1012.2)">U</text></g><g id="CAC"><path class="cls-20" d="M939.52,993.64q-12.51,10.5-26.07,20.12l30.22,44.53q15.54-10.9,29.85-22.9Z"/><path class="cls-13" d="M916.7,1011.41c-1.09.79-2.16,1.58-3.25,2.35l30.22,44.53c1.09-.76,2.17-1.55,3.25-2.33Z"/><path class="cls-14" d="M941.88,996.54l-2.36-2.9q-12.51,10.5-26.07,20.12l2,2.91Q929.1,1007,941.88,996.54Z"/><path class="cls-15" d="M970.15,1038.15c1.12-.92,2.25-1.83,3.37-2.76l-34-41.75c-1.11.93-2.24,1.84-3.36,2.77Z"/><path class="cls-13" d="M941.41,1055l2.26,3.33q15.54-10.9,29.85-22.9L971,1032.3Q956.77,1044.11,941.41,1055Z"/><text class="cls-23" transform="translate(932.74 1035.65)">C</text></g><g id="CAA"><path class="cls-21" d="M909.3,1015.58q-13.45,9.25-27.89,17.52l25.8,47.23q16.51-9.36,31.91-19.92Z"/><path class="cls-13" d="M884.87,1031.07c-1.15.68-2.29,1.36-3.46,2l25.8,47.23c1.16-.66,2.3-1.34,3.46-2Z"/><path class="cls-15" d="M911.37,1018.69l-2.07-3.11q-13.45,9.25-27.89,17.52l1.69,3.09Q897.64,1027.87,911.37,1018.69Z"/><path class="cls-15" d="M935.5,1062.83c1.2-.81,2.42-1.6,3.62-2.42l-29.82-44.83c-1.19.82-2.41,1.62-3.61,2.43Z"/><path class="cls-13" d="M905.28,1076.8l1.93,3.53q16.51-9.36,31.91-19.92l-2.21-3.32Q921.61,1067.47,905.28,1076.8Z"/><text class="cls-24" transform="translate(901.06 1056.98)">A</text></g><g id="CAG"><path class="cls-12" d="M877.29,1034.72q-14.34,7.85-29.52,14.6l20.87,49.61q17.39-7.65,33.77-16.6Z"/><path class="cls-13" d="M851.41,1047.66c-1.21.55-2.42,1.12-3.64,1.66l20.87,49.61c1.23-.54,2.43-1.11,3.65-1.65Z"/><path class="cls-15" d="M879,1038l-1.74-3.3q-14.34,7.85-29.52,14.6l1.37,3.25Q864.44,1045.76,879,1038Z"/><path class="cls-15" d="M898.56,1084.38c1.29-.68,2.58-1.35,3.85-2.05l-25.12-47.61c-1.27.69-2.56,1.36-3.84,2Z"/><path class="cls-13" d="M867.08,1095.22l1.56,3.71q17.39-7.65,33.77-16.6l-1.86-3.52Q884.28,1087.59,867.08,1095.22Z"/><text class="cls-23" transform="translate(863.95 1076.08)">G</text></g></g><g id="CC_GROUP"><g id="CCU"><path class="cls-17" d="M1049.62,846.17q-6,15.18-13.44,30.07l47.71,24.92q8.52-17,15.44-34.31Z"/><path class="cls-13" d="M1037.93,872.64c-.58,1.2-1.15,2.4-1.75,3.6l47.71,24.92c.6-1.2,1.17-2.4,1.76-3.6Z"/><path class="cls-18" d="M1053.07,847.61l-3.45-1.44q-6,15.18-13.44,30.07l3.13,1.63Q1046.75,862.87,1053.07,847.61Z"/><path class="cls-15" d="M1097.67,870.88c.55-1.34,1.12-2.68,1.66-4l-49.71-20.68c-.53,1.35-1.1,2.69-1.65,4Z"/><path class="cls-18" d="M1080.32,899.29l3.57,1.87q8.52-17,15.44-34.31l-3.68-1.53Q1088.71,882.46,1080.32,899.29Z"/><text class="cls-23" transform="translate(1057.7 884.41)">U</text></g><g id="CCC"><path class="cls-20" d="M1034.07,878.92q-7.47,14.54-16.26,28.64l45.09,29.38q10.11-16.07,18.67-32.66Z"/><path class="cls-13" d="M1019.9,904.15c-.7,1.13-1.38,2.28-2.09,3.41l45.09,29.38c.72-1.13,1.4-2.27,2.1-3.41Z"/><path class="cls-18" d="M1037.37,880.68l-3.3-1.76q-7.47,14.54-16.26,28.64l3,1.92Q1029.63,895.28,1037.37,880.68Z"/><path class="cls-15" d="M1079.53,908.13c.68-1.29,1.37-2.56,2-3.85l-47.5-25.36c-.66,1.29-1.35,2.57-2,3.86Z"/><path class="cls-18" d="M1059.53,934.75l3.37,2.19q10.11-16.07,18.67-32.66l-3.52-1.88Q1069.48,918.8,1059.53,934.75Z"/><text class="cls-23" transform="translate(1039.33 917.7)">C</text></g><g id="CCA"><path class="cls-21" d="M1014.69,910.85q-8.84,13.74-18.94,26.94l42,33.58q11.61-15,21.72-30.72Z"/><path class="cls-13" d="M998.15,934.59c-.8,1.06-1.59,2.14-2.4,3.2l42,33.58c.82-1.06,1.61-2.13,2.42-3.19Z"/><path class="cls-14" d="M1017.8,912.92l-3.11-2.07q-8.84,13.74-18.94,26.94L998.5,940Q1008.69,926.69,1017.8,912.92Z"/><path class="cls-15" d="M1057.12,944.29c.8-1.21,1.62-2.42,2.4-3.64l-44.83-29.8c-.79,1.21-1.6,2.42-2.4,3.63Z"/><path class="cls-18" d="M1034.66,968.86l3.14,2.51q11.61-15,21.72-30.72l-3.32-2.21Q1046.11,954,1034.66,968.86Z"/><text class="cls-24" transform="translate(1020.03 950.75)">A</text></g><g id="CCG"><path class="cls-12" d="M992.57,940.88Q982.39,953.65,971,965.76l38.43,37.67q13.08-13.77,24.72-28.36Z"/><path class="cls-13" d="M973.71,962.82c-.9,1-1.8,2-2.71,2.94l38.43,37.67c.92-1,1.82-1.95,2.73-2.93Z"/><path class="cls-14" d="M995.46,943.25l-2.89-2.37Q982.39,953.65,971,965.76l2.51,2.47Q985,956,995.46,943.25Z"/><path class="cls-15" d="M1031.4,978.44c.92-1.12,1.85-2.24,2.75-3.37l-41.58-34.19q-1.37,1.7-2.75,3.37Z"/><path class="cls-18" d="M1006.56,1000.62l2.87,2.81q13.08-13.77,24.72-28.36l-3.08-2.53Q1019.46,986.94,1006.56,1000.62Z"/><text class="cls-23" transform="translate(991.13 981.22)">G</text></g></g><g id="CU_GROUP"><g id="CUU"><path class="cls-17" d="M1078.55,701.38c.15,10.89-.13,21.86-.92,32.92l53.61,4.79q1.38-18.93,1.16-37.6Z"/><path class="cls-13" d="M1077.87,730.3c-.08,1.33-.14,2.66-.24,4l53.61,4.79c.1-1.33.16-2.66.25-4Z"/><path class="cls-13" d="M1082.29,701.39h-3.74c.15,10.89-.13,21.86-.92,32.92l3.51.31Q1082.3,717.9,1082.29,701.39Z"/><path class="cls-15" d="M1132.4,705.84c0-1.45,0-2.9,0-4.35l-53.85-.11c0,1.45,0,2.9,0,4.35Z"/><path class="cls-14" d="M1127.23,738.73l4,.36q1.38-18.93,1.16-37.6h-4Q1128.55,720,1127.23,738.73Z"/><text class="cls-23" transform="translate(1094.29 729.88)">U</text></g><g id="CUC"><path class="cls-20" d="M1076.7,737.59q-1.34,16.27-4.07,32.68l52.9,9.91q3.2-18.72,4.76-37.32Z"/><path class="cls-13" d="M1073.25,766.31c-.21,1.32-.4,2.64-.62,4l52.9,9.91c.22-1.32.42-2.63.63-3.95Z"/><path class="cls-18" d="M1080.43,738l-3.73-.36q-1.34,16.27-4.07,32.68l3.46.64Q1078.84,754.4,1080.43,738Z"/><path class="cls-15" d="M1129.87,747.2c.14-1.45.29-2.9.42-4.34l-53.59-5.27c-.11,1.44-.26,2.89-.4,4.33Z"/><path class="cls-14" d="M1121.57,779.44l4,.74q3.2-18.72,4.76-37.32l-4-.39Q1124.67,760.89,1121.57,779.44Z"/><text class="cls-23" transform="translate(1091.35 768.88)">C</text></g><g id="CUA"><path class="cls-21" d="M1071,774.49q-2.9,16.08-7.2,32.14l51.7,15q5-18.33,8.33-36.69Z"/><path class="cls-13" d="M1064.79,802.75c-.33,1.29-.65,2.59-1,3.88l51.7,15c.35-1.29.67-2.58,1-3.88Z"/><path class="cls-18" d="M1074.66,775.22l-3.67-.73q-2.9,16.08-7.2,32.14l3.39,1Q1071.5,791.43,1074.66,775.22Z"/><path class="cls-15" d="M1123,789.17c.28-1.42.57-2.85.83-4.27L1071,774.49c-.25,1.43-.54,2.86-.81,4.28Z"/><path class="cls-14" d="M1111.62,820.47l3.87,1.12q5-18.33,8.33-36.69l-3.91-.77Q1116.51,802.31,1111.62,820.47Z"/><text class="cls-24" transform="translate(1084.07 806.88)">A</text></g><g id="CUG"><path class="cls-12" d="M1062,810.7c-3,10.46-6.46,20.89-10.42,31.24l49.92,20.12q6.83-17.73,12-35.66Z"/><path class="cls-13" d="M1053,838.18c-.46,1.26-.91,2.51-1.39,3.76l49.92,20.12c.48-1.25.93-2.5,1.4-3.75Z"/><path class="cls-18" d="M1065.61,811.79,1062,810.7c-3,10.46-6.46,20.89-10.42,31.24l3.27,1.32Q1060.82,827.6,1065.61,811.79Z"/><path class="cls-15" d="M1112.28,830.57c.42-1.39.85-2.78,1.26-4.17L1062,810.7c-.4,1.39-.83,2.78-1.24,4.17Z"/><path class="cls-14" d="M1097.8,860.55l3.73,1.51q6.83-17.73,12-35.66l-3.82-1.16Q1104.49,843,1097.8,860.55Z"/><text class="cls-23" transform="translate(1070.95 845.88)">G</text></g></g></g><g id="U_GROUP_MAIN"><g id="U"><path class="cls-17" d="M701.09,687.25H930.4C926.67,562,826.15,461.16,701.09,456.85Z"/><path class="cls-13" d="M701.09,456.85v230.4h10V457.41C707.77,457.16,704.44,457,701.09,456.85Z"/><path class="cls-15" d="M919.88,687.25H930.4C926.67,562,826.15,461.16,701.09,456.85v10.56C818.15,476.35,911.5,570,919.88,687.25Z"/><path class="cls-13" d="M701.09,677.25v10H930.4c-.1-3.35-.28-6.68-.52-10Z"/><text class="cls-16" transform="translate(759.9 630.97)">U</text></g><g id="U_GROUP"><g id="UU"><path class="cls-17" d="M830.28,347.49a371.73,371.73,0,0,0-129.19-26.08v126.5a245.8,245.8,0,0,1,84.23,17.84Z"/><path class="cls-13" d="M711.09,321.78c-3.33-.16-6.66-.29-10-.37v126.5q5,.18,10,.55Z"/><path class="cls-13" d="M701.09,438.26v9.65a245.8,245.8,0,0,1,84.23,17.84l3.49-9.18A271.37,271.37,0,0,0,701.09,438.26Z"/><path class="cls-18" d="M774.91,461.81c3.5,1.24,7,2.55,10.41,3.94l45-118.26c-3.44-1.37-6.92-2.66-10.42-3.93Z"/><path class="cls-15" d="M827,356l3.24-8.52a371.73,371.73,0,0,0-129.19-26.08v9.07A371.84,371.84,0,0,1,827,356Z"/><text class="cls-19" transform="translate(725.42 420.64)">U</text></g><g id="UC"><path class="cls-20" d="M841,351.92l-48.7,116.76A247,247,0,0,1,864,516.87l87.37-91.42A373.83,373.83,0,0,0,841,351.92Z"/><path class="cls-18" d="M856,509.54q4.05,3.57,7.94,7.33l87.37-91.42q-3.9-3.74-7.91-7.36Z"/><path class="cls-15" d="M944.46,432.64l6.87-7.19A373.83,373.83,0,0,0,841,351.92l-3.76,9A373.38,373.38,0,0,1,944.46,432.64Z"/><path class="cls-14" d="M850.3,356.14c-3.09-1.44-6.2-2.86-9.33-4.22l-48.7,116.76q4.69,2.07,9.29,4.34Z"/><path class="cls-13" d="M796.05,459.61l-3.78,9.07A247,247,0,0,1,864,516.87l7.53-7.88A301.77,301.77,0,0,0,796.05,459.61Z"/><text class="cls-19" transform="translate(835.47 466.87)">C</text></g><g id="UA"><path class="cls-21" d="M960.12,434.19l-90.45,88.38a247,247,0,0,1,48.41,71.37l116.2-50A373.52,373.52,0,0,0,960.12,434.19Z"/><path class="cls-15" d="M1024.93,548l9.35-4a373.52,373.52,0,0,0-74.16-109.78l-7.6,7.42A373.45,373.45,0,0,1,1024.93,548Z"/><path class="cls-15" d="M967.54,442.05c-2.44-2.65-4.9-5.28-7.42-7.86l-90.45,88.38q3.76,3.87,7.36,7.91Z"/><path class="cls-13" d="M877,515.36l-7.37,7.21a247,247,0,0,1,48.41,71.37l9.67-4.15A280.63,280.63,0,0,0,877,515.36Z"/><path class="cls-13" d="M913.77,584.83q2.25,4.5,4.31,9.11l116.2-50c-1.35-3.08-2.76-6.12-4.2-9.16Z"/><text class="cls-22" transform="translate(920.89 542.18)">A</text></g><g id="UG"><path class="cls-12" d="M920.94,600.57a245.81,245.81,0,0,1,18.39,86.68h126.48a371.8,371.8,0,0,0-27.2-133.08Z"/><path class="cls-13" d="M938.83,677.25c.23,3.32.41,6.65.5,10h126.48c-.06-3.34-.18-6.67-.33-10Z"/><path class="cls-13" d="M930.72,596.71l-9.78,3.86a245.81,245.81,0,0,1,18.39,86.68h10.41A264.91,264.91,0,0,0,930.72,596.71Z"/><path class="cls-14" d="M1055.78,687.25h10a371.8,371.8,0,0,0-27.2-133.08l-9,3.55A371.9,371.9,0,0,1,1055.78,687.25Z"/><path class="cls-15" d="M1042.5,564.24q-1.87-5.07-3.89-10.07l-117.67,46.4q2,5,3.89,10.07Z"/><text class="cls-19" transform="translate(968.3 661.92)">G</text></g></g><g id="UG_GROUP"><g id="UGG"><path class="cls-12" d="M1077.25,655c1.1,10.83,1.78,21.79,2,32.87L1133,688q-.27-19-2.13-37.56Z"/><path class="cls-13" d="M1079.1,683.87c0,1.33.09,2.66.11,4L1133,688c0-1.34-.07-2.67-.1-4Z"/><path class="cls-13" d="M1081,654.68l-3.73.32c1.1,10.83,1.78,21.79,2,32.87h3.52Q1082.42,671.13,1081,654.68Z"/><path class="cls-15" d="M1131.28,654.74c-.13-1.45-.24-2.9-.38-4.34l-53.65,4.6c.15,1.44.27,2.89.4,4.34Z"/><path class="cls-14" d="M1129,688h4q-.27-19-2.13-37.56l-4,.34Q1128.67,669.15,1129,688Z"/><text class="cls-23" transform="translate(1095.29 681.25)">G</text></g><g id="UGA"><path class="cls-21" d="M1072.09,618.06q3.29,16,5.28,32.51l53.55-5.37q-2.19-18.86-5.93-37.15Z"/><path class="cls-13" d="M1076.85,646.6c.17,1.32.36,2.64.52,4l53.55-5.37c-.15-1.33-.34-2.64-.5-4Z"/><path class="cls-13" d="M1075.76,617.36l-3.67.7q3.29,16,5.28,32.51l3.5-.36Q1078.86,633.59,1075.76,617.36Z"/><path class="cls-15" d="M1125.82,612.33c-.28-1.43-.54-2.86-.83-4.28l-52.9,10c.29,1.42.56,2.85.83,4.27Z"/><path class="cls-15" d="M1126.92,645.6l4-.4q-2.19-18.86-5.93-37.15l-3.92.74Q1124.69,626.94,1126.92,645.6Z"/><text class="cls-24" transform="translate(1091.41 641.19)">A</text></g><g id="UGC"><path class="cls-20" d="M1063.65,581.68q4.81,15.62,8.38,31.85L1124.82,603q-4-18.57-9.48-36.41Z"/><path class="cls-13" d="M1071.14,609.63c.29,1.3.61,2.59.89,3.9L1124.82,603c-.28-1.31-.59-2.61-.89-3.91Z"/><path class="cls-13" d="M1067.24,580.63l-3.59,1q4.81,15.62,8.38,31.85l3.46-.69Q1071.89,596.49,1067.24,580.63Z"/><path class="cls-15" d="M1116.57,570.8c-.41-1.39-.8-2.79-1.23-4.17l-51.69,15c.43,1.38.83,2.78,1.24,4.17Z"/><path class="cls-15" d="M1120.87,603.82l4-.78q-4-18.57-9.48-36.41l-3.83,1.11Q1116.85,585.45,1120.87,603.82Z"/><text class="cls-23" transform="translate(1083.42 601.82)">C</text></g><g id="UGU"><path class="cls-17" d="M1051.89,547.38q6.28,15.09,11.39,30.9l51.54-15.51q-5.76-18.09-12.92-35.33Z"/><path class="cls-13" d="M1062,574.48c.42,1.27.86,2.53,1.26,3.8l51.54-15.51c-.4-1.27-.84-2.53-1.25-3.8Z"/><path class="cls-13" d="M1055.36,546l-3.47,1.38q6.28,15.09,11.39,30.9l3.38-1Q1061.5,561.33,1055.36,546Z"/><path class="cls-15" d="M1103.52,531.48c-.54-1.34-1.07-2.7-1.62-4l-50,19.94c.55,1.34,1.09,2.7,1.63,4Z"/><path class="cls-15" d="M1111,563.93l3.85-1.16q-5.76-18.09-12.92-35.33l-3.71,1.48Q1105.21,546,1111,563.93Z"/><text class="cls-23" transform="translate(1072.86 565.63)">U</text></g></g><g id="UA_GROUP"><g id="UAU"><path class="cls-17" d="M970,422.1q11.65,11.43,22.53,24l41.43-34.35q-12.36-14.43-25.66-27.52Z"/><path class="cls-13" d="M989.83,443.11c.88,1,1.77,2,2.65,3l41.43-34.35c-.87-1-1.76-2-2.64-3Z"/><path class="cls-13" d="M972.61,419.47,970,422.1q11.65,11.43,22.53,24l2.71-2.25Q984.24,431.2,972.61,419.47Z"/><path class="cls-15" d="M1011.32,387.34c-1-1-2-2.07-3.07-3.09L970,422.1c1,1,2,2,3.08,3.08Z"/><path class="cls-15" d="M1030.81,414.34l3.1-2.57q-12.36-14.43-25.66-27.52l-2.84,2.81Q1018.54,400.1,1030.81,414.34Z"/><text class="cls-23" transform="translate(992.06 427.44)">U</text></g><g id="UAC"><path class="cls-20" d="M994.14,449.11q10.5,12.5,20.12,26.07L1058.79,445q-10.9-15.54-22.9-29.85Z"/><path class="cls-13" d="M1011.91,471.93c.78,1.08,1.58,2.15,2.35,3.25L1058.79,445c-.76-1.1-1.55-2.17-2.33-3.25Z"/><path class="cls-13" d="M997,446.74l-2.9,2.37q10.5,12.5,20.12,26.07l2.91-2Q1007.5,459.54,997,446.74Z"/><path class="cls-15" d="M1038.65,418.48c-.92-1.12-1.83-2.26-2.76-3.37l-41.75,34c.93,1.1,1.84,2.24,2.77,3.36Z"/><path class="cls-15" d="M1055.46,447.22l3.33-2.26q-10.9-15.54-22.9-29.85l-3.09,2.52Q1044.61,431.87,1055.46,447.22Z"/><text class="cls-23" transform="translate(1015.57 456.85)">C</text></g><g id="UAA"><path class="cls-21" d="M1016.08,479.33q9.25,13.46,17.52,27.88l47.23-25.79q-9.36-16.51-19.92-31.91Z"/><path class="cls-13" d="M1031.57,503.76c.68,1.15,1.36,2.29,2,3.45l47.23-25.79c-.66-1.16-1.34-2.3-2-3.46Z"/><path class="cls-13" d="M1019.19,477.26l-3.11,2.07q9.25,13.46,17.52,27.88l3.09-1.68Q1028.37,491,1019.19,477.26Z"/><path class="cls-15" d="M1063.33,453.13c-.81-1.21-1.6-2.42-2.42-3.62l-44.83,29.82c.82,1.19,1.62,2.41,2.43,3.61Z"/><path class="cls-15" d="M1077.3,483.35l3.53-1.93q-9.36-16.51-19.92-31.91l-3.33,2.21Q1068,467,1077.3,483.35Z"/><text class="cls-24" transform="translate(1036.62 488.24)">A</text></g><g id="UAG"><path class="cls-12" d="M1035.22,511.34q7.85,14.32,14.6,29.52L1099.43,520q-7.65-17.37-16.6-33.76Z"/><path class="cls-13" d="M1048.16,537.21c.55,1.22,1.12,2.42,1.66,3.65L1099.43,520c-.54-1.22-1.11-2.43-1.65-3.64Z"/><path class="cls-13" d="M1038.52,509.6l-3.3,1.74q7.85,14.32,14.6,29.52l3.25-1.37Q1046.26,524.19,1038.52,509.6Z"/><path class="cls-15" d="M1084.88,490.06c-.68-1.28-1.35-2.57-2.05-3.84l-47.61,25.12c.69,1.27,1.36,2.56,2,3.84Z"/><path class="cls-15" d="M1095.72,521.54l3.71-1.56q-7.65-17.37-16.6-33.76l-3.52,1.86Q1088.09,504.36,1095.72,521.54Z"/><text class="cls-23" transform="translate(1055.59 525.23)">G</text></g></g><g id="UC_GROUP"><g id="UCU"><path class="cls-17" d="M846.67,339q15.18,6,30.07,13.43l24.92-47.7q-17-8.52-34.31-15.44Z"/><path class="cls-18" d="M873.14,350.69l3.6,1.75,24.92-47.7c-1.2-.6-2.4-1.17-3.6-1.76Z"/><path class="cls-13" d="M848.11,335.55,846.67,339q15.18,6,30.07,13.43l1.63-3.12Q863.37,341.87,848.11,335.55Z"/><path class="cls-18" d="M871.38,291c-1.34-.56-2.68-1.13-4-1.66L846.67,339c1.35.53,2.69,1.1,4,1.65Z"/><path class="cls-25" d="M899.79,308.31l1.87-3.57q-17-8.52-34.31-15.44L865.82,293Q883,299.93,899.79,308.31Z"/><text class="cls-23" transform="translate(863.26 331.82)">U</text></g><g id="UCC"><path class="cls-20" d="M879.42,354.56Q894,362,908.06,370.82l29.38-45.1q-16.07-10.11-32.66-18.66Z"/><path class="cls-18" d="M904.65,368.73c1.13.7,2.28,1.38,3.41,2.09l29.38-45.1c-1.13-.71-2.27-1.39-3.41-2.09Z"/><path class="cls-13" d="M881.18,351.26l-1.76,3.3Q894,362,908.06,370.82l1.92-3Q895.78,359,881.18,351.26Z"/><path class="cls-14" d="M908.63,309.1c-1.29-.68-2.56-1.38-3.85-2l-25.36,47.5c1.29.66,2.57,1.35,3.86,2Z"/><path class="cls-15" d="M935.25,329.1l2.19-3.38q-16.07-10.11-32.66-18.66l-1.88,3.52Q919.3,319.13,935.25,329.1Z"/><text class="cls-23" transform="translate(897.62 350.26)">C</text></g><g id="UCA"><path class="cls-21" d="M911.34,373.94q13.75,8.83,26.95,18.94l33.58-42.05q-15-11.61-30.72-21.73Z"/><path class="cls-18" d="M935.09,390.48c1.06.8,2.14,1.59,3.2,2.4l33.58-42.05c-1.06-.82-2.13-1.61-3.19-2.42Z"/><path class="cls-13" d="M913.42,370.83l-2.08,3.11q13.75,8.83,26.95,18.94l2.19-2.75Q927.19,379.94,913.42,370.83Z"/><path class="cls-14" d="M944.79,331.5c-1.22-.79-2.42-1.61-3.64-2.4l-29.81,44.84c1.22.78,2.43,1.59,3.64,2.39Z"/><path class="cls-15" d="M969.36,354l2.51-3.14q-15-11.61-30.72-21.73l-2.21,3.33Q954.45,342.53,969.36,354Z"/><text class="cls-24" transform="translate(930.39 369.27)">A</text></g><g id="UCG"><path class="cls-12" d="M941.38,396.06q12.76,10.19,24.88,21.57l37.67-38.44q-13.77-13.06-28.36-24.72Z"/><path class="cls-18" d="M963.32,414.91c1,.91,2,1.8,2.94,2.72l37.67-38.44c-1-.92-1.95-1.81-2.93-2.72Z"/><path class="cls-13" d="M943.75,393.17l-2.37,2.89q12.76,10.19,24.88,21.57l2.46-2.51Q956.53,403.63,943.75,393.17Z"/><path class="cls-14" d="M978.94,357.23c-1.12-.92-2.24-1.85-3.37-2.76l-34.19,41.59c1.13.9,2.25,1.83,3.37,2.75Z"/><path class="cls-15" d="M1001.11,382.07l2.82-2.88q-13.77-13.06-28.36-24.72L973,357.55Q987.44,369.18,1001.11,382.07Z"/><text class="cls-23" transform="translate(960.73 398.05)">G</text></g></g><g id="UU_GROUP"><g id="UUU"><path class="cls-17" d="M701.88,310.07c10.89-.14,21.86.14,32.92.93l4.79-53.61q-18.93-1.4-37.6-1.16Z"/><path class="cls-14" d="M730.8,310.76c1.33.08,2.66.14,4,.24l4.79-53.61c-1.33-.1-2.66-.17-4-.25Z"/><path class="cls-13" d="M701.89,306.33v3.74c10.89-.14,21.86.14,32.92.93l.31-3.51Q718.4,306.34,701.89,306.33Z"/><path class="cls-13" d="M706.34,256.23H702l-.11,53.84c1.45,0,2.9,0,4.35,0Z"/><path class="cls-15" d="M739.23,261.4l.36-4q-18.93-1.4-37.6-1.16v4Q720.47,260.08,739.23,261.4Z"/><text class="cls-23" transform="translate(710.74 295.23)">U</text></g><g id="UUC"><path class="cls-20" d="M738.09,311.92q16.27,1.35,32.68,4.08l9.91-52.9q-18.72-3.19-37.32-4.76Z"/><path class="cls-14" d="M766.81,315.38c1.32.21,2.64.4,4,.62l9.91-52.9c-1.32-.23-2.63-.42-3.95-.63Z"/><path class="cls-13" d="M738.45,308.2l-.36,3.72q16.27,1.35,32.68,4.08l.64-3.46Q754.9,309.78,738.45,308.2Z"/><path class="cls-18" d="M747.7,258.75c-1.45-.13-2.9-.29-4.34-.41l-5.27,53.58c1.44.12,2.89.27,4.33.41Z"/><path class="cls-15" d="M779.94,267.06l.74-4q-18.72-3.19-37.32-4.76l-.39,4Q761.39,263.94,779.94,267.06Z"/><text class="cls-23" transform="translate(748.8 298.23)">C</text></g><g id="UUA"><path class="cls-21" d="M775,317.63c10.72,1.94,21.44,4.32,32.14,7.21l15-51.7q-18.33-5-36.69-8.33Z"/><path class="cls-14" d="M803.25,323.84c1.29.33,2.59.65,3.88,1l15-51.7c-1.29-.36-2.58-.68-3.88-1Z"/><path class="cls-13" d="M775.72,314l-.73,3.67c10.72,1.94,21.44,4.32,32.14,7.21l1-3.39Q791.93,317.13,775.72,314Z"/><path class="cls-18" d="M789.67,265.64c-1.42-.28-2.85-.57-4.27-.83L775,317.63c1.43.26,2.86.55,4.28.82Z"/><path class="cls-15" d="M821,277l1.12-3.86q-18.33-5-36.69-8.33l-.77,3.91Q802.81,272.13,821,277Z"/><text class="cls-24" transform="translate(786.52 305.23)">A</text></g><g id="UUG"><path class="cls-12" d="M811.2,326.59c10.46,3,20.89,6.47,31.24,10.42l20.12-49.92q-17.73-6.81-35.66-12Z"/><path class="cls-14" d="M838.68,335.63c1.26.46,2.51.91,3.76,1.38l20.12-49.92c-1.25-.48-2.5-.92-3.75-1.39Z"/><path class="cls-13" d="M812.29,323l-1.09,3.57c10.46,3,20.89,6.47,31.24,10.42l1.32-3.26Q828.1,327.79,812.29,323Z"/><path class="cls-18" d="M831.07,276.35l-4.17-1.26-15.7,51.5c1.39.4,2.78.83,4.17,1.25Z"/><path class="cls-15" d="M861.05,290.83l1.51-3.74q-17.73-6.81-35.66-12l-1.16,3.82Q843.49,284.13,861.05,290.83Z"/><text class="cls-23" transform="translate(825.4 318.23)">G</text></g></g></g></g></svg>