<svg xmlns="http://www.w3.org/2000/svg" viewBox="0 0 123 490">
  <defs>
    <style>
      .cls-1 {
        opacity: 0.5;
      }

      .cls-2 {
        fill: #7ed6ff;
      }

      .cls-3 {
        fill: #55bcea;
      }

      .cls-4 {
        fill: none;
        stroke: #55bcea;
        stroke-miterlimit: 10;
        stroke-width: 10px;
      }
    </style>
  </defs>
  <title>arrow_Large_Hover_Down_PNG</title>
  <g id="arrow_Large_Button_Hover">
    <g id="arrowDown_Large_Button_Hover_SVG">
      <g id="fill" class="cls-1">
        <path class="cls-2" d="M61.48,485.5A12.88,12.88,0,0,1,53,482.05c-4.07-3.89-38.46-37.33-45.68-44.55a8.7,8.7,0,0,1-2.15-9.56,8.23,8.23,0,0,1,8-5H35.13V16c0-6.7,6.18-11.21,12-11.21H75.75c5.78,0,12,4.51,12,11.21V422.93h22.06a8.23,8.23,0,0,1,8,5,8.7,8.7,0,0,1-2.15,9.56c-7.18,7.18-41.59,40.64-45.68,44.55a12.66,12.66,0,0,1-8.39,3.45h0Z"/>
        <path class="cls-3" d="M75.75,5.3C81.58,5.3,87.21,9.81,87.21,16V423.43h22.56c7.65,0,10.7,8.47,5.45,13.72-7,7-41.35,40.4-45.67,44.54A12.16,12.16,0,0,1,61.49,485a12.51,12.51,0,0,1-8.2-3.31C49,477.55,14.58,444.1,7.62,437.15c-5.25-5.25-2.2-13.72,5.45-13.72H35.63V16c0-6.2,5.63-10.71,11.46-10.71H75.75m0-1H47.09C41.07,4.3,34.63,9,34.63,16V422.43H13.07a8.72,8.72,0,0,0-8.41,5.32,9.17,9.17,0,0,0,2.26,10.1c7.21,7.22,41.61,40.66,45.68,44.56A13.4,13.4,0,0,0,61.47,486a13.25,13.25,0,0,0,8.77-3.59c4.07-3.89,38.46-37.34,45.68-44.56a9.17,9.17,0,0,0,2.26-10.1,8.72,8.72,0,0,0-8.41-5.32H88.21V16c0-7-6.44-11.71-12.46-11.71Z"/>
      </g>
      <path id="outline" class="cls-4" d="M7.62,437.15c7,7,41.35,40.4,45.67,44.54a12.51,12.51,0,0,0,8.2,3.31,12.16,12.16,0,0,0,8.06-3.31c4.32-4.14,38.71-37.59,45.67-44.54,5.25-5.25,2.2-13.72-5.45-13.72H87.21V16c0-6.2-5.63-10.71-11.46-10.71H47.09C41.26,5.3,35.63,9.81,35.63,16V423.43H13.07C5.42,423.43,2.37,431.9,7.62,437.15Z"/>
    </g>
  </g>
</svg>
