<svg xmlns="http://www.w3.org/2000/svg" viewBox="0 0 483.7 116.84"><defs><style>.cls-1{fill:#fff;}.cls-2{fill:#d9d9d9;}</style></defs><title>arrowLeft_Large_Button_Up_SVG</title><g id="Layer_2" data-name="Layer 2"><g id="arrow_Large_Button_Up"><g id="arrowLeft_Large_Button_Up_SVG"><path class="cls-1" d="M55.91,115.84a9.57,9.57,0,0,1-6.76-2.92C41.92,105.7,8.48,71.31,4.59,67.24A13.23,13.23,0,0,1,1,58.51,13.42,13.42,0,0,1,4.59,49.6C8.47,45.54,41.9,11.16,49.15,3.92A9.57,9.57,0,0,1,55.91,1a8.68,8.68,0,0,1,8.66,9.07V31.63H471c7,0,11.71,6.44,11.71,12.46V72.75c0,6-4.71,12.46-11.71,12.46H64.57v21.56A8.68,8.68,0,0,1,55.91,115.84Z"/><path class="cls-2" d="M55.91,2a7.66,7.66,0,0,1,7.66,8.07V32.63H471c6.2,0,10.71,5.63,10.71,11.46V72.75c0,5.83-4.51,11.46-10.71,11.46H63.57v22.56a7.66,7.66,0,0,1-7.66,8.07,8.55,8.55,0,0,1-6.06-2.62c-7-7-40.4-41.35-44.54-45.67A12.16,12.16,0,0,1,2,58.49a12.51,12.51,0,0,1,3.31-8.2C9.45,46,42.9,11.58,49.85,4.62A8.55,8.55,0,0,1,55.91,2m0-2a10.56,10.56,0,0,0-7.47,3.21C41.21,10.44,7.76,44.84,3.87,48.91A14.38,14.38,0,0,0,0,58.44v.1a14.18,14.18,0,0,0,3.87,9.39C7.76,72,41.21,106.4,48.44,113.63a10.56,10.56,0,0,0,7.47,3.21c5.51,0,9.66-4.33,9.66-10.07V86.21H471c7.6,0,12.71-7,12.71-13.46V44.09c0-6.5-5.11-13.46-12.71-13.46H65.57V10.07C65.57,4.33,61.42,0,55.91,0Z"/></g></g></g></svg>