<svg xmlns="http://www.w3.org/2000/svg" xmlns:xlink="http://www.w3.org/1999/xlink" viewBox="0 0 140.74 286.71"><defs><style>.cls-1{fill:url(#New_Gradient_Swatch_1);}.cls-2{fill:url(#New_Gradient_Swatch_1-2);}</style><linearGradient id="New_Gradient_Swatch_1" x1="70.37" x2="70.37" y2="286.71" gradientUnits="userSpaceOnUse"><stop offset="0" stop-color="#7fd7fe"/><stop offset="1" stop-color="#55bdea"/></linearGradient><linearGradient id="New_Gradient_Swatch_1-2" x1="70.37" y1="286.71" x2="70.37" y2="0" xlink:href="#New_Gradient_Swatch_1"/></defs><title>hoverDepressed</title><g id="Layer_2" data-name="Layer 2"><g id="arrowForward"><g id="hoverDepressed"><path class="cls-1" d="M0,15.53V271.21c0,17,18.62,20.42,29.27,8.18L136,158.66a20.55,20.55,0,0,0,.2-26.14L29.46,7.58C18.91-5,0-1.66,0,15.53Z"/><path class="cls-2" d="M14.3,6C18.11,6,22,8,24.9,11.47L131.55,136.38a14.57,14.57,0,0,1-.1,18.3L24.74,275.45a14.19,14.19,0,0,1-10.45,5.26c-5.19,0-8.29-3.55-8.29-9.5V15.53C6,9.56,9.1,6,14.3,6m0-6C6.67,0,0,5.32,0,15.53V271.21c0,10.19,6.66,15.5,14.29,15.5a20.16,20.16,0,0,0,15-7.32L136,158.66a20.55,20.55,0,0,0,.2-26.14L29.46,7.58A20.08,20.08,0,0,0,14.3,0Z"/></g></g></g></svg>