<?xml version="1.0" encoding="utf-8"?>
<!-- Generator: Adobe Illustrator 22.0.1, SVG Export Plug-In . SVG Version: 6.00 Build 0)  -->
<svg version="1.1" xmlns="http://www.w3.org/2000/svg" xmlns:xlink="http://www.w3.org/1999/xlink" x="0px" y="0px"
	 viewBox="0 0 152.6 189.8" style="enable-background:new 0 0 152.6 189.8;" xml:space="preserve">
<style type="text/css">
	.st0{display:none;}
	.st1{display:inline;}
	.st2{fill:#B3B3B3;}
	.st3{fill:url(#SVGID_1_);}
	.st4{fill:url(#SVGID_2_);}
	.st5{fill:url(#SVGID_3_);}
	.st6{fill:url(#SVGID_4_);}
	.st7{fill:url(#SVGID_5_);}
	.st8{fill:url(#SVGID_6_);}
	.st9{fill:#D9D9D9;}
	.st10{fill:url(#SVGID_7_);}
	.st11{fill:url(#SVGID_8_);}
	.st12{fill:url(#SVGID_9_);}
	.st13{fill:url(#SVGID_10_);}
	.st14{fill:url(#SVGID_11_);}
	.st15{fill:url(#SVGID_12_);}
</style>
<g id="Layer_1" class="st0">
</g>
<g id="Layer_2">
</g>
<g id="Layer_3">
</g>
<g id="Layer_4">
	<g>
		<path class="st9" d="M76.7,22.9c37.4,0,67.8,30.4,67.8,67.8s-30.4,67.8-67.8,67.8S8.9,128,8.9,90.7S39.3,22.9,76.7,22.9
			 M76.7,15.9c-41.3,0-74.8,33.5-74.8,74.8s33.5,74.8,74.8,74.8c41.3,0,74.8-33.5,74.8-74.8S118,15.9,76.7,15.9L76.7,15.9z"/>
	</g>
	<g>
		<path class="st9" d="M76.7,45.8c24.8,0,44.9,20.1,44.9,44.9s-20.1,44.9-44.9,44.9c-24.8,0-44.9-20.1-44.9-44.9
			S51.9,45.8,76.7,45.8 M76.7,38.8c-28.6,0-51.9,23.3-51.9,51.9s23.3,51.9,51.9,51.9c28.6,0,51.9-23.3,51.9-51.9
			S105.3,38.8,76.7,38.8L76.7,38.8z"/>
	</g>
	<g>
		<circle class="st9" cx="76.7" cy="90.7" r="24.2"/>
	</g>
</g>
<g id="Layer_5">
</g>
</svg>
