<svg xmlns="http://www.w3.org/2000/svg" viewBox="0 0 288 288"><defs><style>.cls-1{fill:#d9d9d9;}</style></defs><title>buttonToggle_DisabledChecked</title><g id="Layer_2" data-name="Layer 2"><g id="Toggle"><g id="disabledChecked"><circle class="cls-1" cx="144" cy="144" r="51.25"/><path class="cls-1" d="M144,93.75A50.25,50.25,0,1,1,93.75,144,50.3,50.3,0,0,1,144,93.75m0-2h0A52.4,52.4,0,0,0,91.75,144h0A52.4,52.4,0,0,0,144,196.25h0A52.4,52.4,0,0,0,196.25,144h0A52.4,52.4,0,0,0,144,91.75Z"/><path class="cls-1" d="M139.67,287A139.06,139.06,0,0,1,1,148.33v-8.66A139.06,139.06,0,0,1,139.67,1h8.66A139.06,139.06,0,0,1,287,139.67v8.66A139.06,139.06,0,0,1,148.33,287Zm4.66-269.5C77.39,17.5,18.67,76.22,18.67,143.17S77.39,268.83,144.33,268.83,270,210.11,270,143.17,211.28,17.5,144.33,17.5Z"/><path class="cls-1" d="M148.33,2A138.07,138.07,0,0,1,286,139.67v8.66A138.07,138.07,0,0,1,148.33,286h-8.66A138.07,138.07,0,0,1,2,148.33v-8.66A138.07,138.07,0,0,1,139.67,2h8.66m-4,267.83h0c67.48,0,126.67-59.19,126.67-126.66S211.81,16.5,144.33,16.5,17.67,75.69,17.67,143.17,76.86,269.83,144.33,269.83M148.33,0h-8.66C62.85,0,0,62.85,0,139.67v8.66C0,225.15,62.85,288,139.67,288h8.66C225.15,288,288,225.15,288,148.33v-8.66C288,62.85,225.15,0,148.33,0Zm-4,267.83C78.52,267.83,19.67,209,19.67,143.17h0C19.67,77.35,78.52,18.5,144.33,18.5h0C210.15,18.5,269,77.35,269,143.17h0c0,65.81-58.85,124.66-124.67,124.66Z"/><path class="cls-1" d="M141,240.33c-25.88,0-49.57-9.44-66.71-26.58s-26.57-40.82-26.57-66.7V141c0-25.88,9.44-49.57,26.57-66.71S115.07,47.67,141,47.67h6.1c25.88,0,49.57,9.44,66.7,26.57s26.58,40.83,26.58,66.71v6.1c0,25.88-9.44,49.57-26.58,66.7s-40.82,26.58-66.7,26.58ZM144.23,64.2C102,64.2,65,101.22,65,143.41v.25c0,42.06,36.9,79,79,79h.49c42.07,0,79-36.9,79-79v-.25C223.44,101.22,186.43,64.2,144.23,64.2Z"/><path class="cls-1" d="M147.05,48.67c25.61,0,49,9.33,66,26.28s26.28,40.39,26.28,66v6.1c0,25.61-9.33,49-26.28,66s-40.39,26.28-66,26.28H141c-25.61,0-49-9.33-66-26.28s-26.28-40.39-26.28-66V141c0-25.61,9.33-49,26.28-66s40.39-26.28,66-26.28h6.1m-3.06,175h.49c42.6,0,80-37.36,80-80v-.25c0-42.73-37.48-80.21-80.21-80.21S64,100.68,64,143.41v.25c0,42.6,37.37,80,80,80m3.06-176.95H141c-54.06,0-94.28,40.22-94.28,94.28v6.1c0,54.06,40.22,94.28,94.28,94.28h6.1c54.06,0,94.28-40.22,94.28-94.28V141c0-54.06-40.22-94.28-94.28-94.28Zm-3.06,175c-41.4,0-78-36.56-78-78v-.25c0-41.53,36.68-78.21,78.21-78.21h0c41.54,0,78.21,36.68,78.21,78.21v.25c0,41.4-36.56,78-78,78Z"/></g></g></g></svg>