<svg xmlns="http://www.w3.org/2000/svg" viewBox="0 0 288 288">
  <defs>
    <style>
      .cls-1 {
        fill: #fff;
      }

      .cls-2 {
        fill: #393a39;
      }
    </style>
  </defs>
  <title>buttonZoom_White_HoverDepressed_1</title>
  <g id="Layer_2" data-name="Layer 2">
    <g id="ZoomWhite">
      <g id="hoverDepressed">
        <g>
          <rect class="cls-1" x="92.75" y="92.75" width="102.5" height="102.5" rx="23.17"/>
          <path class="cls-2" d="M172.08,93.75a22.19,22.19,0,0,1,22.17,22.17v56.16a22.19,22.19,0,0,1-22.17,22.17H115.92a22.19,22.19,0,0,1-22.17-22.17V115.92a22.19,22.19,0,0,1,22.17-22.17h56.16m0-2H115.92a24.25,24.25,0,0,0-24.17,24.17v56.16a24.24,24.24,0,0,0,24.17,24.17h56.16a24.23,24.23,0,0,0,24.17-24.17V115.92a24.24,24.24,0,0,0-24.17-24.17Z"/>
        </g>
        <g>
          <path class="cls-1" d="M55,287A54.06,54.06,0,0,1,1,233V55A54.06,54.06,0,0,1,55,1H233a54.06,54.06,0,0,1,54,54V233a54.06,54.06,0,0,1-54,54ZM59.67,22.5a36,36,0,0,0-36,36V227.83a36,36,0,0,0,36,36H229a36,36,0,0,0,36-36V58.5a36,36,0,0,0-36-36Z"/>
          <path class="cls-2" d="M233,2a53.07,53.07,0,0,1,53,53V233a53.07,53.07,0,0,1-53,53H55A53.07,53.07,0,0,1,2,233V55A53.07,53.07,0,0,1,55,2H233M59.67,264.83H229a37,37,0,0,0,37-37V58.5a37,37,0,0,0-37-37H59.67a37,37,0,0,0-37,37V227.83a37,37,0,0,0,37,37M233,0H55A55.16,55.16,0,0,0,0,55V233a55.16,55.16,0,0,0,55,55H233a55.16,55.16,0,0,0,55-55V55A55.16,55.16,0,0,0,233,0ZM59.67,262.83a35.1,35.1,0,0,1-35-35V58.5a35.1,35.1,0,0,1,35-35H229a35.1,35.1,0,0,1,35,35V227.83a35.1,35.1,0,0,1-35,35Z"/>
        </g>
        <g>
          <path class="cls-1" d="M81.37,244.33a37.74,37.74,0,0,1-37.7-37.7V81.37a37.74,37.74,0,0,1,37.7-37.7H206.63a37.74,37.74,0,0,1,37.7,37.7V206.63a37.74,37.74,0,0,1-37.7,37.7ZM84.65,67.2A16.65,16.65,0,0,0,68,83.83V203.24a16.4,16.4,0,0,0,16.39,16.38H204.06a16.4,16.4,0,0,0,16.38-16.38V83.83A16.65,16.65,0,0,0,203.81,67.2Z"/>
          <path class="cls-2" d="M206.63,44.67a36.74,36.74,0,0,1,36.7,36.7V206.63a36.74,36.74,0,0,1-36.7,36.7H81.37a36.74,36.74,0,0,1-36.7-36.7V81.37a36.74,36.74,0,0,1,36.7-36.7H206.63m-122.22,176H204.06a17.39,17.39,0,0,0,17.38-17.38V83.83A17.65,17.65,0,0,0,203.81,66.2H84.65A17.65,17.65,0,0,0,67,83.83V203.24a17.4,17.4,0,0,0,17.39,17.38M206.63,42.67H81.37a38.81,38.81,0,0,0-38.7,38.7V206.63a38.81,38.81,0,0,0,38.7,38.7H206.63a38.81,38.81,0,0,0,38.7-38.7V81.37a38.81,38.81,0,0,0-38.7-38.7Zm-122.22,176A15.38,15.38,0,0,1,69,203.24V83.83A15.63,15.63,0,0,1,84.65,68.2H203.81a15.63,15.63,0,0,1,15.63,15.63V203.24a15.37,15.37,0,0,1-15.38,15.38Z"/>
        </g>
      </g>
    </g>
  </g>
</svg>
