<svg xmlns="http://www.w3.org/2000/svg" xmlns:xlink="http://www.w3.org/1999/xlink" viewBox="0 0 286.76 286.76"><defs><style>.cls-1{fill:url(#New_Gradient_Swatch_1);}.cls-2{fill:url(#New_Gradient_Swatch_1-2);}.cls-3{fill:url(#New_Gradient_Swatch_1-3);}.cls-4{fill:url(#New_Gradient_Swatch_1-4);}.cls-5{fill:url(#New_Gradient_Swatch_1-5);}.cls-6{fill:url(#New_Gradient_Swatch_1-6);}</style><linearGradient id="New_Gradient_Swatch_1" x1="123.5" y1="123.5" x2="163.26" y2="163.26" gradientTransform="translate(286.76 0) rotate(90)" gradientUnits="userSpaceOnUse"><stop offset="0" stop-color="#7fd7fe"/><stop offset="1" stop-color="#55bdea"/></linearGradient><linearGradient id="New_Gradient_Swatch_1-2" x1="143.38" y1="171.49" x2="143.38" y2="115.27" gradientTransform="matrix(1, 0, 0, 1, 0, 0)" xlink:href="#New_Gradient_Swatch_1"/><linearGradient id="New_Gradient_Swatch_1-3" x1="42" y1="42" x2="244.77" y2="244.77" gradientTransform="translate(143.38 -59.39) rotate(45)" xlink:href="#New_Gradient_Swatch_1"/><linearGradient id="New_Gradient_Swatch_1-4" x1="143.38" y1="286.76" x2="143.38" y2="0" gradientTransform="matrix(1, 0, 0, 1, 0, 0)" xlink:href="#New_Gradient_Swatch_1"/><linearGradient id="New_Gradient_Swatch_1-5" x1="83.3" y1="83.3" x2="203.46" y2="203.46" gradientTransform="translate(143.38 -59.39) rotate(45)" xlink:href="#New_Gradient_Swatch_1"/><linearGradient id="New_Gradient_Swatch_1-6" x1="143.38" y1="228.35" x2="143.38" y2="58.41" gradientTransform="matrix(1, 0, 0, 1, 0, 0)" xlink:href="#New_Gradient_Swatch_1"/></defs><title>normal copy</title><g id="Layer_2" data-name="Layer 2"><g id="Drag"><g id="normal_copy" data-name="normal copy"><rect class="cls-1" x="119.39" y="119.39" width="47.98" height="47.98" rx="14" ry="14" transform="translate(-59.39 143.38) rotate(-45)"/><path class="cls-2" d="M143.38,117.27a11.91,11.91,0,0,1,8.49,3.5L166,134.9a12,12,0,0,1,0,17L151.87,166a12,12,0,0,1-17,0l-14.13-14.12a12,12,0,0,1,0-17l14.13-14.13a11.87,11.87,0,0,1,8.48-3.5m0-2a14,14,0,0,0-9.9,4.08l-14.13,14.13a14.05,14.05,0,0,0,0,19.8l14.13,14.13a14.05,14.05,0,0,0,19.8,0l14.13-14.13a14.05,14.05,0,0,0,0-19.8l-14.13-14.13a14,14,0,0,0-9.9-4.08Z"/><path class="cls-3" d="M274,112.54,174.22,12.72a43.75,43.75,0,0,0-61.68,0L12.72,112.54a43.75,43.75,0,0,0,0,61.68L112.54,274a43.75,43.75,0,0,0,61.68,0L274,174.22A43.75,43.75,0,0,0,274,112.54ZM163.66,257.68a27.82,27.82,0,0,1-39.25,0l-95-95a27.85,27.85,0,0,1,0-39.26l95-94.95a27.82,27.82,0,0,1,39.25,0l95,95a27.85,27.85,0,0,1,0,39.26Z"/><path class="cls-4" d="M143.38,2a41.32,41.32,0,0,1,29.43,12.14L272.62,114a41.66,41.66,0,0,1,0,58.86l-99.81,99.81a41.74,41.74,0,0,1-58.86,0L14.14,172.81a41.74,41.74,0,0,1,0-58.86L114,14.14A41.32,41.32,0,0,1,143.38,2M144,267.78a29.56,29.56,0,0,0,21.05-8.68l94.95-95a29.79,29.79,0,0,0,0-42.08l-94.95-95a29.85,29.85,0,0,0-42.09,0L28,122.06a29.79,29.79,0,0,0,0,42.08l94.95,95a29.54,29.54,0,0,0,21,8.68M143.38,0a43.48,43.48,0,0,0-30.84,12.72L12.72,112.54a43.75,43.75,0,0,0,0,61.68L112.54,274a43.75,43.75,0,0,0,61.68,0L274,174.22a43.75,43.75,0,0,0,0-61.68L174.22,12.72A43.48,43.48,0,0,0,143.38,0ZM144,265.78a27.66,27.66,0,0,1-19.62-8.1l-95-95a27.85,27.85,0,0,1,0-39.26l95-94.95a27.82,27.82,0,0,1,39.25,0l95,95a27.85,27.85,0,0,1,0,39.26l-95,95a27.67,27.67,0,0,1-19.63,8.1Z"/><path class="cls-5" d="M220.81,125.1,161.66,66a25.94,25.94,0,0,0-36.56,0L66,125.1a25.94,25.94,0,0,0,0,36.56l59.15,59.15a25.94,25.94,0,0,0,36.56,0l59.15-59.15A25.94,25.94,0,0,0,220.81,125.1ZM151,207a10.28,10.28,0,0,1-14.53,0L80,150.48A10.28,10.28,0,0,1,80,136l56.39-56.39a10.45,10.45,0,0,1,14.76,0l56.27,56.27a10.43,10.43,0,0,1,0,14.76Z"/><path class="cls-6" d="M143.38,60.41a23.64,23.64,0,0,1,16.86,7l59.15,59.15a23.86,23.86,0,0,1,0,33.72l-59.15,59.15a23.9,23.9,0,0,1-33.72,0L67.37,160.24a23.86,23.86,0,0,1,0-33.72l59.15-59.15a23.64,23.64,0,0,1,16.86-7M143.77,212a12.23,12.23,0,0,0,8.68-3.59L208.83,152a12.45,12.45,0,0,0,0-17.59L152.56,78.15a12.45,12.45,0,0,0-17.59,0L78.59,134.54a12.25,12.25,0,0,0,0,17.35l56.5,56.51a12.23,12.23,0,0,0,8.68,3.59m-.39-153.58A25.82,25.82,0,0,0,125.1,66L66,125.1a25.94,25.94,0,0,0,0,36.56l59.15,59.15a25.93,25.93,0,0,0,36.56,0l59.15-59.15a25.94,25.94,0,0,0,0-36.56L161.66,66a25.8,25.8,0,0,0-18.28-7.54ZM143.77,210a10.24,10.24,0,0,1-7.27-3L80,150.48A10.28,10.28,0,0,1,80,136l56.39-56.39a10.45,10.45,0,0,1,14.76,0l56.27,56.27a10.43,10.43,0,0,1,0,14.76L151,207a10.2,10.2,0,0,1-7.26,3Z"/></g></g></g></svg>