<svg xmlns="http://www.w3.org/2000/svg" xmlns:xlink="http://www.w3.org/1999/xlink" viewBox="0 0 288 288"><defs><style>.cls-1{fill:url(#New_Gradient_Swatch_1);}.cls-2{fill:url(#New_Gradient_Swatch_1-2);}.cls-3{fill:url(#New_Gradient_Swatch_1-3);}.cls-4{fill:url(#New_Gradient_Swatch_1-4);}.cls-5{fill:url(#New_Gradient_Swatch_1-5);}.cls-6{fill:url(#New_Gradient_Swatch_1-6);}</style><linearGradient id="New_Gradient_Swatch_1" x1="144" y1="113.75" x2="144" y2="174.25" gradientUnits="userSpaceOnUse"><stop offset="0" stop-color="#7fd7fe"/><stop offset="1" stop-color="#55bdea"/></linearGradient><linearGradient id="New_Gradient_Swatch_1-2" x1="144" y1="174.25" x2="144" y2="113.75" xlink:href="#New_Gradient_Swatch_1"/><linearGradient id="New_Gradient_Swatch_1-3" x1="144" y1="0" x2="144" y2="288" xlink:href="#New_Gradient_Swatch_1"/><linearGradient id="New_Gradient_Swatch_1-4" x1="144" y1="288" x2="144" y2="0" xlink:href="#New_Gradient_Swatch_1"/><linearGradient id="New_Gradient_Swatch_1-5" x1="144" y1="57.03" x2="144" y2="230.97" xlink:href="#New_Gradient_Swatch_1"/><linearGradient id="New_Gradient_Swatch_1-6" x1="144" y1="230.97" x2="144" y2="57.03" xlink:href="#New_Gradient_Swatch_1"/></defs><title>normal copy 2</title><g id="Layer_2" data-name="Layer 2"><g id="Toggle"><g id="normal_copy_2" data-name="normal copy 2"><rect class="cls-1" x="113.75" y="113.75" width="60.5" height="60.5" rx="30.25" ry="30.25"/><path class="cls-2" d="M144,115.75A28.25,28.25,0,1,1,115.75,144,28.28,28.28,0,0,1,144,115.75m0-2h0A30.34,30.34,0,0,0,113.75,144h0A30.34,30.34,0,0,0,144,174.25h0A30.34,30.34,0,0,0,174.25,144h0A30.34,30.34,0,0,0,144,113.75Z"/><path class="cls-3" d="M148.33,0h-8.66C62.85,0,0,62.85,0,139.67v8.66C0,225.15,62.85,288,139.67,288h8.66C225.15,288,288,225.15,288,148.33v-8.66C288,62.85,225.15,0,148.33,0ZM268,143.17c0,65.81-57.85,123.66-123.67,123.66h0C78.52,266.83,20.67,209,20.67,143.17h0C20.67,77.35,78.52,19.5,144.33,19.5h0C210.15,19.5,268,77.35,268,143.17Z"/><path class="cls-4" d="M148.33,2A138.07,138.07,0,0,1,286,139.67v8.66A138.07,138.07,0,0,1,148.33,286h-8.66A138.07,138.07,0,0,1,2,148.33v-8.66A138.07,138.07,0,0,1,139.67,2h8.66m-4,266.83h0c66.95,0,125.67-58.72,125.67-125.66S211.28,17.5,144.33,17.5,18.67,76.22,18.67,143.17,77.39,268.83,144.33,268.83M148.33,0h-8.66C62.85,0,0,62.85,0,139.67v8.66C0,225.15,62.85,288,139.67,288h8.66C225.15,288,288,225.15,288,148.33v-8.66C288,62.85,225.15,0,148.33,0Zm-4,266.83C78.52,266.83,20.67,209,20.67,143.17h0C20.67,77.35,78.52,19.5,144.33,19.5h0C210.15,19.5,268,77.35,268,143.17h0c0,65.81-57.85,123.66-123.67,123.66Z"/><path class="cls-5" d="M146.62,57h-5.24A84.6,84.6,0,0,0,57,141.38v5.24A84.6,84.6,0,0,0,141.38,231h5.24A84.6,84.6,0,0,0,231,146.62v-5.24A84.6,84.6,0,0,0,146.62,57Zm66.13,86.68c0,35.53-32.8,68.34-68.34,68.34H144c-35.53,0-68.34-32.81-68.34-68.34v-.21c0-35.65,32.9-68.55,68.55-68.55h0c35.65,0,68.55,32.9,68.55,68.55Z"/><path class="cls-6" d="M146.62,59A82.59,82.59,0,0,1,229,141.38v5.24A82.59,82.59,0,0,1,146.62,229h-5.24A82.59,82.59,0,0,1,59,146.62v-5.24A82.59,82.59,0,0,1,141.38,59h5.24m-2.63,155h.42c36.82,0,70.34-33.53,70.34-70.34v-.21c0-36.93-33.62-70.55-70.55-70.55S73.65,106.57,73.65,143.5v.21c0,36.81,33.53,70.34,70.34,70.34m2.63-157h-5.24A84.6,84.6,0,0,0,57,141.38v5.24A84.6,84.6,0,0,0,141.38,231h5.24A84.6,84.6,0,0,0,231,146.62v-5.24A84.6,84.6,0,0,0,146.62,57Zm-2.63,155c-35.53,0-68.34-32.81-68.34-68.34v-.21c0-35.65,32.9-68.55,68.55-68.55h0c35.65,0,68.55,32.9,68.55,68.55v.21c0,35.53-32.8,68.34-68.34,68.34Z"/></g></g></g></svg>