<svg xmlns="http://www.w3.org/2000/svg" xmlns:xlink="http://www.w3.org/1999/xlink" viewBox="0 0 288 288"><defs><style>.cls-1{fill:url(#New_Gradient_Swatch_1);}.cls-2{fill:url(#New_Gradient_Swatch_1-2);}.cls-3{fill:url(#New_Gradient_Swatch_1-3);}.cls-4{fill:url(#New_Gradient_Swatch_1-4);}.cls-5{fill:url(#New_Gradient_Swatch_1-5);}.cls-6{fill:url(#New_Gradient_Swatch_1-6);}</style><linearGradient id="New_Gradient_Swatch_1" x1="144" y1="113.75" x2="144" y2="174.25" gradientUnits="userSpaceOnUse"><stop offset="0" stop-color="#7fd7fe"/><stop offset="1" stop-color="#55bdea"/></linearGradient><linearGradient id="New_Gradient_Swatch_1-2" x1="144" y1="174.25" x2="144" y2="113.75" xlink:href="#New_Gradient_Swatch_1"/><linearGradient id="New_Gradient_Swatch_1-3" x1="144" y1="0" x2="144" y2="288" xlink:href="#New_Gradient_Swatch_1"/><linearGradient id="New_Gradient_Swatch_1-4" x1="144" y1="288" x2="144" y2="0" xlink:href="#New_Gradient_Swatch_1"/><linearGradient id="New_Gradient_Swatch_1-5" x1="144" y1="58.67" x2="144" y2="229.33" xlink:href="#New_Gradient_Swatch_1"/><linearGradient id="New_Gradient_Swatch_1-6" x1="144" y1="229.33" x2="144" y2="58.67" xlink:href="#New_Gradient_Swatch_1"/></defs><title>normal</title><g id="Layer_2" data-name="Layer 2"><g id="Zoom"><g id="normal"><rect class="cls-1" x="113.75" y="113.75" width="60.5" height="60.5" rx="14" ry="14"/><path class="cls-2" d="M160.25,115.75a12,12,0,0,1,12,12v32.5a12,12,0,0,1-12,12h-32.5a12,12,0,0,1-12-12v-32.5a12,12,0,0,1,12-12h32.5m0-2h-32.5a14,14,0,0,0-14,14v32.5a14,14,0,0,0,14,14h32.5a14,14,0,0,0,14-14v-32.5a14,14,0,0,0-14-14Z"/><path class="cls-3" d="M233,0H55A55.16,55.16,0,0,0,0,55V233a55.16,55.16,0,0,0,55,55H233a55.16,55.16,0,0,0,55-55V55A55.16,55.16,0,0,0,233,0Zm31,227.83a35.1,35.1,0,0,1-35,35H59.67a35.1,35.1,0,0,1-35-35V58.5a35.1,35.1,0,0,1,35-35H229a35.1,35.1,0,0,1,35,35Z"/><path class="cls-4" d="M233,2a53.07,53.07,0,0,1,53,53V233a53.07,53.07,0,0,1-53,53H55A53.07,53.07,0,0,1,2,233V55A53.07,53.07,0,0,1,55,2H233M59.67,264.83H229a37,37,0,0,0,37-37V58.5a37,37,0,0,0-37-37H59.67a37,37,0,0,0-37,37V227.83a37,37,0,0,0,37,37M233,0H55A55.16,55.16,0,0,0,0,55V233a55.16,55.16,0,0,0,55,55H233a55.16,55.16,0,0,0,55-55V55A55.16,55.16,0,0,0,233,0ZM59.67,262.83a35.1,35.1,0,0,1-35-35V58.5a35.1,35.1,0,0,1,35-35H229a35.1,35.1,0,0,1,35,35V227.83a35.1,35.1,0,0,1-35,35Z"/><path class="cls-5" d="M196.74,58.67H91.26A32.68,32.68,0,0,0,58.67,91.26V196.74a32.68,32.68,0,0,0,32.59,32.59H196.74a32.68,32.68,0,0,0,32.59-32.59V91.26A32.68,32.68,0,0,0,196.74,58.67Zm10.79,135.22a13,13,0,0,1-12.95,13H93.82a13,13,0,0,1-13-13V93.33A13.16,13.16,0,0,1,94,80.17H194.37a13.16,13.16,0,0,1,13.16,13.16Z"/><path class="cls-6" d="M196.74,60.67a30.62,30.62,0,0,1,30.59,30.59V196.74a30.62,30.62,0,0,1-30.59,30.59H91.26a30.62,30.62,0,0,1-30.59-30.59V91.26A30.62,30.62,0,0,1,91.26,60.67H196.74M93.82,208.84H194.58a15,15,0,0,0,14.95-15V93.33a15.18,15.18,0,0,0-15.16-15.16H94A15.18,15.18,0,0,0,78.86,93.33V193.89a15,15,0,0,0,15,15M196.74,58.67H91.26A32.68,32.68,0,0,0,58.67,91.26V196.74a32.68,32.68,0,0,0,32.59,32.59H196.74a32.68,32.68,0,0,0,32.59-32.59V91.26a32.68,32.68,0,0,0-32.59-32.59ZM93.82,206.84a13,13,0,0,1-13-13V93.33A13.16,13.16,0,0,1,94,80.17H194.37a13.16,13.16,0,0,1,13.16,13.16V193.89a13,13,0,0,1-12.95,13Z"/></g></g></g></svg>