<svg xmlns="http://www.w3.org/2000/svg" viewBox="0 0 288 288">
  <defs>
    <style>
      .cls-1 {
        fill: #fff;
      }

      .cls-2 {
        fill: #393a39;
      }
    </style>
  </defs>
  <title>buttonToggle_White_Normal</title>
  <g id="Layer_2" data-name="Layer 2">
    <g id="ToggleWhite">
      <g id="normal">
        <g>
          <circle class="cls-1" cx="144" cy="144" r="29.25"/>
          <path class="cls-2" d="M144,115.75A28.25,28.25,0,1,1,115.75,144,28.28,28.28,0,0,1,144,115.75m0-2h0A30.34,30.34,0,0,0,113.75,144h0A30.34,30.34,0,0,0,144,174.25h0A30.34,30.34,0,0,0,174.25,144h0A30.34,30.34,0,0,0,144,113.75Z"/>
        </g>
        <g>
          <path class="cls-1" d="M139.67,287A139.06,139.06,0,0,1,1,148.33v-8.66A139.06,139.06,0,0,1,139.67,1h8.66A139.06,139.06,0,0,1,287,139.67v8.66A139.06,139.06,0,0,1,148.33,287Zm4.66-268.5C77.92,18.5,19.67,76.76,19.67,143.17S77.92,267.83,144.33,267.83,269,209.58,269,143.17,210.74,18.5,144.33,18.5Z"/>
          <path class="cls-2" d="M148.33,2A138.07,138.07,0,0,1,286,139.67v8.66A138.07,138.07,0,0,1,148.33,286h-8.66A138.07,138.07,0,0,1,2,148.33v-8.66A138.07,138.07,0,0,1,139.67,2h8.66m-4,266.83h0c66.95,0,125.67-58.72,125.67-125.66S211.28,17.5,144.33,17.5,18.67,76.22,18.67,143.17,77.39,268.83,144.33,268.83M148.33,0h-8.66C62.85,0,0,62.85,0,139.67v8.66C0,225.15,62.85,288,139.67,288h8.66C225.15,288,288,225.15,288,148.33v-8.66C288,62.85,225.15,0,148.33,0Zm-4,266.83C78.52,266.83,20.67,209,20.67,143.17h0C20.67,77.35,78.52,19.5,144.33,19.5h0C210.15,19.5,268,77.35,268,143.17h0c0,65.81-57.85,123.66-123.67,123.66Z"/>
        </g>
        <g>
          <path class="cls-1" d="M141.38,230A83.44,83.44,0,0,1,58,146.62v-5.24A83.44,83.44,0,0,1,141.38,58h5.24A83.44,83.44,0,0,1,230,141.38v5.24A83.44,83.44,0,0,1,146.62,230ZM144.2,74c-36.4,0-69.55,33.15-69.55,69.55v.21c0,36.29,33.05,69.34,69.34,69.34h.42c36.29,0,69.34-33.05,69.34-69.34v-.21C213.75,107.1,180.6,74,144.2,74Z"/>
          <path class="cls-2" d="M146.62,59A82.59,82.59,0,0,1,229,141.38v5.24A82.59,82.59,0,0,1,146.62,229h-5.24A82.59,82.59,0,0,1,59,146.62v-5.24A82.59,82.59,0,0,1,141.38,59h5.24m-2.63,155h.42c36.82,0,70.34-33.53,70.34-70.34v-.21c0-36.93-33.62-70.55-70.55-70.55S73.65,106.57,73.65,143.5v.21c0,36.81,33.53,70.34,70.34,70.34m2.63-157h-5.24A84.6,84.6,0,0,0,57,141.38v5.24A84.6,84.6,0,0,0,141.38,231h5.24A84.6,84.6,0,0,0,231,146.62v-5.24A84.6,84.6,0,0,0,146.62,57Zm-2.63,155c-35.53,0-68.34-32.81-68.34-68.34v-.21c0-35.65,32.9-68.55,68.55-68.55h0c35.65,0,68.55,32.9,68.55,68.55v.21c0,35.53-32.8,68.34-68.34,68.34Z"/>
        </g>
      </g>
    </g>
  </g>
</svg>
