<?xml version="1.0" encoding="utf-8"?>
<!-- Generator: Adobe Illustrator 23.1.1, SVG Export Plug-In . SVG Version: 6.00 Build 0)  -->
<svg version="1.1" id="Layer_1" opacity="0.5" xmlns="http://www.w3.org/2000/svg" xmlns:xlink="http://www.w3.org/1999/xlink"
	 x="0px" y="0px" viewBox="0 0 117.8 161.8" style="enable-background:new 0 0 117.8 161.8;" xml:space="preserve">
<style type="text/css">
	.st0{fill:#2B2B2B;}
</style>
<title>hoverDepressed</title>
<g>
	<g id="pause">
		<g id="hoverDepressed">
			<g id="iconPause">
				<path class="st0" d="M14.9,0L14.9,0c8.2,0,14.9,6.7,14.9,14.9v132c0,8.2-6.7,14.9-14.9,14.9l0,0c-8.2,0-14.9-6.7-14.9-14.9v-132
					C0,6.7,6.7,0,14.9,0z"/>
				<path class="st0" d="M102.9,0L102.9,0c8.2,0,14.9,6.7,14.9,14.9v132c0,8.2-6.7,14.9-14.9,14.9l0,0c-8.2,0-14.9-6.7-14.9-14.9
					v-132C88,6.7,94.7,0,102.9,0z"/>
			</g>
		</g>
	</g>
</g>
</svg>
