/* XPM */
static char *resetPivot_xpm[] = {
/* width height num_colors chars_per_pixel */
"    32    32      256            2",
/* colors */
"`` c #c1c1c1",
"`. c #c0c1c0",
"`# c #c1c3c1",
"`a c #bec1be",
"`b c #b7c4b7",
"`c c #b2cab2",
"`d c #bbc8bb",
"`e c #bfc5bf",
"`f c #b2c4b2",
"`g c #84cf85",
"`h c #93cf94",
"`i c #a6d0a7",
"`j c #adccad",
"`k c #b2c9b2",
"`l c #b8c8b8",
"`m c #afc4af",
"`n c #6dd06f",
"`o c #69d36b",
"`p c #77d378",
"`q c #87d588",
"`r c #93d594",
"`s c #a0d2a1",
"`t c #a9ceaa",
"`u c #afcbaf",
"`v c #b2c8b2",
"`w c #adc4ad",
"`x c #71cf72",
"`y c #4ed650",
"`z c #57d659",
"`A c #62d764",
"`B c #6ddd6f",
"`C c #78dc7a",
"`D c #82da83",
"`E c #8cd78d",
"`F c #94d595",
"`G c #a2d0a3",
"`H c #adbbad",
"`I c #43d845",
"`J c #3ada3c",
"`K c #44de46",
"`L c #4fe551",
"`M c #54e556",
"`N c #5ee260",
"`O c #67e069",
"`P c #70de72",
"`Q c #79d07a",
"`R c #82b983",
"`S c #93ae93",
"`T c #aab9aa",
"`U c #bcc2bc",
"`V c #4cdb4e",
"`W c #3ad93c",
"`X c #bcc1bc",
"`Y c #97c998",
"`Z c #33dd36",
"`0 c #26df29",
"`1 c #2edf31",
"`2 c #34ea37",
"`3 c #39ea3c",
"`4 c #41e944",
"`5 c #49e74b",
"`6 c #50e552",
"`7 c #57e159",
"`8 c #5fd261",
".` c #6ba76c",
".. c #7ca67d",
".# c #acbbac",
".a c #bfc0bf",
".b c #6fd571",
".c c #0cec0f",
".d c #0ce50f",
".e c #35da38",
".f c #71d172",
".g c #3ade3d",
".h c #18e41b",
".i c #1de420",
".j c #22e625",
".k c #26ed29",
".l c #2bed2e",
".m c #30ec33",
".n c #36eb39",
".o c #3cea3f",
".p c #4a954b",
".q c #559056",
".r c #72a373",
".s c #b2bbb2",
".t c #85cf86",
".u c #0eec11",
".v c #0aed0e",
".w c #0cf110",
".x c #0ce60f",
".y c #0de410",
".z c #0fe612",
".A c #14eb17",
".B c #17f01a",
".C c #1cf01f",
".D c #20ef23",
".E c #23ee26",
".F c #2aed2d",
".G c #2ee931",
".H c #31a033",
".I c #388039",
".J c #478a48",
".K c #95af95",
".L c #bdbfbd",
".M c #97ca98",
".N c #0eeb11",
".O c #0aec0e",
".P c #0aee0e",
".Q c #0cf010",
".R c #0be70e",
".S c #0ae40d",
".T c #0feb12",
".U c #13f016",
".V c #18f01b",
".W c #1af01d",
".X c #1def20",
".Y c #20cb23",
".Z c #237b24",
".0 c #2a722b",
".1 c #679668",
".2 c #a0b2a0",
".3 c #33e236",
".4 c #0bf00f",
".5 c #0bea0e",
".6 c #0be20e",
".7 c #10eb13",
".8 c #15db18",
"#` c #147a16",
"#. c #186119",
"## c #337434",
"#a c #8ba58b",
"#b c #bcbfbc",
"#c c #33e136",
"#d c #0aeb0e",
"#e c #0bee0f",
"#f c #0cef10",
"#g c #0ae50d",
"#h c #0b5f0c",
"#i c #145615",
"#j c #628a63",
"#k c #acb5ac",
"#l c #6ed370",
"#m c #0aea0d",
"#n c #0bed0f",
"#o c #0acc0d",
"#p c #5db15e",
"#q c #85ce86",
"#r c #0ee911",
"#s c #0bec0f",
"#t c #0ce40f",
"#u c #11e014",
"#v c #3ad73c",
"#w c #aac6aa",
"#x c #0ee811",
"#y c #0ae90d",
"#z c #0ae70d",
"#A c #08c40b",
"#B c #08b60b",
"#C c #079209",
"#D c #067008",
"#E c #7f9b7f",
"#F c #33df36",
"#G c #0ae80d",
"#H c #08d50b",
"#I c #07c00a",
"#J c #06b009",
"#K c #037f05",
"#L c #026e04",
"#M c #004901",
"#N c #004801",
"#O c #014e02",
"#P c #035304",
"#Q c #045405",
"#R c #7f987f",
"#S c #45db47",
"#T c #08d40b",
"#U c #06af09",
"#V c #048f06",
"#W c #026f04",
"#X c #004a01",
"#Y c #004601",
"#Z c #044805",
"#0 c #2c632d",
"#1 c #618762",
"#2 c #6b8f6c",
"#3 c #7f9d7f",
"#4 c #bcbebc",
"#5 c #76cd77",
"#6 c #004f01",
"#7 c #004b01",
"#8 c #004701",
"a` c #155416",
"a. c #3d6d3e",
"a# c #608361",
"aa c #95a595",
"ab c #4e794f",
"ac c #044a05",
"ad c #1a581b",
"ae c #3d6e3e",
"af c #608461",
"ag c #abb3ab",
"ah c #000000",
"ai c #000000",
"aj c #000000",
"ak c #000000",
"al c #000000",
"am c #000000",
"an c #000000",
"ao c #000000",
"ap c #000000",
"aq c #000000",
"ar c #000000",
"as c #000000",
"at c #000000",
"au c #000000",
"av c #000000",
"aw c #000000",
"ax c #000000",
"ay c #000000",
"az c #000000",
"aA c #000000",
"aB c #000000",
"aC c #000000",
"aD c #000000",
"aE c #000000",
"aF c #000000",
"aG c #000000",
"aH c #000000",
"aI c #000000",
"aJ c #000000",
"aK c #000000",
"aL c #000000",
"aM c #000000",
"aN c #000000",
"aO c #000000",
"aP c #000000",
"aQ c #000000",
"aR c #000000",
"aS c #000000",
"aT c #000000",
"aU c #000000",
"aV c #000000",
"aW c #000000",
"aX c #000000",
"aY c #000000",
"aZ c #000000",
"a0 c #000000",
"a1 c #000000",
"a2 c #000000",
"a3 c #000000",
"a4 c #000000",
"a5 c #000000",
"a6 c #000000",
"a7 c #000000",
"a8 c #000000",
/* pixels */
"`````````````````````````````````````````````````````.`#```````#",
"`````````````````````````````````````````````````a`b`c`d`e`#```#",
"`````````````````````````````````````````````a`f`g`h`i`j`k`l`e`#",
"```````````````````````````````````````````m`n`o`p`q`r`s`t`u`v`#",
"```````````````````````````````````````w`x`y`z`A`B`C`D`E`F`G`H`#",
"```````````````````````````````````w`n`I`J`K`L`M`N`O`P`Q`R`S`T`#",
"`````````````````````U`V`W`X```X`Y`Z`0`1`2`3`4`5`6`7`8.`...#.a`#",
"````````````````````.b.c.d.e.f.g.h.i.j.k.l.m.n.o`I.p.q.r.s`````#",
"``````````````````.t.u.v.w.x.y.z.A.B.C.D.E.F.G.H.I.J.K.L```````#",
"````````````````.M.N.O.v.P.Q.R.S.T.U.V.W.X.Y.Z.0.1.2```````````#",
"```````````````U.3.O.O.O.O.v.4.5.S.6.7.8#`#.###a#b`````````````#",
"`````````````U#c#d#d#d#d#d.O.v#e#f#g.x#h#i#j#k`````````````````#",
"````````````#l#m#m#m#m#d#d#d#d.O#e#n.S#o#p`````````````````````#",
"``````````#q#r#m#m#m#m#m#m#m#m#m#d#n#s#t#u#v`X`````````````````#",
"````````#w#x#y#y#y#y#y#y#m#m#m#m#m#z#A#B#C#D#E`````````````````#",
"```````X#F#G#G#G#y#y#y#y#H#I#J#K#L#M#N#O#P#Q#R`````````````````#",
"`````X#S#G#G#G#T#U#J#V#W#X#Y#Y#Y#Y#Z#0#1#2#3#4`````````````````#",
"````#5#U#V#W#6#7#8#8#8#8a`a.a#a#aa#4```````````````````````````#",
"````ab#8#8#8acadaeafaaaa#4`````````````````````````````````````#",
"````agafafaa#4`````````````````````````````````````````````````#",
"```````````````````````````````````````````````````````````````#",
"```````````````````````````````````````````````````````````````#",
"```````````````````````````````````````````````````````````````#",
"````````````````````````````````````````````````````````````````",
"````````````````````````````````````````````````````````````````",
"````````````````````````````````````````````````````````````````",
"````````````````````````````````````````````````````````````````",
"````````````````````````````````````````````````````````````````",
"````````````````````````````````````````````````````````````````",
"````````````````````````````````````````````````````````````````",
"````````````````````````````````````````````````````````````````",
"````````````````````````````````````````````````````````````````"
};
