<?xml version="1.0" encoding="utf-8"?>
<!-- Generator: Adobe Illustrator 22.1.0, SVG Export Plug-In . SVG Version: 6.00 Build 0)  -->
<svg version="1.1" id="Layer_1" xmlns="http://www.w3.org/2000/svg" xmlns:xlink="http://www.w3.org/1999/xlink" x="0px" y="0px"
	 viewBox="0 0 640 512" style="enable-background:new 0 0 640 512;" xml:space="preserve">
<style type="text/css">
	.st0{fill:#FFFFFF;}
</style>
<path class="st0" d="M592.6,208.2C559.7,192.8,515.8,184,472,184H186.3c-5-6.6-10.6-12-16.7-16H376C229.2,137.7,219.4,32,96,32h0
	v128H80V32c-26.5,0-48,28.7-48,64v64c-23.2,0-32,10-32,24v40c0,14,8.8,24,32,24v16c-23.2,0-32,10-32,24v40c0,14,8.8,24,32,24v64
	c0,35.3,21.5,64,48,64V352h16v128h0c123.4,0,133.2-105.7,280-136H169.6c6.1-4,11.8-9.4,16.7-16H472c43.8,0,87.7-8.8,120.6-24.2
	C622.3,289.8,640,272,640,256S622.3,222.2,592.6,208.2z M488,296c-4.4,0-8-3.6-8-8v-64c0-4.4,3.6-8,8-8C519.9,216,519.9,296,488,296
	z"/>
</svg>
